<svg width="480" height="480" viewBox="0 0 480 480" fill="none" xmlns="http://www.w3.org/2000/svg">
<g clip-path="url(#clip0_119_2307)">
<rect width="480" height="480" rx="24" fill="url(#paint0_linear_119_2307)"/>
<circle cx="240.001" cy="240" r="45.2857" stroke="url(#paint1_linear_119_2307)" stroke-opacity="0.04" stroke-width="2"/>
<circle cx="239.999" cy="240" r="91.5714" stroke="url(#paint2_linear_119_2307)" stroke-opacity="0.04" stroke-width="2"/>
<circle cx="240" cy="240" r="137.857" stroke="url(#paint3_linear_119_2307)" stroke-opacity="0.04" stroke-width="2"/>
<circle cx="240" cy="240" r="184.143" stroke="url(#paint4_linear_119_2307)" stroke-opacity="0.04" stroke-width="2"/>
<circle cx="240.001" cy="240" r="230.429" stroke="url(#paint5_linear_119_2307)" stroke-opacity="0.04" stroke-width="2"/>
<circle cx="239.999" cy="240" r="276.714" stroke="url(#paint6_linear_119_2307)" stroke-opacity="0.04" stroke-width="2"/>
<circle cx="240" cy="240" r="323" stroke="url(#paint7_linear_119_2307)" stroke-opacity="0.04" stroke-width="2"/>
<rect x="75" y="220" width="330" height="188" rx="24" fill="white"/>
<path d="M222.628 266.869L221.848 266.085L226.574 261.351H222.952L222.96 260.273H228.436V265.753H227.349L227.358 262.131L222.628 266.869ZM236.953 269.119C236.343 269.119 235.803 269.014 235.334 268.804C234.868 268.594 234.503 268.304 234.239 267.935C233.975 267.565 233.844 267.145 233.847 266.673C233.844 266.304 233.919 265.964 234.073 265.655C234.229 265.342 234.441 265.082 234.708 264.875C234.975 264.665 235.273 264.531 235.602 264.474V264.423C235.168 264.318 234.82 264.085 234.558 263.724C234.297 263.364 234.168 262.949 234.171 262.48C234.168 262.034 234.286 261.636 234.524 261.287C234.766 260.935 235.097 260.658 235.517 260.456C235.938 260.254 236.416 260.153 236.953 260.153C237.485 260.153 237.959 260.256 238.377 260.46C238.797 260.662 239.128 260.939 239.37 261.291C239.611 261.641 239.733 262.037 239.736 262.48C239.733 262.949 239.6 263.364 239.335 263.724C239.071 264.085 238.728 264.318 238.304 264.423V264.474C238.631 264.531 238.925 264.665 239.186 264.875C239.451 265.082 239.661 265.342 239.817 265.655C239.976 265.964 240.057 266.304 240.06 266.673C240.057 267.145 239.924 267.565 239.659 267.935C239.395 268.304 239.029 268.594 238.56 268.804C238.094 269.014 237.558 269.119 236.953 269.119ZM236.953 268.041C237.314 268.041 237.627 267.982 237.891 267.862C238.155 267.74 238.36 267.571 238.504 267.355C238.649 267.136 238.723 266.881 238.726 266.588C238.723 266.284 238.644 266.016 238.487 265.783C238.334 265.55 238.125 265.366 237.861 265.233C237.597 265.099 237.294 265.033 236.953 265.033C236.61 265.033 236.304 265.099 236.037 265.233C235.77 265.366 235.56 265.55 235.406 265.783C235.253 266.016 235.178 266.284 235.181 266.588C235.178 266.881 235.247 267.136 235.389 267.355C235.534 267.571 235.74 267.74 236.007 267.862C236.274 267.982 236.59 268.041 236.953 268.041ZM236.953 263.98C237.243 263.98 237.5 263.922 237.725 263.805C237.949 263.689 238.125 263.527 238.253 263.32C238.384 263.112 238.451 262.869 238.453 262.591C238.451 262.318 238.385 262.08 238.257 261.875C238.132 261.67 237.958 261.513 237.733 261.402C237.509 261.288 237.249 261.232 236.953 261.232C236.652 261.232 236.388 261.288 236.161 261.402C235.936 261.513 235.762 261.67 235.637 261.875C235.512 262.08 235.451 262.318 235.453 262.591C235.451 262.869 235.513 263.112 235.641 263.32C235.769 263.527 235.945 263.689 236.169 263.805C236.397 263.922 236.658 263.98 236.953 263.98ZM241.705 269.081C241.472 269.081 241.272 268.999 241.104 268.834C240.937 268.666 240.853 268.464 240.853 268.229C240.853 267.996 240.937 267.797 241.104 267.632C241.272 267.464 241.472 267.381 241.705 267.381C241.938 267.381 242.138 267.464 242.306 267.632C242.474 267.797 242.558 267.996 242.558 268.229C242.558 268.385 242.518 268.528 242.438 268.659C242.361 268.787 242.259 268.889 242.131 268.966C242.004 269.043 241.861 269.081 241.705 269.081ZM246.564 260.153C246.953 260.156 247.336 260.227 247.714 260.366C248.092 260.506 248.433 260.733 248.737 261.048C249.044 261.364 249.288 261.79 249.47 262.327C249.655 262.861 249.748 263.526 249.751 264.321C249.751 265.085 249.674 265.766 249.521 266.362C249.368 266.956 249.147 267.457 248.861 267.866C248.576 268.276 248.231 268.587 247.825 268.8C247.419 269.013 246.961 269.119 246.453 269.119C245.933 269.119 245.471 269.017 245.068 268.812C244.665 268.608 244.336 268.325 244.084 267.964C243.831 267.601 243.673 267.183 243.611 266.712H244.91C244.995 267.087 245.169 267.391 245.43 267.624C245.694 267.854 246.035 267.969 246.453 267.969C247.092 267.969 247.591 267.69 247.949 267.134C248.307 266.574 248.487 265.793 248.49 264.79H248.422C248.274 265.034 248.089 265.244 247.868 265.42C247.649 265.597 247.403 265.733 247.13 265.83C246.858 265.926 246.567 265.974 246.257 265.974C245.754 265.974 245.297 265.851 244.885 265.604C244.473 265.357 244.145 265.017 243.9 264.585C243.656 264.153 243.534 263.661 243.534 263.107C243.534 262.555 243.659 262.055 243.909 261.607C244.162 261.158 244.514 260.803 244.966 260.541C245.42 260.277 245.953 260.148 246.564 260.153ZM246.568 261.261C246.236 261.261 245.936 261.344 245.669 261.509C245.405 261.67 245.196 261.891 245.042 262.169C244.889 262.445 244.812 262.751 244.812 263.089C244.812 263.428 244.886 263.734 245.034 264.01C245.184 264.283 245.389 264.5 245.647 264.662C245.909 264.821 246.207 264.901 246.542 264.901C246.792 264.901 247.025 264.852 247.241 264.756C247.457 264.659 247.646 264.526 247.808 264.355C247.97 264.182 248.096 263.986 248.187 263.767C248.278 263.548 248.324 263.318 248.324 263.077C248.324 262.756 248.247 262.457 248.093 262.182C247.943 261.906 247.736 261.685 247.471 261.517C247.207 261.347 246.906 261.261 246.568 261.261ZM255.366 267.364V266.903C255.366 266.574 255.434 266.273 255.571 266C255.71 265.724 255.911 265.504 256.176 265.339C256.443 265.172 256.765 265.088 257.143 265.088C257.529 265.088 257.853 265.17 258.115 265.335C258.376 265.5 258.573 265.72 258.707 265.996C258.843 266.271 258.911 266.574 258.911 266.903V267.364C258.911 267.693 258.843 267.996 258.707 268.271C258.571 268.544 258.37 268.764 258.106 268.932C257.845 269.097 257.524 269.179 257.143 269.179C256.759 269.179 256.436 269.097 256.171 268.932C255.907 268.764 255.707 268.544 255.571 268.271C255.434 267.996 255.366 267.693 255.366 267.364ZM256.359 266.903V267.364C256.359 267.608 256.417 267.83 256.534 268.028C256.65 268.227 256.853 268.327 257.143 268.327C257.43 268.327 257.63 268.227 257.744 268.028C257.857 267.83 257.914 267.608 257.914 267.364V266.903C257.914 266.659 257.859 266.437 257.748 266.239C257.64 266.04 257.438 265.94 257.143 265.94C256.859 265.94 256.657 266.04 256.538 266.239C256.419 266.437 256.359 266.659 256.359 266.903ZM250.977 262.369V261.909C250.977 261.58 251.045 261.277 251.181 261.001C251.321 260.726 251.522 260.506 251.786 260.341C252.053 260.176 252.376 260.094 252.754 260.094C253.14 260.094 253.464 260.176 253.725 260.341C253.987 260.506 254.184 260.726 254.318 261.001C254.451 261.277 254.518 261.58 254.518 261.909V262.369C254.518 262.699 254.45 263.001 254.313 263.277C254.18 263.55 253.981 263.77 253.717 263.938C253.455 264.102 253.134 264.185 252.754 264.185C252.367 264.185 252.042 264.102 251.778 263.938C251.517 263.77 251.318 263.55 251.181 263.277C251.045 263.001 250.977 262.699 250.977 262.369ZM251.974 261.909V262.369C251.974 262.614 252.031 262.835 252.144 263.034C252.261 263.233 252.464 263.332 252.754 263.332C253.038 263.332 253.237 263.233 253.35 263.034C253.467 262.835 253.525 262.614 253.525 262.369V261.909C253.525 261.665 253.47 261.443 253.359 261.244C253.248 261.045 253.046 260.946 252.754 260.946C252.47 260.946 252.268 261.045 252.149 261.244C252.032 261.443 251.974 261.665 251.974 261.909ZM251.382 269L257.382 260.273H258.4L252.4 269H251.382Z" fill="#58BD7D"/>
<path d="M190.372 326.358C188.531 326.358 186.895 326.043 185.463 325.412C184.039 324.781 182.914 323.903 182.088 322.778C181.261 321.653 180.822 320.354 180.771 318.879H185.578C185.62 319.587 185.855 320.205 186.281 320.733C186.707 321.253 187.274 321.658 187.981 321.947C188.689 322.237 189.481 322.382 190.359 322.382C191.297 322.382 192.128 322.22 192.852 321.896C193.576 321.564 194.143 321.104 194.552 320.516C194.961 319.928 195.162 319.25 195.153 318.483C195.162 317.69 194.957 316.991 194.539 316.386C194.122 315.781 193.517 315.308 192.724 314.967C191.94 314.626 190.994 314.456 189.886 314.456H187.572V310.8H189.886C190.798 310.8 191.595 310.642 192.277 310.327C192.967 310.011 193.508 309.568 193.9 308.997C194.292 308.418 194.484 307.749 194.476 306.99C194.484 306.249 194.318 305.605 193.977 305.06C193.645 304.506 193.172 304.075 192.558 303.768C191.953 303.462 191.241 303.308 190.423 303.308C189.622 303.308 188.88 303.453 188.199 303.743C187.517 304.033 186.967 304.446 186.549 304.983C186.132 305.511 185.91 306.142 185.885 306.875H181.321C181.355 305.409 181.777 304.122 182.586 303.014C183.405 301.898 184.495 301.028 185.859 300.406C187.223 299.776 188.753 299.46 190.449 299.46C192.196 299.46 193.713 299.788 195 300.445C196.295 301.092 197.297 301.966 198.004 303.065C198.711 304.165 199.065 305.379 199.065 306.709C199.074 308.183 198.639 309.419 197.761 310.416C196.892 311.413 195.75 312.065 194.335 312.372V312.577C196.176 312.832 197.586 313.514 198.566 314.622C199.555 315.722 200.045 317.089 200.037 318.726C200.037 320.192 199.619 321.504 198.784 322.663C197.957 323.814 196.815 324.717 195.358 325.374C193.909 326.03 192.247 326.358 190.372 326.358ZM203.944 326L215.078 303.96V303.781H202.154V299.818H219.988V303.871L208.865 326H203.944ZM221.076 326.281C220.3 326.281 219.635 326.009 219.081 325.463C218.527 324.918 218.255 324.253 218.263 323.469C218.255 322.702 218.527 322.045 219.081 321.5C219.635 320.955 220.3 320.682 221.076 320.682C221.826 320.682 222.478 320.955 223.032 321.5C223.594 322.045 223.88 322.702 223.888 323.469C223.88 323.989 223.743 324.462 223.479 324.888C223.223 325.314 222.882 325.655 222.456 325.911C222.039 326.158 221.578 326.281 221.076 326.281ZM226.702 321.142V317.371L237.811 299.818H240.956V305.188H239.039L231.56 317.038V317.243H247.067V321.142H226.702ZM239.192 326V319.991L239.243 318.304V299.818H243.718V326H239.192ZM258.814 326.358C257.109 326.358 255.584 326.038 254.237 325.399C252.891 324.751 251.821 323.865 251.028 322.74C250.244 321.615 249.827 320.328 249.776 318.879H254.378C254.463 319.953 254.928 320.831 255.771 321.513C256.615 322.186 257.629 322.523 258.814 322.523C259.743 322.523 260.57 322.31 261.294 321.884C262.018 321.457 262.589 320.865 263.007 320.107C263.425 319.348 263.629 318.483 263.621 317.511C263.629 316.523 263.42 315.645 262.994 314.878C262.568 314.111 261.984 313.51 261.243 313.075C260.501 312.632 259.649 312.411 258.686 312.411C257.902 312.402 257.131 312.547 256.372 312.845C255.614 313.143 255.013 313.536 254.57 314.021L250.287 313.318L251.655 299.818H266.842V303.781H255.58L254.825 310.723H254.979C255.464 310.152 256.151 309.679 257.037 309.304C257.923 308.92 258.895 308.729 259.952 308.729C261.537 308.729 262.952 309.104 264.196 309.854C265.44 310.595 266.42 311.618 267.136 312.922C267.852 314.226 268.21 315.717 268.21 317.396C268.21 319.126 267.81 320.669 267.008 322.024C266.216 323.371 265.112 324.432 263.697 325.207C262.291 325.974 260.663 326.358 258.814 326.358ZM271.309 299.818H277.113L284.885 318.79H285.192L292.965 299.818H298.769V326H294.218V308.013H293.975L286.739 325.923H283.338L276.103 307.974H275.86V326H271.309V299.818Z" fill="#1D354F"/>
<path d="M185.499 354.75L178.249 358C178.249 358 177.499 369.25 185.499 369.25C193.499 369.25 192.749 358 192.749 358L185.499 354.75Z" stroke="#1D354F" stroke-width="1.5" stroke-linecap="round" stroke-linejoin="round"/>
<path d="M206.778 368V356.364H211.04C211.866 356.364 212.549 356.5 213.091 356.773C213.633 357.042 214.038 357.407 214.307 357.869C214.576 358.328 214.71 358.845 214.71 359.42C214.71 359.905 214.621 360.314 214.443 360.648C214.265 360.977 214.027 361.242 213.727 361.443C213.432 361.64 213.106 361.784 212.75 361.875V361.989C213.136 362.008 213.513 362.133 213.881 362.364C214.252 362.591 214.559 362.915 214.801 363.335C215.044 363.756 215.165 364.267 215.165 364.869C215.165 365.464 215.025 365.998 214.744 366.472C214.468 366.941 214.04 367.314 213.46 367.591C212.881 367.864 212.14 368 211.239 368H206.778ZM208.534 366.494H211.068C211.909 366.494 212.511 366.331 212.875 366.006C213.239 365.68 213.42 365.273 213.42 364.784C213.42 364.417 213.328 364.08 213.142 363.773C212.956 363.466 212.691 363.222 212.347 363.04C212.006 362.858 211.6 362.767 211.131 362.767H208.534V366.494ZM208.534 361.398H210.886C211.28 361.398 211.634 361.322 211.949 361.17C212.267 361.019 212.519 360.807 212.705 360.534C212.894 360.258 212.989 359.932 212.989 359.557C212.989 359.076 212.82 358.672 212.483 358.347C212.146 358.021 211.629 357.858 210.932 357.858H208.534V361.398ZM220.147 368.176C219.329 368.176 218.615 367.989 218.005 367.614C217.395 367.239 216.922 366.714 216.584 366.04C216.247 365.366 216.079 364.578 216.079 363.676C216.079 362.771 216.247 361.979 216.584 361.301C216.922 360.623 217.395 360.097 218.005 359.722C218.615 359.347 219.329 359.159 220.147 359.159C220.965 359.159 221.679 359.347 222.289 359.722C222.899 360.097 223.372 360.623 223.709 361.301C224.047 361.979 224.215 362.771 224.215 363.676C224.215 364.578 224.047 365.366 223.709 366.04C223.372 366.714 222.899 367.239 222.289 367.614C221.679 367.989 220.965 368.176 220.147 368.176ZM220.153 366.75C220.683 366.75 221.122 366.61 221.471 366.33C221.819 366.049 222.077 365.676 222.244 365.21C222.414 364.744 222.499 364.231 222.499 363.67C222.499 363.114 222.414 362.602 222.244 362.136C222.077 361.667 221.819 361.29 221.471 361.006C221.122 360.722 220.683 360.58 220.153 360.58C219.619 360.58 219.175 360.722 218.823 361.006C218.475 361.29 218.215 361.667 218.045 362.136C217.878 362.602 217.795 363.114 217.795 363.67C217.795 364.231 217.878 364.744 218.045 365.21C218.215 365.676 218.475 366.049 218.823 366.33C219.175 366.61 219.619 366.75 220.153 366.75ZM229.148 368.176C228.329 368.176 227.615 367.989 227.006 367.614C226.396 367.239 225.922 366.714 225.585 366.04C225.248 365.366 225.079 364.578 225.079 363.676C225.079 362.771 225.248 361.979 225.585 361.301C225.922 360.623 226.396 360.097 227.006 359.722C227.615 359.347 228.329 359.159 229.148 359.159C229.966 359.159 230.68 359.347 231.29 359.722C231.899 360.097 232.373 360.623 232.71 361.301C233.047 361.979 233.216 362.771 233.216 363.676C233.216 364.578 233.047 365.366 232.71 366.04C232.373 366.714 231.899 367.239 231.29 367.614C230.68 367.989 229.966 368.176 229.148 368.176ZM229.153 366.75C229.684 366.75 230.123 366.61 230.471 366.33C230.82 366.049 231.077 365.676 231.244 365.21C231.415 364.744 231.5 364.231 231.5 363.67C231.5 363.114 231.415 362.602 231.244 362.136C231.077 361.667 230.82 361.29 230.471 361.006C230.123 360.722 229.684 360.58 229.153 360.58C228.619 360.58 228.176 360.722 227.824 361.006C227.475 361.29 227.216 361.667 227.045 362.136C226.879 362.602 226.795 363.114 226.795 363.67C226.795 364.231 226.879 364.744 227.045 365.21C227.216 365.676 227.475 366.049 227.824 366.33C228.176 366.61 228.619 366.75 229.153 366.75ZM241.012 361.403L239.472 361.676C239.408 361.479 239.305 361.292 239.165 361.114C239.029 360.936 238.843 360.79 238.608 360.676C238.374 360.562 238.08 360.506 237.728 360.506C237.247 360.506 236.845 360.614 236.523 360.83C236.201 361.042 236.04 361.316 236.04 361.653C236.04 361.945 236.148 362.18 236.364 362.358C236.58 362.536 236.928 362.682 237.41 362.795L238.796 363.114C239.599 363.299 240.197 363.585 240.591 363.972C240.985 364.358 241.182 364.86 241.182 365.477C241.182 366 241.031 366.466 240.728 366.875C240.428 367.28 240.01 367.598 239.472 367.83C238.938 368.061 238.319 368.176 237.614 368.176C236.637 368.176 235.839 367.968 235.222 367.551C234.605 367.131 234.226 366.534 234.086 365.761L235.728 365.511C235.83 365.939 236.04 366.263 236.358 366.483C236.677 366.699 237.091 366.807 237.603 366.807C238.16 366.807 238.605 366.691 238.938 366.46C239.271 366.225 239.438 365.939 239.438 365.602C239.438 365.33 239.336 365.1 239.131 364.915C238.93 364.729 238.622 364.589 238.205 364.494L236.728 364.17C235.913 363.985 235.311 363.689 234.921 363.284C234.535 362.879 234.341 362.366 234.341 361.744C234.341 361.229 234.485 360.778 234.773 360.392C235.061 360.006 235.459 359.705 235.966 359.489C236.474 359.269 237.055 359.159 237.711 359.159C238.654 359.159 239.396 359.364 239.938 359.773C240.48 360.178 240.838 360.722 241.012 361.403ZM246.484 359.273V360.636H241.717V359.273H246.484ZM242.995 357.182H244.694V365.438C244.694 365.767 244.744 366.015 244.842 366.182C244.94 366.345 245.067 366.456 245.223 366.517C245.382 366.574 245.554 366.602 245.74 366.602C245.876 366.602 245.995 366.593 246.098 366.574C246.2 366.555 246.279 366.54 246.336 366.528L246.643 367.932C246.545 367.97 246.404 368.008 246.223 368.045C246.041 368.087 245.814 368.11 245.541 368.114C245.094 368.121 244.677 368.042 244.291 367.875C243.904 367.708 243.592 367.451 243.353 367.102C243.115 366.754 242.995 366.316 242.995 365.79V357.182ZM251.391 368.176C250.531 368.176 249.791 367.992 249.169 367.625C248.552 367.254 248.075 366.733 247.737 366.062C247.404 365.388 247.237 364.598 247.237 363.693C247.237 362.799 247.404 362.011 247.737 361.33C248.075 360.648 248.544 360.116 249.147 359.733C249.753 359.35 250.461 359.159 251.272 359.159C251.764 359.159 252.241 359.241 252.703 359.403C253.166 359.566 253.58 359.822 253.948 360.17C254.315 360.519 254.605 360.972 254.817 361.528C255.029 362.081 255.135 362.754 255.135 363.545V364.148H248.198V362.875H253.47C253.47 362.428 253.38 362.032 253.198 361.688C253.016 361.339 252.76 361.064 252.431 360.864C252.105 360.663 251.722 360.562 251.283 360.562C250.806 360.562 250.389 360.68 250.033 360.915C249.681 361.146 249.408 361.449 249.215 361.824C249.025 362.195 248.931 362.598 248.931 363.034V364.028C248.931 364.612 249.033 365.108 249.237 365.517C249.446 365.926 249.736 366.239 250.107 366.455C250.478 366.667 250.912 366.773 251.408 366.773C251.73 366.773 252.023 366.727 252.289 366.636C252.554 366.542 252.783 366.402 252.976 366.216C253.169 366.03 253.317 365.801 253.419 365.528L255.027 365.818C254.898 366.292 254.667 366.706 254.334 367.062C254.005 367.415 253.59 367.689 253.09 367.886C252.594 368.08 252.027 368.176 251.391 368.176ZM256.38 368V359.273H258.022V360.659H258.113C258.272 360.189 258.553 359.82 258.954 359.551C259.359 359.278 259.818 359.142 260.329 359.142C260.435 359.142 260.56 359.146 260.704 359.153C260.852 359.161 260.967 359.17 261.051 359.182V360.807C260.982 360.788 260.861 360.767 260.687 360.744C260.513 360.718 260.339 360.705 260.164 360.705C259.763 360.705 259.405 360.79 259.09 360.96C258.78 361.127 258.534 361.36 258.352 361.659C258.17 361.955 258.079 362.292 258.079 362.67V368H256.38ZM273.487 360.04C273.377 359.695 273.229 359.386 273.043 359.114C272.862 358.837 272.644 358.602 272.39 358.409C272.136 358.212 271.846 358.062 271.521 357.96C271.199 357.858 270.844 357.807 270.458 357.807C269.803 357.807 269.212 357.975 268.685 358.312C268.159 358.65 267.742 359.144 267.435 359.795C267.132 360.443 266.981 361.237 266.981 362.176C266.981 363.119 267.134 363.917 267.441 364.568C267.748 365.22 268.168 365.714 268.702 366.051C269.237 366.388 269.844 366.557 270.526 366.557C271.159 366.557 271.71 366.428 272.18 366.17C272.653 365.913 273.019 365.549 273.276 365.08C273.538 364.606 273.668 364.049 273.668 363.409L274.123 363.494H270.793V362.045H275.367V363.369C275.367 364.347 275.159 365.195 274.742 365.915C274.329 366.631 273.757 367.184 273.026 367.574C272.299 367.964 271.466 368.159 270.526 368.159C269.473 368.159 268.549 367.917 267.754 367.432C266.962 366.947 266.344 366.259 265.901 365.369C265.458 364.475 265.237 363.415 265.237 362.188C265.237 361.259 265.365 360.426 265.623 359.688C265.88 358.949 266.242 358.322 266.708 357.807C267.178 357.288 267.729 356.892 268.362 356.619C268.998 356.343 269.693 356.205 270.447 356.205C271.076 356.205 271.661 356.297 272.202 356.483C272.748 356.669 273.233 356.932 273.657 357.273C274.085 357.614 274.439 358.019 274.719 358.489C275 358.955 275.189 359.472 275.288 360.04H273.487ZM277.366 368V359.273H279.065V368H277.366ZM278.224 357.926C277.929 357.926 277.675 357.828 277.463 357.631C277.255 357.43 277.151 357.191 277.151 356.915C277.151 356.634 277.255 356.396 277.463 356.199C277.675 355.998 277.929 355.898 278.224 355.898C278.52 355.898 278.772 355.998 278.98 356.199C279.192 356.396 279.298 356.634 279.298 356.915C279.298 357.191 279.192 357.43 278.98 357.631C278.772 357.828 278.52 357.926 278.224 357.926ZM288.177 359.273L285.012 368H283.194L280.023 359.273H281.847L284.057 365.989H284.148L286.353 359.273H288.177ZM292.598 368.176C291.738 368.176 290.997 367.992 290.376 367.625C289.759 367.254 289.281 366.733 288.944 366.062C288.611 365.388 288.444 364.598 288.444 363.693C288.444 362.799 288.611 362.011 288.944 361.33C289.281 360.648 289.751 360.116 290.353 359.733C290.96 359.35 291.668 359.159 292.478 359.159C292.971 359.159 293.448 359.241 293.91 359.403C294.372 359.566 294.787 359.822 295.155 360.17C295.522 360.519 295.812 360.972 296.024 361.528C296.236 362.081 296.342 362.754 296.342 363.545V364.148H289.405V362.875H294.677C294.677 362.428 294.586 362.032 294.405 361.688C294.223 361.339 293.967 361.064 293.638 360.864C293.312 360.663 292.929 360.562 292.49 360.562C292.013 360.562 291.596 360.68 291.24 360.915C290.888 361.146 290.615 361.449 290.422 361.824C290.232 362.195 290.138 362.598 290.138 363.034V364.028C290.138 364.612 290.24 365.108 290.444 365.517C290.653 365.926 290.942 366.239 291.314 366.455C291.685 366.667 292.119 366.773 292.615 366.773C292.937 366.773 293.23 366.727 293.496 366.636C293.761 366.542 293.99 366.402 294.183 366.216C294.376 366.03 294.524 365.801 294.626 365.528L296.234 365.818C296.105 366.292 295.874 366.706 295.541 367.062C295.211 367.415 294.797 367.689 294.297 367.886C293.8 368.08 293.234 368.176 292.598 368.176ZM299.286 362.818V368H297.587V359.273H299.218V360.693H299.326C299.526 360.231 299.841 359.86 300.269 359.58C300.701 359.299 301.244 359.159 301.9 359.159C302.494 359.159 303.015 359.284 303.462 359.534C303.909 359.78 304.256 360.148 304.502 360.636C304.748 361.125 304.871 361.729 304.871 362.449V368H303.172V362.653C303.172 362.021 303.007 361.527 302.678 361.17C302.348 360.811 301.896 360.631 301.32 360.631C300.926 360.631 300.576 360.716 300.269 360.886C299.966 361.057 299.725 361.307 299.547 361.636C299.373 361.962 299.286 362.356 299.286 362.818Z" fill="#1D354F"/>
<rect x="75.75" y="220.75" width="328.5" height="186.5" rx="23.25" stroke="#8593A3" stroke-opacity="0.24" stroke-width="1.5"/>
<rect x="75" y="416" width="330" height="188" rx="24" fill="white"/>
<path d="M220.628 462.869L219.848 462.085L224.574 457.351H220.952L220.96 456.273H226.436V461.753H225.349L225.358 458.131L220.628 462.869ZM235.316 456.273V465H233.995V457.594H233.943L231.855 458.957V457.696L234.033 456.273H235.316ZM240.235 465.119C239.649 465.119 239.127 465.018 238.667 464.817C238.209 464.615 237.847 464.335 237.58 463.977C237.316 463.616 237.174 463.199 237.154 462.724H238.492C238.509 462.983 238.596 463.207 238.752 463.398C238.911 463.585 239.118 463.73 239.374 463.832C239.63 463.935 239.914 463.986 240.226 463.986C240.57 463.986 240.874 463.926 241.138 463.807C241.405 463.687 241.614 463.521 241.765 463.308C241.915 463.092 241.99 462.844 241.99 462.562C241.99 462.27 241.915 462.013 241.765 461.791C241.617 461.567 241.399 461.391 241.113 461.263C240.828 461.135 240.485 461.071 240.081 461.071H239.344V459.997H240.081C240.405 459.997 240.689 459.939 240.934 459.822C241.181 459.706 241.374 459.544 241.513 459.337C241.652 459.126 241.722 458.881 241.722 458.599C241.722 458.33 241.661 458.095 241.539 457.896C241.419 457.695 241.249 457.537 241.027 457.423C240.809 457.31 240.55 457.253 240.252 457.253C239.968 457.253 239.702 457.305 239.455 457.411C239.211 457.513 239.012 457.661 238.858 457.854C238.705 458.044 238.622 458.273 238.611 458.54H237.337C237.351 458.068 237.49 457.653 237.755 457.295C238.022 456.937 238.374 456.658 238.811 456.456C239.249 456.254 239.735 456.153 240.269 456.153C240.828 456.153 241.311 456.263 241.718 456.482C242.127 456.697 242.442 456.986 242.664 457.347C242.888 457.707 242.999 458.102 242.996 458.531C242.999 459.02 242.863 459.435 242.587 459.776C242.314 460.116 241.951 460.345 241.496 460.462V460.53C242.076 460.618 242.524 460.848 242.843 461.22C243.164 461.592 243.323 462.054 243.32 462.605C243.323 463.085 243.189 463.516 242.919 463.896C242.652 464.277 242.287 464.577 241.824 464.795C241.361 465.011 240.831 465.119 240.235 465.119ZM245.049 465.081C244.817 465.081 244.616 464.999 244.449 464.834C244.281 464.666 244.197 464.464 244.197 464.229C244.197 463.996 244.281 463.797 244.449 463.632C244.616 463.464 244.817 463.381 245.049 463.381C245.282 463.381 245.483 463.464 245.65 463.632C245.818 463.797 245.902 463.996 245.902 464.229C245.902 464.385 245.862 464.528 245.782 464.659C245.706 464.787 245.603 464.889 245.476 464.966C245.348 465.043 245.206 465.081 245.049 465.081ZM247.183 465L250.992 457.466V457.402H246.586V456.273H252.356V457.44L248.559 465H247.183ZM257.913 463.364V462.903C257.913 462.574 257.982 462.273 258.118 462C258.257 461.724 258.459 461.504 258.723 461.339C258.99 461.172 259.312 461.088 259.69 461.088C260.077 461.088 260.401 461.17 260.662 461.335C260.923 461.5 261.121 461.72 261.254 461.996C261.391 462.271 261.459 462.574 261.459 462.903V463.364C261.459 463.693 261.391 463.996 261.254 464.271C261.118 464.544 260.918 464.764 260.653 464.932C260.392 465.097 260.071 465.179 259.69 465.179C259.307 465.179 258.983 465.097 258.719 464.932C258.455 464.764 258.254 464.544 258.118 464.271C257.982 463.996 257.913 463.693 257.913 463.364ZM258.906 462.903V463.364C258.906 463.608 258.964 463.83 259.081 464.028C259.197 464.227 259.401 464.327 259.69 464.327C259.977 464.327 260.178 464.227 260.291 464.028C260.405 463.83 260.462 463.608 260.462 463.364V462.903C260.462 462.659 260.406 462.437 260.295 462.239C260.187 462.04 259.986 461.94 259.69 461.94C259.406 461.94 259.205 462.04 259.085 462.239C258.966 462.437 258.906 462.659 258.906 462.903ZM253.524 458.369V457.909C253.524 457.58 253.592 457.277 253.729 457.001C253.868 456.726 254.07 456.506 254.334 456.341C254.601 456.176 254.923 456.094 255.301 456.094C255.687 456.094 256.011 456.176 256.273 456.341C256.534 456.506 256.732 456.726 256.865 457.001C256.999 457.277 257.065 457.58 257.065 457.909V458.369C257.065 458.699 256.997 459.001 256.861 459.277C256.727 459.55 256.528 459.77 256.264 459.938C256.003 460.102 255.682 460.185 255.301 460.185C254.915 460.185 254.589 460.102 254.325 459.938C254.064 459.77 253.865 459.55 253.729 459.277C253.592 459.001 253.524 458.699 253.524 458.369ZM254.521 457.909V458.369C254.521 458.614 254.578 458.835 254.692 459.034C254.808 459.233 255.011 459.332 255.301 459.332C255.585 459.332 255.784 459.233 255.898 459.034C256.014 458.835 256.072 458.614 256.072 458.369V457.909C256.072 457.665 256.017 457.443 255.906 457.244C255.795 457.045 255.594 456.946 255.301 456.946C255.017 456.946 254.815 457.045 254.696 457.244C254.58 457.443 254.521 457.665 254.521 457.909ZM253.929 465L259.929 456.273H260.947L254.947 465H253.929Z" fill="#58BD7D"/>
<rect x="75.75" y="416.75" width="328.5" height="186.5" rx="23.25" stroke="#8593A3" stroke-opacity="0.24" stroke-width="1.5"/>
<g filter="url(#filter0_d_119_2307)">
<rect x="75" y="24" width="330" height="188" rx="24" fill="white"/>
<path d="M220.128 70.8693L219.348 70.0852L224.074 65.3509H220.452L220.46 64.2727H225.936V69.7528H224.849L224.858 66.1307L220.128 70.8693ZM234.816 64.2727V73H233.495V65.5938H233.443L231.355 66.9574V65.696L233.533 64.2727H234.816ZM236.513 71.2955V70.2301L240.284 64.2727H241.124V65.8409H240.591L237.894 70.1108V70.179H243.063V71.2955H236.513ZM240.651 73V70.9716L240.659 70.4858V64.2727H241.908V73H240.651ZM244.596 73.081C244.363 73.081 244.163 72.9986 243.995 72.8338C243.828 72.6662 243.744 72.4645 243.744 72.2287C243.744 71.9957 243.828 71.7969 243.995 71.6321C244.163 71.4645 244.363 71.3807 244.596 71.3807C244.829 71.3807 245.03 71.4645 245.197 71.6321C245.365 71.7969 245.449 71.9957 245.449 72.2287C245.449 72.3849 245.409 72.5284 245.329 72.6591C245.253 72.7869 245.15 72.8892 245.022 72.9659C244.895 73.0426 244.753 73.081 244.596 73.081ZM246.658 73V72.0455L249.611 68.9858C249.927 68.6534 250.187 68.3622 250.391 68.1122C250.599 67.8594 250.753 67.6193 250.856 67.392C250.958 67.1648 251.009 66.9233 251.009 66.6676C251.009 66.3778 250.941 66.1278 250.805 65.9176C250.668 65.7045 250.482 65.5412 250.246 65.4276C250.011 65.3111 249.745 65.2528 249.449 65.2528C249.137 65.2528 248.864 65.3168 248.631 65.4446C248.398 65.5724 248.219 65.7528 248.094 65.9858C247.969 66.2187 247.907 66.4915 247.907 66.804H246.65C246.65 66.2727 246.772 65.8082 247.016 65.4105C247.261 65.0128 247.596 64.7045 248.022 64.4858C248.448 64.2642 248.932 64.1534 249.475 64.1534C250.023 64.1534 250.506 64.2628 250.924 64.4815C251.344 64.6974 251.672 64.9929 251.908 65.3679C252.144 65.7401 252.262 66.1605 252.262 66.6293C252.262 66.9531 252.201 67.2699 252.079 67.5795C251.959 67.8892 251.751 68.2344 251.452 68.6151C251.154 68.9929 250.739 69.4517 250.208 69.9915L248.474 71.8068V71.8707H252.403V73H246.658ZM258.093 71.3636V70.9034C258.093 70.5739 258.161 70.2727 258.298 70C258.437 69.7244 258.638 69.5043 258.903 69.3395C259.17 69.1719 259.492 69.0881 259.87 69.0881C260.256 69.0881 260.58 69.1705 260.842 69.3352C261.103 69.5 261.3 69.7202 261.434 69.9957C261.57 70.2713 261.638 70.5739 261.638 70.9034V71.3636C261.638 71.6932 261.57 71.9957 261.434 72.2713C261.298 72.544 261.097 72.7642 260.833 72.9318C260.572 73.0966 260.251 73.179 259.87 73.179C259.486 73.179 259.163 73.0966 258.898 72.9318C258.634 72.7642 258.434 72.544 258.298 72.2713C258.161 71.9957 258.093 71.6932 258.093 71.3636ZM259.086 70.9034V71.3636C259.086 71.608 259.144 71.8295 259.261 72.0284C259.377 72.2273 259.58 72.3267 259.87 72.3267C260.157 72.3267 260.357 72.2273 260.471 72.0284C260.584 71.8295 260.641 71.608 260.641 71.3636V70.9034C260.641 70.6591 260.586 70.4375 260.475 70.2386C260.367 70.0398 260.165 69.9403 259.87 69.9403C259.586 69.9403 259.384 70.0398 259.265 70.2386C259.146 70.4375 259.086 70.6591 259.086 70.9034ZM253.704 66.3693V65.9091C253.704 65.5795 253.772 65.277 253.908 65.0014C254.048 64.7259 254.249 64.5057 254.513 64.3409C254.781 64.1761 255.103 64.0938 255.481 64.0938C255.867 64.0938 256.191 64.1761 256.452 64.3409C256.714 64.5057 256.911 64.7259 257.045 65.0014C257.178 65.277 257.245 65.5795 257.245 65.9091V66.3693C257.245 66.6989 257.177 67.0014 257.04 67.277C256.907 67.5497 256.708 67.7699 256.444 67.9375C256.182 68.1023 255.861 68.1847 255.481 68.1847C255.094 68.1847 254.769 68.1023 254.505 67.9375C254.244 67.7699 254.045 67.5497 253.908 67.277C253.772 67.0014 253.704 66.6989 253.704 66.3693ZM254.701 65.9091V66.3693C254.701 66.6136 254.758 66.8352 254.871 67.0341C254.988 67.233 255.191 67.3324 255.481 67.3324C255.765 67.3324 255.964 67.233 256.077 67.0341C256.194 66.8352 256.252 66.6136 256.252 66.3693V65.9091C256.252 65.6648 256.197 65.4432 256.086 65.2443C255.975 65.0455 255.773 64.946 255.481 64.946C255.197 64.946 254.995 65.0455 254.876 65.2443C254.759 65.4432 254.701 65.6648 254.701 65.9091ZM254.109 73L260.109 64.2727H261.127L255.127 73H254.109Z" fill="#58BD7D"/>
<path d="M181.323 103.818V130H176.58V108.433H176.427L170.303 112.345V107.999L176.81 103.818H181.323ZM196.119 130.358C194.866 130.349 193.643 130.132 192.45 129.706C191.257 129.271 190.183 128.568 189.228 127.597C188.274 126.616 187.515 125.317 186.953 123.697C186.39 122.07 186.113 120.054 186.122 117.651C186.122 115.409 186.36 113.411 186.838 111.655C187.315 109.899 188.001 108.416 188.896 107.206C189.791 105.987 190.869 105.058 192.13 104.419C193.4 103.78 194.819 103.46 196.387 103.46C198.032 103.46 199.49 103.784 200.76 104.432C202.038 105.08 203.069 105.966 203.853 107.091C204.637 108.207 205.123 109.469 205.311 110.875H200.645C200.406 109.869 199.916 109.068 199.174 108.472C198.441 107.866 197.512 107.564 196.387 107.564C194.572 107.564 193.174 108.352 192.194 109.929C191.223 111.506 190.733 113.67 190.724 116.423H190.903C191.321 115.673 191.862 115.03 192.527 114.493C193.191 113.956 193.941 113.543 194.777 113.253C195.62 112.955 196.511 112.805 197.449 112.805C198.983 112.805 200.359 113.172 201.578 113.905C202.805 114.638 203.777 115.648 204.493 116.935C205.208 118.213 205.562 119.679 205.554 121.332C205.562 123.054 205.17 124.601 204.378 125.973C203.585 127.337 202.481 128.411 201.066 129.195C199.652 129.979 198.003 130.366 196.119 130.358ZM196.093 126.523C197.022 126.523 197.853 126.297 198.586 125.845C199.319 125.393 199.899 124.784 200.325 124.017C200.751 123.25 200.96 122.389 200.951 121.435C200.96 120.497 200.755 119.649 200.338 118.891C199.929 118.132 199.362 117.531 198.637 117.088C197.913 116.645 197.086 116.423 196.157 116.423C195.467 116.423 194.824 116.555 194.227 116.82C193.63 117.084 193.11 117.45 192.667 117.919C192.224 118.379 191.875 118.916 191.619 119.53C191.372 120.135 191.244 120.783 191.235 121.473C191.244 122.385 191.457 123.224 191.875 123.991C192.292 124.759 192.868 125.372 193.601 125.832C194.333 126.293 195.164 126.523 196.093 126.523ZM217.537 130.358C215.832 130.358 214.307 130.038 212.96 129.399C211.614 128.751 210.544 127.865 209.751 126.74C208.967 125.615 208.55 124.328 208.499 122.879H213.101C213.186 123.953 213.651 124.831 214.494 125.513C215.338 126.186 216.352 126.523 217.537 126.523C218.466 126.523 219.293 126.31 220.017 125.884C220.741 125.457 221.313 124.865 221.73 124.107C222.148 123.348 222.352 122.483 222.344 121.511C222.352 120.523 222.143 119.645 221.717 118.878C221.291 118.111 220.707 117.51 219.966 117.075C219.224 116.632 218.372 116.411 217.409 116.411C216.625 116.402 215.854 116.547 215.095 116.845C214.337 117.143 213.736 117.536 213.293 118.021L209.01 117.318L210.378 103.818H225.565V107.781H214.303L213.548 114.723H213.702C214.188 114.152 214.874 113.679 215.76 113.304C216.646 112.92 217.618 112.729 218.675 112.729C220.26 112.729 221.675 113.104 222.919 113.854C224.163 114.595 225.143 115.618 225.859 116.922C226.575 118.226 226.933 119.717 226.933 121.396C226.933 123.126 226.533 124.669 225.732 126.024C224.939 127.371 223.835 128.432 222.42 129.207C221.014 129.974 219.386 130.358 217.537 130.358ZM231.799 130.281C231.023 130.281 230.359 130.009 229.805 129.463C229.251 128.918 228.978 128.253 228.987 127.469C228.978 126.702 229.251 126.045 229.805 125.5C230.359 124.955 231.023 124.682 231.799 124.682C232.549 124.682 233.201 124.955 233.755 125.5C234.317 126.045 234.603 126.702 234.612 127.469C234.603 127.989 234.467 128.462 234.202 128.888C233.947 129.314 233.606 129.655 233.18 129.911C232.762 130.158 232.302 130.281 231.799 130.281ZM237.425 125.142V121.371L248.535 103.818H251.68V109.188H249.762L242.283 121.038V121.243H257.79V125.142H237.425ZM249.915 130V123.991L249.967 122.304V103.818H254.441V130H249.915ZM260.435 130V126.574L269.524 117.663C270.394 116.786 271.118 116.006 271.698 115.324C272.277 114.642 272.712 113.982 273.002 113.342C273.292 112.703 273.436 112.021 273.436 111.297C273.436 110.47 273.249 109.763 272.874 109.175C272.499 108.578 271.983 108.118 271.327 107.794C270.671 107.47 269.925 107.308 269.09 107.308C268.229 107.308 267.475 107.487 266.827 107.845C266.179 108.195 265.676 108.693 265.319 109.341C264.969 109.989 264.794 110.76 264.794 111.655H260.282C260.282 109.993 260.661 108.548 261.419 107.321C262.178 106.094 263.222 105.143 264.551 104.47C265.89 103.797 267.424 103.46 269.154 103.46C270.909 103.46 272.452 103.788 273.782 104.445C275.111 105.101 276.142 106 276.875 107.142C277.617 108.284 277.988 109.588 277.988 111.054C277.988 112.034 277.8 112.997 277.425 113.943C277.05 114.889 276.39 115.937 275.444 117.088C274.506 118.239 273.189 119.632 271.493 121.268L266.98 125.858V126.037H278.384V130H260.435ZM281.61 103.818H287.414L295.187 122.79H295.494L303.266 103.818H309.07V130H304.519V112.013H304.276L297.04 129.923H293.64L286.404 111.974H286.161V130H281.61V103.818Z" fill="#1D354F"/>
<path d="M177.999 158.75L170.749 162C170.749 162 169.999 173.25 177.999 173.25C185.999 173.25 185.249 162 185.249 162L177.999 158.75Z" stroke="#1D354F" stroke-width="1.5" stroke-linecap="round" stroke-linejoin="round"/>
<path d="M199.278 172V160.364H206.494V161.875H201.034V165.42H205.977V166.926H201.034V172H199.278ZM212.859 168.381V163.273H214.563V172H212.893V170.489H212.802C212.601 170.955 212.279 171.343 211.836 171.653C211.396 171.96 210.849 172.114 210.194 172.114C209.633 172.114 209.137 171.991 208.705 171.744C208.277 171.494 207.94 171.125 207.694 170.636C207.451 170.148 207.33 169.544 207.33 168.824V163.273H209.029V168.619C209.029 169.214 209.194 169.687 209.523 170.04C209.853 170.392 210.281 170.568 210.807 170.568C211.126 170.568 211.442 170.489 211.756 170.33C212.074 170.17 212.338 169.93 212.546 169.608C212.758 169.286 212.862 168.877 212.859 168.381ZM217.905 160.364V172H216.206V160.364H217.905ZM221.249 160.364V172H219.55V160.364H221.249ZM223.968 175.273C223.715 175.273 223.484 175.252 223.275 175.21C223.067 175.172 222.912 175.131 222.809 175.085L223.218 173.693C223.529 173.777 223.806 173.813 224.048 173.801C224.29 173.79 224.504 173.699 224.69 173.528C224.879 173.358 225.046 173.08 225.19 172.693L225.4 172.114L222.207 163.273H224.025L226.235 170.045H226.326L228.537 163.273H230.36L226.764 173.165C226.597 173.619 226.385 174.004 226.128 174.318C225.87 174.636 225.563 174.875 225.207 175.034C224.851 175.193 224.438 175.273 223.968 175.273ZM236.065 160.364L239.303 169.841H239.434L242.673 160.364H244.571L240.383 172H238.355L234.167 160.364H236.065ZM247.155 172.193C246.602 172.193 246.102 172.091 245.655 171.886C245.208 171.678 244.854 171.377 244.592 170.983C244.335 170.589 244.206 170.106 244.206 169.534C244.206 169.042 244.301 168.636 244.49 168.318C244.68 168 244.935 167.748 245.257 167.562C245.579 167.377 245.939 167.237 246.337 167.142C246.734 167.047 247.14 166.975 247.553 166.926C248.075 166.866 248.5 166.816 248.825 166.778C249.151 166.737 249.388 166.67 249.536 166.58C249.683 166.489 249.757 166.341 249.757 166.136V166.097C249.757 165.6 249.617 165.216 249.337 164.943C249.06 164.67 248.647 164.534 248.098 164.534C247.526 164.534 247.075 164.661 246.746 164.915C246.42 165.165 246.195 165.443 246.07 165.75L244.473 165.386C244.663 164.856 244.939 164.428 245.303 164.102C245.67 163.773 246.092 163.534 246.57 163.386C247.047 163.235 247.549 163.159 248.075 163.159C248.424 163.159 248.793 163.201 249.183 163.284C249.577 163.364 249.945 163.511 250.286 163.727C250.63 163.943 250.913 164.252 251.132 164.653C251.352 165.051 251.462 165.568 251.462 166.205V172H249.803V170.807H249.734C249.625 171.027 249.46 171.242 249.24 171.455C249.02 171.667 248.738 171.843 248.394 171.983C248.049 172.123 247.636 172.193 247.155 172.193ZM247.524 170.83C247.994 170.83 248.395 170.737 248.729 170.551C249.066 170.366 249.322 170.123 249.496 169.824C249.674 169.521 249.763 169.197 249.763 168.852V167.727C249.702 167.788 249.585 167.845 249.411 167.898C249.24 167.947 249.045 167.991 248.825 168.028C248.606 168.062 248.392 168.095 248.183 168.125C247.975 168.152 247.801 168.174 247.661 168.193C247.331 168.235 247.03 168.305 246.757 168.403C246.488 168.502 246.272 168.644 246.109 168.83C245.95 169.011 245.871 169.254 245.871 169.557C245.871 169.977 246.026 170.295 246.337 170.511C246.647 170.723 247.043 170.83 247.524 170.83ZM256.761 172.176C255.916 172.176 255.189 171.985 254.579 171.602C253.973 171.216 253.507 170.684 253.181 170.006C252.855 169.328 252.693 168.551 252.693 167.676C252.693 166.79 252.859 166.008 253.193 165.33C253.526 164.648 253.996 164.116 254.602 163.733C255.208 163.35 255.922 163.159 256.744 163.159C257.407 163.159 257.997 163.282 258.516 163.528C259.035 163.771 259.454 164.112 259.772 164.551C260.094 164.991 260.285 165.504 260.346 166.091H258.693C258.602 165.682 258.393 165.33 258.068 165.034C257.746 164.739 257.314 164.591 256.772 164.591C256.299 164.591 255.884 164.716 255.528 164.966C255.175 165.212 254.901 165.564 254.704 166.023C254.507 166.477 254.408 167.015 254.408 167.636C254.408 168.273 254.505 168.822 254.698 169.284C254.891 169.746 255.164 170.104 255.516 170.358C255.872 170.612 256.291 170.739 256.772 170.739C257.094 170.739 257.386 170.68 257.647 170.562C257.912 170.441 258.134 170.269 258.312 170.045C258.494 169.822 258.621 169.553 258.693 169.239H260.346C260.285 169.803 260.102 170.307 259.795 170.75C259.488 171.193 259.077 171.542 258.562 171.795C258.05 172.049 257.45 172.176 256.761 172.176ZM265.199 172.176C264.354 172.176 263.627 171.985 263.017 171.602C262.411 171.216 261.945 170.684 261.619 170.006C261.294 169.328 261.131 168.551 261.131 167.676C261.131 166.79 261.297 166.008 261.631 165.33C261.964 164.648 262.434 164.116 263.04 163.733C263.646 163.35 264.36 163.159 265.182 163.159C265.845 163.159 266.436 163.282 266.954 163.528C267.473 163.771 267.892 164.112 268.21 164.551C268.532 164.991 268.723 165.504 268.784 166.091H267.131C267.04 165.682 266.831 165.33 266.506 165.034C266.184 164.739 265.752 164.591 265.21 164.591C264.737 164.591 264.322 164.716 263.966 164.966C263.614 165.212 263.339 165.564 263.142 166.023C262.945 166.477 262.847 167.015 262.847 167.636C262.847 168.273 262.943 168.822 263.136 169.284C263.329 169.746 263.602 170.104 263.954 170.358C264.311 170.612 264.729 170.739 265.21 170.739C265.532 170.739 265.824 170.68 266.085 170.562C266.35 170.441 266.572 170.269 266.75 170.045C266.932 169.822 267.059 169.553 267.131 169.239H268.784C268.723 169.803 268.54 170.307 268.233 170.75C267.926 171.193 267.515 171.542 267 171.795C266.489 172.049 265.888 172.176 265.199 172.176ZM269.961 172V163.273H271.66V172H269.961ZM270.819 161.926C270.523 161.926 270.27 161.828 270.057 161.631C269.849 161.43 269.745 161.191 269.745 160.915C269.745 160.634 269.849 160.396 270.057 160.199C270.27 159.998 270.523 159.898 270.819 159.898C271.114 159.898 271.366 159.998 271.574 160.199C271.787 160.396 271.893 160.634 271.893 160.915C271.893 161.191 271.787 161.43 271.574 161.631C271.366 161.828 271.114 161.926 270.819 161.926ZM275.004 166.818V172H273.305V163.273H274.936V164.693H275.044C275.245 164.231 275.559 163.86 275.987 163.58C276.419 163.299 276.962 163.159 277.618 163.159C278.212 163.159 278.733 163.284 279.18 163.534C279.627 163.78 279.974 164.148 280.22 164.636C280.466 165.125 280.589 165.729 280.589 166.449V172H278.89V166.653C278.89 166.021 278.726 165.527 278.396 165.17C278.067 164.811 277.614 164.631 277.038 164.631C276.644 164.631 276.294 164.716 275.987 164.886C275.684 165.057 275.443 165.307 275.265 165.636C275.091 165.962 275.004 166.356 275.004 166.818ZM284.767 172.193C284.214 172.193 283.714 172.091 283.267 171.886C282.82 171.678 282.466 171.377 282.205 170.983C281.947 170.589 281.819 170.106 281.819 169.534C281.819 169.042 281.913 168.636 282.103 168.318C282.292 168 282.548 167.748 282.87 167.562C283.192 167.377 283.552 167.237 283.949 167.142C284.347 167.047 284.752 166.975 285.165 166.926C285.688 166.866 286.112 166.816 286.438 166.778C286.764 166.737 287 166.67 287.148 166.58C287.296 166.489 287.37 166.341 287.37 166.136V166.097C287.37 165.6 287.23 165.216 286.949 164.943C286.673 164.67 286.26 164.534 285.711 164.534C285.139 164.534 284.688 164.661 284.358 164.915C284.033 165.165 283.807 165.443 283.682 165.75L282.086 165.386C282.275 164.856 282.552 164.428 282.915 164.102C283.283 163.773 283.705 163.534 284.182 163.386C284.659 163.235 285.161 163.159 285.688 163.159C286.036 163.159 286.406 163.201 286.796 163.284C287.19 163.364 287.557 163.511 287.898 163.727C288.243 163.943 288.525 164.252 288.745 164.653C288.964 165.051 289.074 165.568 289.074 166.205V172H287.415V170.807H287.347C287.237 171.027 287.072 171.242 286.853 171.455C286.633 171.667 286.351 171.843 286.006 171.983C285.661 172.123 285.249 172.193 284.767 172.193ZM285.137 170.83C285.606 170.83 286.008 170.737 286.341 170.551C286.678 170.366 286.934 170.123 287.108 169.824C287.286 169.521 287.375 169.197 287.375 168.852V167.727C287.315 167.788 287.197 167.845 287.023 167.898C286.853 167.947 286.658 167.991 286.438 168.028C286.218 168.062 286.004 168.095 285.796 168.125C285.588 168.152 285.413 168.174 285.273 168.193C284.944 168.235 284.642 168.305 284.37 168.403C284.101 168.502 283.885 168.644 283.722 168.83C283.563 169.011 283.483 169.254 283.483 169.557C283.483 169.977 283.639 170.295 283.949 170.511C284.26 170.723 284.656 170.83 285.137 170.83ZM294.771 163.273V164.636H290.004V163.273H294.771ZM291.282 161.182H292.981V169.438C292.981 169.767 293.03 170.015 293.129 170.182C293.227 170.345 293.354 170.456 293.51 170.517C293.669 170.574 293.841 170.602 294.027 170.602C294.163 170.602 294.282 170.593 294.385 170.574C294.487 170.555 294.566 170.54 294.623 170.528L294.93 171.932C294.832 171.97 294.691 172.008 294.51 172.045C294.328 172.087 294.1 172.11 293.828 172.114C293.381 172.121 292.964 172.042 292.578 171.875C292.191 171.708 291.879 171.451 291.64 171.102C291.402 170.754 291.282 170.316 291.282 169.79V161.182ZM299.678 172.176C298.818 172.176 298.077 171.992 297.456 171.625C296.839 171.254 296.361 170.733 296.024 170.062C295.691 169.388 295.524 168.598 295.524 167.693C295.524 166.799 295.691 166.011 296.024 165.33C296.361 164.648 296.831 164.116 297.433 163.733C298.04 163.35 298.748 163.159 299.558 163.159C300.051 163.159 300.528 163.241 300.99 163.403C301.452 163.566 301.867 163.822 302.235 164.17C302.602 164.519 302.892 164.972 303.104 165.528C303.316 166.081 303.422 166.754 303.422 167.545V168.148H296.485V166.875H301.757C301.757 166.428 301.666 166.032 301.485 165.688C301.303 165.339 301.047 165.064 300.718 164.864C300.392 164.663 300.009 164.562 299.57 164.562C299.093 164.562 298.676 164.68 298.32 164.915C297.968 165.146 297.695 165.449 297.502 165.824C297.312 166.195 297.218 166.598 297.218 167.034V168.028C297.218 168.612 297.32 169.108 297.524 169.517C297.733 169.926 298.022 170.239 298.394 170.455C298.765 170.667 299.199 170.773 299.695 170.773C300.017 170.773 300.31 170.727 300.576 170.636C300.841 170.542 301.07 170.402 301.263 170.216C301.456 170.03 301.604 169.801 301.706 169.528L303.314 169.818C303.185 170.292 302.954 170.706 302.621 171.062C302.291 171.415 301.877 171.689 301.377 171.886C300.88 172.08 300.314 172.176 299.678 172.176ZM307.934 172.17C307.23 172.17 306.601 171.991 306.048 171.631C305.498 171.267 305.067 170.75 304.752 170.08C304.442 169.405 304.286 168.597 304.286 167.653C304.286 166.71 304.444 165.903 304.758 165.233C305.076 164.562 305.512 164.049 306.065 163.693C306.618 163.337 307.245 163.159 307.945 163.159C308.487 163.159 308.923 163.25 309.252 163.432C309.586 163.61 309.843 163.818 310.025 164.057C310.211 164.295 310.355 164.506 310.457 164.688H310.559V160.364H312.258V172H310.599V170.642H310.457C310.355 170.828 310.207 171.04 310.014 171.278C309.824 171.517 309.563 171.725 309.23 171.903C308.896 172.081 308.464 172.17 307.934 172.17ZM308.309 170.722C308.798 170.722 309.211 170.593 309.548 170.335C309.889 170.074 310.146 169.712 310.32 169.25C310.498 168.788 310.588 168.25 310.588 167.636C310.588 167.03 310.5 166.5 310.326 166.045C310.152 165.591 309.896 165.237 309.559 164.983C309.222 164.729 308.805 164.602 308.309 164.602C307.798 164.602 307.372 164.735 307.031 165C306.69 165.265 306.432 165.627 306.258 166.085C306.088 166.544 306.002 167.061 306.002 167.636C306.002 168.22 306.089 168.744 306.264 169.21C306.438 169.676 306.695 170.045 307.036 170.318C307.381 170.587 307.805 170.722 308.309 170.722Z" fill="#1D354F"/>
</g>
</g>
<defs>
<filter id="filter0_d_119_2307" x="-5" y="-24" width="490" height="348" filterUnits="userSpaceOnUse" color-interpolation-filters="sRGB">
<feFlood flood-opacity="0" result="BackgroundImageFix"/>
<feColorMatrix in="SourceAlpha" type="matrix" values="0 0 0 0 0 0 0 0 0 0 0 0 0 0 0 0 0 0 127 0" result="hardAlpha"/>
<feOffset dy="32"/>
<feGaussianBlur stdDeviation="40"/>
<feComposite in2="hardAlpha" operator="out"/>
<feColorMatrix type="matrix" values="0 0 0 0 0.521569 0 0 0 0 0.576471 0 0 0 0 0.639216 0 0 0 0.32 0"/>
<feBlend mode="normal" in2="BackgroundImageFix" result="effect1_dropShadow_119_2307"/>
<feBlend mode="normal" in="SourceGraphic" in2="effect1_dropShadow_119_2307" result="shape"/>
</filter>
<linearGradient id="paint0_linear_119_2307" x1="480" y1="-2.86102e-05" x2="2.86102e-05" y2="480" gradientUnits="userSpaceOnUse">
<stop stop-color="#D5E2FC"/>
<stop offset="1" stop-color="#ACC3F0"/>
</linearGradient>
<linearGradient id="paint1_linear_119_2307" x1="240.001" y1="193.714" x2="240.001" y2="286.286" gradientUnits="userSpaceOnUse">
<stop offset="0.633333" stop-color="#8593A3"/>
<stop offset="1" stop-color="#8593A3" stop-opacity="0"/>
</linearGradient>
<linearGradient id="paint2_linear_119_2307" x1="239.999" y1="147.429" x2="239.999" y2="332.571" gradientUnits="userSpaceOnUse">
<stop offset="0.633333" stop-color="#8593A3"/>
<stop offset="1" stop-color="#8593A3" stop-opacity="0"/>
</linearGradient>
<linearGradient id="paint3_linear_119_2307" x1="240" y1="101.143" x2="240" y2="378.857" gradientUnits="userSpaceOnUse">
<stop offset="0.633333" stop-color="#8593A3"/>
<stop offset="1" stop-color="#8593A3" stop-opacity="0"/>
</linearGradient>
<linearGradient id="paint4_linear_119_2307" x1="240" y1="54.8572" x2="240" y2="425.143" gradientUnits="userSpaceOnUse">
<stop offset="0.633333" stop-color="#8593A3"/>
<stop offset="1" stop-color="#8593A3" stop-opacity="0"/>
</linearGradient>
<linearGradient id="paint5_linear_119_2307" x1="240.001" y1="8.57141" x2="240.001" y2="471.429" gradientUnits="userSpaceOnUse">
<stop offset="0.633333" stop-color="#8593A3"/>
<stop offset="1" stop-color="#8593A3" stop-opacity="0"/>
</linearGradient>
<linearGradient id="paint6_linear_119_2307" x1="239.999" y1="-37.7142" x2="239.999" y2="517.714" gradientUnits="userSpaceOnUse">
<stop offset="0.633333" stop-color="#8593A3"/>
<stop offset="1" stop-color="#8593A3" stop-opacity="0"/>
</linearGradient>
<linearGradient id="paint7_linear_119_2307" x1="240" y1="-84" x2="240" y2="564" gradientUnits="userSpaceOnUse">
<stop offset="0.633333" stop-color="#8593A3"/>
<stop offset="1" stop-color="#8593A3" stop-opacity="0"/>
</linearGradient>
<clipPath id="clip0_119_2307">
<rect width="480" height="480" rx="24" fill="white"/>
</clipPath>
</defs>
</svg>
