<svg width="64" height="64" viewBox="0 0 64 64" fill="none" xmlns="http://www.w3.org/2000/svg">
<path d="M31.9993 48.6667C41.3327 48.6667 51.3327 44 51.3327 32C51.3327 20 41.3327 15.3334 31.9993 15.3334C22.666 15.3334 12.666 20 12.666 32C12.666 34.7462 13.1897 37.1083 14.1093 39.1182C14.6825 40.3712 15.004 41.7528 14.7501 43.107L14.0509 46.836C13.7053 48.6792 15.3201 50.2942 17.1634 49.9486L25.7164 48.3448C26.3887 48.2187 27.078 48.2296 27.7535 48.3368C29.1593 48.5598 30.5871 48.6667 31.9993 48.6667Z" stroke="#1D354F" stroke-width="4" stroke-linecap="round" stroke-linejoin="round"/>
<path d="M25.3327 32C25.3327 32.7362 24.7357 33.3333 23.9993 33.3333C23.263 33.3333 22.666 32.7362 22.666 32C22.666 31.2637 23.263 30.6666 23.9993 30.6666C24.7357 30.6666 25.3327 31.2637 25.3327 32Z" stroke="#1D354F" stroke-width="4" stroke-linecap="round" stroke-linejoin="round"/>
<path d="M33.3327 32C33.3327 32.7362 32.7356 33.3333 31.9993 33.3333C31.2631 33.3333 30.666 32.7362 30.666 32C30.666 31.2637 31.2631 30.6666 31.9993 30.6666C32.7356 30.6666 33.3327 31.2637 33.3327 32Z" stroke="#1D354F" stroke-width="4" stroke-linecap="round" stroke-linejoin="round"/>
<path d="M41.3327 32C41.3327 32.7362 40.7356 33.3333 39.9993 33.3333C39.2631 33.3333 38.666 32.7362 38.666 32C38.666 31.2637 39.2631 30.6666 39.9993 30.6666C40.7356 30.6666 41.3327 31.2637 41.3327 32Z" stroke="#1D354F" stroke-width="4" stroke-linecap="round" stroke-linejoin="round"/>
</svg>
