<svg width="330" height="416" viewBox="0 0 330 416" fill="none" xmlns="http://www.w3.org/2000/svg">
<rect width="329.997" height="416" rx="24" fill="url(#paint0_linear_534_1992)"/>
<path fill-rule="evenodd" clip-rule="evenodd" d="M173.927 40H156.069V119.066L126.451 45.7573L109.894 52.4467L140.28 127.655L82.9232 70.2981L70.2963 82.9251L125.27 137.899L54.0282 106.773L46.8788 123.136L122.261 156.071H39.998V173.929H122.261L46.8788 206.864L54.0282 223.228L125.27 192.101L70.2963 247.075L82.9232 259.701L140.28 202.345L109.894 277.554L126.451 284.242L156.069 210.934V290H173.927V210.934L203.546 284.242L220.102 277.554L189.717 202.345L247.073 259.701L259.699 247.075L204.726 192.101L275.968 223.228L283.117 206.864L207.736 173.929H289.998V156.071H207.734L283.117 123.136L275.968 106.773L204.726 137.899L259.699 82.925L247.073 70.2981L189.717 127.655L220.102 52.4467L203.546 45.7573L173.927 119.066V40Z" fill="white"/>
<path d="M100.626 347.288C99.346 347.288 98.162 347.056 97.074 346.592C96.002 346.128 95.058 345.48 94.242 344.648C93.442 343.816 92.818 342.84 92.37 341.72C91.922 340.6 91.698 339.376 91.698 338.048C91.698 336.72 91.914 335.496 92.346 334.376C92.794 333.24 93.418 332.264 94.218 331.448C95.034 330.616 95.986 329.976 97.074 329.528C98.162 329.064 99.346 328.832 100.626 328.832C101.906 328.832 103.05 329.048 104.058 329.48C105.082 329.912 105.946 330.488 106.65 331.208C107.354 331.912 107.858 332.688 108.162 333.536L105.234 334.904C104.898 334.008 104.33 333.272 103.53 332.696C102.73 332.104 101.762 331.808 100.626 331.808C99.506 331.808 98.514 332.072 97.65 332.6C96.802 333.128 96.138 333.856 95.658 334.784C95.194 335.712 94.962 336.8 94.962 338.048C94.962 339.296 95.194 340.392 95.658 341.336C96.138 342.264 96.802 342.992 97.65 343.52C98.514 344.048 99.506 344.312 100.626 344.312C101.762 344.312 102.73 344.024 103.53 343.448C104.33 342.856 104.898 342.112 105.234 341.216L108.162 342.584C107.858 343.432 107.354 344.216 106.65 344.936C105.946 345.64 105.082 346.208 104.058 346.64C103.05 347.072 101.906 347.288 100.626 347.288ZM116.218 347.288C114.938 347.288 113.77 346.992 112.714 346.4C111.674 345.808 110.842 345 110.218 343.976C109.61 342.952 109.306 341.784 109.306 340.472C109.306 339.16 109.61 337.992 110.218 336.968C110.842 335.944 111.674 335.136 112.714 334.544C113.754 333.952 114.922 333.656 116.218 333.656C117.498 333.656 118.658 333.952 119.698 334.544C120.738 335.136 121.562 335.944 122.17 336.968C122.794 337.976 123.106 339.144 123.106 340.472C123.106 341.784 122.794 342.952 122.17 343.976C121.546 345 120.714 345.808 119.674 346.4C118.634 346.992 117.482 347.288 116.218 347.288ZM116.218 344.408C116.922 344.408 117.538 344.24 118.066 343.904C118.61 343.568 119.034 343.104 119.338 342.512C119.658 341.904 119.818 341.224 119.818 340.472C119.818 339.704 119.658 339.032 119.338 338.456C119.034 337.864 118.61 337.4 118.066 337.064C117.538 336.712 116.922 336.536 116.218 336.536C115.498 336.536 114.866 336.712 114.322 337.064C113.778 337.4 113.346 337.864 113.026 338.456C112.722 339.032 112.57 339.704 112.57 340.472C112.57 341.224 112.722 341.904 113.026 342.512C113.346 343.104 113.778 343.568 114.322 343.904C114.866 344.24 115.498 344.408 116.218 344.408ZM129.666 347.288C128.658 347.288 127.778 347.064 127.026 346.616C126.29 346.168 125.722 345.544 125.322 344.744C124.938 343.944 124.746 343.008 124.746 341.936V333.944H127.89V341.672C127.89 342.216 127.994 342.696 128.202 343.112C128.426 343.512 128.738 343.832 129.138 344.072C129.554 344.296 130.018 344.408 130.53 344.408C131.042 344.408 131.498 344.296 131.898 344.072C132.298 343.832 132.61 343.504 132.834 343.088C133.058 342.672 133.17 342.176 133.17 341.6V333.944H136.314V347H133.338V344.432L133.602 344.888C133.298 345.688 132.794 346.288 132.09 346.688C131.402 347.088 130.594 347.288 129.666 347.288ZM138.756 347V328.832H141.9V347H138.756ZM150.395 347.288C149.131 347.288 148.003 346.992 147.011 346.4C146.019 345.792 145.235 344.968 144.659 343.928C144.083 342.888 143.795 341.736 143.795 340.472C143.795 339.192 144.083 338.04 144.659 337.016C145.235 335.992 146.019 335.176 147.011 334.568C148.019 333.96 149.139 333.656 150.371 333.656C151.363 333.656 152.243 333.856 153.011 334.256C153.795 334.64 154.411 335.184 154.859 335.888L154.379 336.536V328.832H157.523V347H154.547V344.48L154.883 345.104C154.435 345.808 153.811 346.352 153.011 346.736C152.211 347.104 151.339 347.288 150.395 347.288ZM150.731 344.408C151.451 344.408 152.083 344.24 152.627 343.904C153.171 343.568 153.595 343.104 153.899 342.512C154.219 341.92 154.379 341.24 154.379 340.472C154.379 339.72 154.219 339.048 153.899 338.456C153.595 337.848 153.171 337.376 152.627 337.04C152.083 336.704 151.451 336.536 150.731 336.536C150.027 336.536 149.395 336.712 148.835 337.064C148.275 337.4 147.835 337.864 147.515 338.456C147.211 339.032 147.059 339.704 147.059 340.472C147.059 341.24 147.211 341.92 147.515 342.512C147.835 343.104 148.275 343.568 148.835 343.904C149.395 344.24 150.027 344.408 150.731 344.408ZM164.018 347V329.12H171.554C172.738 329.12 173.746 329.328 174.578 329.744C175.426 330.144 176.074 330.72 176.522 331.472C176.986 332.208 177.218 333.104 177.218 334.16C177.218 334.976 176.994 335.744 176.546 336.464C176.114 337.168 175.418 337.752 174.458 338.216V336.704C175.338 337.04 176.034 337.456 176.546 337.952C177.058 338.448 177.418 339 177.626 339.608C177.834 340.216 177.938 340.856 177.938 341.528C177.938 343.24 177.37 344.584 176.234 345.56C175.114 346.52 173.554 347 171.554 347H164.018ZM167.282 344.12H171.89C172.738 344.12 173.41 343.888 173.906 343.424C174.418 342.944 174.674 342.312 174.674 341.528C174.674 340.744 174.418 340.112 173.906 339.632C173.41 339.152 172.738 338.912 171.89 338.912H167.282V344.12ZM167.282 336.056H171.722C172.394 336.056 172.93 335.864 173.33 335.48C173.73 335.08 173.93 334.568 173.93 333.944C173.93 333.32 173.73 332.824 173.33 332.456C172.93 332.088 172.394 331.904 171.722 331.904H167.282V336.056ZM186.06 347.288C184.716 347.288 183.54 346.984 182.532 346.376C181.524 345.768 180.74 344.944 180.18 343.904C179.62 342.864 179.34 341.712 179.34 340.448C179.34 339.136 179.62 337.976 180.18 336.968C180.756 335.944 181.532 335.136 182.508 334.544C183.5 333.952 184.604 333.656 185.82 333.656C186.844 333.656 187.74 333.824 188.508 334.16C189.292 334.496 189.956 334.96 190.5 335.552C191.044 336.144 191.46 336.824 191.748 337.592C192.036 338.344 192.18 339.16 192.18 340.04C192.18 340.264 192.164 340.496 192.132 340.736C192.116 340.976 192.076 341.184 192.012 341.36H181.932V338.96H190.236L188.748 340.088C188.892 339.352 188.852 338.696 188.628 338.12C188.42 337.544 188.068 337.088 187.572 336.752C187.092 336.416 186.508 336.248 185.82 336.248C185.164 336.248 184.58 336.416 184.068 336.752C183.556 337.072 183.164 337.552 182.892 338.192C182.636 338.816 182.54 339.576 182.604 340.472C182.54 341.272 182.644 341.984 182.916 342.608C183.204 343.216 183.62 343.688 184.164 344.024C184.724 344.36 185.364 344.528 186.084 344.528C186.804 344.528 187.412 344.376 187.908 344.072C188.42 343.768 188.82 343.36 189.108 342.848L191.652 344.096C191.396 344.72 190.996 345.272 190.452 345.752C189.908 346.232 189.26 346.608 188.508 346.88C187.772 347.152 186.956 347.288 186.06 347.288ZM202.693 347V339.08L196.669 329.12H200.389L204.997 336.896H203.677L208.261 329.12H211.981L205.981 339.056V347H202.693ZM217.413 347.288C216.133 347.288 214.965 346.992 213.909 346.4C212.869 345.808 212.037 345 211.413 343.976C210.805 342.952 210.501 341.784 210.501 340.472C210.501 339.16 210.805 337.992 211.413 336.968C212.037 335.944 212.869 335.136 213.909 334.544C214.949 333.952 216.117 333.656 217.413 333.656C218.693 333.656 219.853 333.952 220.893 334.544C221.933 335.136 222.757 335.944 223.365 336.968C223.989 337.976 224.301 339.144 224.301 340.472C224.301 341.784 223.989 342.952 223.365 343.976C222.741 345 221.909 345.808 220.869 346.4C219.829 346.992 218.677 347.288 217.413 347.288ZM217.413 344.408C218.117 344.408 218.733 344.24 219.261 343.904C219.805 343.568 220.229 343.104 220.533 342.512C220.853 341.904 221.013 341.224 221.013 340.472C221.013 339.704 220.853 339.032 220.533 338.456C220.229 337.864 219.805 337.4 219.261 337.064C218.733 336.712 218.117 336.536 217.413 336.536C216.693 336.536 216.061 336.712 215.517 337.064C214.973 337.4 214.541 337.864 214.221 338.456C213.917 339.032 213.765 339.704 213.765 340.472C213.765 341.224 213.917 341.904 214.221 342.512C214.541 343.104 214.973 343.568 215.517 343.904C216.061 344.24 216.693 344.408 217.413 344.408ZM230.861 347.288C229.853 347.288 228.973 347.064 228.221 346.616C227.485 346.168 226.917 345.544 226.517 344.744C226.133 343.944 225.941 343.008 225.941 341.936V333.944H229.085V341.672C229.085 342.216 229.189 342.696 229.397 343.112C229.621 343.512 229.933 343.832 230.333 344.072C230.749 344.296 231.213 344.408 231.725 344.408C232.237 344.408 232.693 344.296 233.093 344.072C233.493 343.832 233.805 343.504 234.029 343.088C234.253 342.672 234.365 342.176 234.365 341.6V333.944H237.509V347H234.533V344.432L234.797 344.888C234.493 345.688 233.989 346.288 233.285 346.688C232.597 347.088 231.789 347.288 230.861 347.288Z" fill="#1D354F"/>
<path d="M162.525 370.049V368.944H167.4V370.049H162.525Z" fill="#1D354F"/>
<defs>
<linearGradient id="paint0_linear_534_1992" x1="292.047" y1="-2.08577e-05" x2="6.85438" y2="250.912" gradientUnits="userSpaceOnUse">
<stop stop-color="#B0B9FF"/>
<stop offset="1" stop-color="#E7E9FF"/>
</linearGradient>
</defs>
</svg>
