<svg width="100" height="30" viewBox="0 0 100 30" fill="none" xmlns="http://www.w3.org/2000/svg">
<rect width="30" height="30" rx="8" fill="#6A55EA"/>
<rect x="2.14062" y="2.14282" width="25.7143" height="25.7143" rx="6" fill="#7661F4"/>
<path d="M11.25 9L13.9393 11.6893L11.6893 13.9393L9 11.25V9H11.25Z" fill="white"/>
<path d="M14.0303 18.2197L15.1553 19.3447L14.0947 20.4053L12.375 18.6857L11.2483 19.8124C11.2494 19.8331 11.25 19.854 11.25 19.875C11.25 20.4963 10.7463 21 10.125 21C9.50368 21 9 20.4963 9 19.875C9 19.2537 9.50368 18.75 10.125 18.75C10.146 18.75 10.1669 18.7506 10.1876 18.7517L11.3143 17.625L9.59467 15.9053L10.6553 14.8447L11.7803 15.9697L18.75 9H21V11.25L14.0303 18.2197Z" fill="white"/>
<path d="M19.875 21C19.2537 21 18.75 20.4963 18.75 19.875C18.75 19.854 18.7506 19.8331 18.7517 19.8124L16.5643 17.625L19.3447 14.8447L20.4053 15.9053L18.6857 17.625L19.8124 18.7517C19.8331 18.7506 19.854 18.75 19.875 18.75C20.4963 18.75 21 19.2537 21 19.875C21 20.4963 20.4963 21 19.875 21Z" fill="white"/>
<path d="M37.2521 22V9.4H39.6461V19.93H45.5321V22H37.2521ZM46.2893 9.04H48.6653V11.506H46.2893V9.04ZM46.3793 22V12.928H48.5933V22H46.3793ZM51.3364 22V14.782H49.5544V12.928H51.3364V12.082C51.3364 10.246 52.6144 9.04 54.5764 9.04H56.1964V10.912H54.8284C54.0544 10.912 53.5504 11.398 53.5504 12.19V12.928H56.1964V14.782H53.5504V22H51.3364ZM62.9619 18.976H65.1219C64.7799 20.902 63.0879 22.144 60.8559 22.144C57.8859 22.144 56.2299 19.804 56.2299 17.428C56.2299 15.034 57.7059 12.784 60.6759 12.784C63.7179 12.784 65.0859 14.998 65.0859 17.158C65.0859 17.464 65.0679 17.734 65.0499 17.914H58.3539C58.5159 19.372 59.4519 20.308 60.8559 20.308C61.9899 20.308 62.7279 19.84 62.9619 18.976ZM60.6759 14.44C59.4339 14.44 58.6419 15.088 58.4079 16.456H62.8719C62.7819 15.304 61.9899 14.44 60.6759 14.44ZM70.3744 22.144C67.5484 22.144 65.7664 20.056 65.7664 17.464C65.7664 14.872 67.5484 12.784 70.3744 12.784C72.6604 12.784 74.5144 14.152 74.7124 16.24H72.5164C72.3544 15.34 71.4724 14.692 70.4284 14.692C68.8984 14.692 68.0704 15.88 68.0704 17.464C68.0704 19.048 68.9164 20.236 70.4644 20.236C71.5084 20.236 72.3184 19.642 72.5344 18.742H74.7664C74.4784 20.722 72.7144 22.144 70.3744 22.144ZM79.4613 12.784C81.7653 12.784 83.3853 14.116 83.3853 16.168V22H81.2073V20.65C80.8293 21.55 79.7853 22.144 78.4893 22.144C76.6893 22.144 75.4653 20.992 75.4653 19.426C75.4653 17.662 76.8333 16.564 78.8673 16.564H80.5413C80.9913 16.564 81.2073 16.312 81.2073 15.952C81.2073 15.07 80.5233 14.44 79.3533 14.44C78.1833 14.44 77.4813 15.178 77.4453 15.988H75.4653C75.5733 14.188 77.1033 12.784 79.4613 12.784ZM79.0113 20.506C80.3973 20.506 81.2073 19.534 81.2073 18.166V18.022H79.1733C78.2373 18.022 77.6073 18.544 77.6073 19.336C77.6073 20.038 78.1833 20.506 79.0113 20.506ZM90.4663 14.782H89.0443C87.6403 14.782 87.0823 15.988 87.0823 17.716V22H84.8683V12.928H87.0823V14.53C87.5323 13.378 88.2343 12.928 89.4043 12.928H90.4663V14.782ZM97.2934 18.976H99.4534C99.1114 20.902 97.4194 22.144 95.1874 22.144C92.2174 22.144 90.5614 19.804 90.5614 17.428C90.5614 15.034 92.0374 12.784 95.0074 12.784C98.0494 12.784 99.4174 14.998 99.4174 17.158C99.4174 17.464 99.3994 17.734 99.3814 17.914H92.6854C92.8474 19.372 93.7834 20.308 95.1874 20.308C96.3214 20.308 97.0594 19.84 97.2934 18.976ZM95.0074 14.44C93.7654 14.44 92.9734 15.088 92.7394 16.456H97.2034C97.1134 15.304 96.3214 14.44 95.0074 14.44Z" fill="#1D354F"/>
</svg>
