<svg width="142" height="42" viewBox="0 0 142 42" fill="none" xmlns="http://www.w3.org/2000/svg">
<rect x="0.800781" width="42" height="42" rx="11.2" fill="#6A55EA"/>
<rect x="3.79688" y="2.99994" width="36" height="36" rx="8.4" fill="#7661F4"/>
<path d="M16.5504 12.6L20.3155 16.3651L17.1655 19.5151L13.4004 15.75V12.6H16.5504Z" fill="white"/>
<path d="M20.4429 25.5075L22.0179 27.0825L20.5329 28.5674L18.1254 26.1599L16.548 27.7373C16.5496 27.7663 16.5504 27.7956 16.5504 27.825C16.5504 28.6948 15.8452 29.4 14.9754 29.4C14.1055 29.4 13.4004 28.6948 13.4004 27.825C13.4004 26.9551 14.1055 26.25 14.9754 26.25C15.0048 26.25 15.034 26.2508 15.0631 26.2524L16.6405 24.675L14.2329 22.2674L15.7179 20.7825L17.2929 22.3575L27.0504 12.6H30.2004V15.75L20.4429 25.5075Z" fill="white"/>
<path d="M28.6254 29.4C27.7555 29.4 27.0504 28.6948 27.0504 27.825C27.0504 27.7956 27.0512 27.7663 27.0528 27.7373L23.9905 24.675L27.8829 20.7825L29.3679 22.2674L26.9603 24.675L28.5377 26.2524C28.5667 26.2508 28.596 26.25 28.6254 26.25C29.4952 26.25 30.2004 26.9551 30.2004 27.825C30.2004 28.6948 29.4952 29.4 28.6254 29.4Z" fill="white"/>
<path d="M53.1542 31V13.36H56.5058V28.102H64.7462V31H53.1542ZM65.8061 12.856H69.1325V16.3084H65.8061V12.856ZM65.9321 31V18.2992H69.0317V31H65.9321ZM72.8722 31V20.8948H70.3774V18.2992H72.8722V17.1148C72.8722 14.5444 74.6614 12.856 77.4082 12.856H79.6762V15.4768H77.761C76.6774 15.4768 75.9718 16.1572 75.9718 17.266V18.2992H79.6762V20.8948H75.9718V31H72.8722ZM89.1478 26.7664H92.1718C91.693 29.4628 89.3242 31.2016 86.1994 31.2016C82.0414 31.2016 79.723 27.9256 79.723 24.5992C79.723 21.2476 81.7894 18.0976 85.9474 18.0976C90.2062 18.0976 92.1214 21.1972 92.1214 24.2212C92.1214 24.6496 92.0962 25.0276 92.071 25.2796H82.6966C82.9234 27.3208 84.2338 28.6312 86.1994 28.6312C87.787 28.6312 88.8202 27.976 89.1478 26.7664ZM85.9474 20.416C84.2086 20.416 83.0998 21.3232 82.7722 23.2384H89.0218C88.8958 21.6256 87.787 20.416 85.9474 20.416ZM99.5253 31.2016C95.5689 31.2016 93.0741 28.2784 93.0741 24.6496C93.0741 21.0208 95.5689 18.0976 99.5253 18.0976C102.726 18.0976 105.321 20.0128 105.599 22.936H102.524C102.297 21.676 101.063 20.7688 99.6009 20.7688C97.4589 20.7688 96.2997 22.432 96.2997 24.6496C96.2997 26.8672 97.4841 28.5304 99.6513 28.5304C101.113 28.5304 102.247 27.6988 102.549 26.4388H105.674C105.271 29.2108 102.801 31.2016 99.5253 31.2016ZM112.247 18.0976C115.473 18.0976 117.741 19.9624 117.741 22.8352V31H114.691V29.11C114.162 30.37 112.701 31.2016 110.886 31.2016C108.366 31.2016 106.653 29.5888 106.653 27.3964C106.653 24.9268 108.568 23.3896 111.415 23.3896H113.759C114.389 23.3896 114.691 23.0368 114.691 22.5328C114.691 21.298 113.734 20.416 112.096 20.416C110.458 20.416 109.475 21.4492 109.425 22.5832H106.653C106.804 20.0632 108.946 18.0976 112.247 18.0976ZM111.617 28.9084C113.557 28.9084 114.691 27.5476 114.691 25.6324V25.4308H111.844C110.533 25.4308 109.651 26.1616 109.651 27.2704C109.651 28.2532 110.458 28.9084 111.617 28.9084ZM127.654 20.8948H125.663C123.698 20.8948 122.916 22.5832 122.916 25.0024V31H119.817V18.2992H122.916V20.542C123.546 18.9292 124.529 18.2992 126.167 18.2992H127.654V20.8948ZM137.212 26.7664H140.236C139.757 29.4628 137.388 31.2016 134.264 31.2016C130.106 31.2016 127.787 27.9256 127.787 24.5992C127.787 21.2476 129.854 18.0976 134.012 18.0976C138.27 18.0976 140.186 21.1972 140.186 24.2212C140.186 24.6496 140.16 25.0276 140.135 25.2796H130.761C130.988 27.3208 132.298 28.6312 134.264 28.6312C135.851 28.6312 136.884 27.976 137.212 26.7664ZM134.012 20.416C132.273 20.416 131.164 21.3232 130.836 23.2384H137.086C136.96 21.6256 135.851 20.416 134.012 20.416Z" fill="#1D354F"/>
</svg>
