<svg width="200" height="60" viewBox="0 0 200 60" fill="none" xmlns="http://www.w3.org/2000/svg">
<rect width="60" height="60" rx="16" fill="#6A55EA"/>
<rect x="4.2832" y="4.28568" width="51.4286" height="51.4286" rx="12" fill="#7661F4"/>
<path d="M22.5 18L27.8787 23.3787L23.3787 27.8787L18 22.5V18H22.5Z" fill="white"/>
<path d="M28.0607 36.4393L30.3107 38.6893L28.1893 40.8107L24.75 37.3713L22.4966 39.6247C22.4988 39.6662 22.5 39.708 22.5 39.75C22.5 40.9926 21.4926 42 20.25 42C19.0074 42 18 40.9926 18 39.75C18 38.5074 19.0074 37.5 20.25 37.5C20.292 37.5 20.3338 37.5012 20.3753 37.5034L22.6287 35.25L19.1893 31.8107L21.3107 29.6893L23.5607 31.9393L37.5 18H42V22.5L28.0607 36.4393Z" fill="white"/>
<path d="M39.75 42C38.5074 42 37.5 40.9926 37.5 39.75C37.5 39.708 37.5012 39.6662 37.5034 39.6247L33.1287 35.25L38.6893 29.6893L40.8107 31.8107L37.3713 35.25L39.6247 37.5034C39.6662 37.5012 39.708 37.5 39.75 37.5C40.9926 37.5 42 38.5074 42 39.75C42 40.9926 40.9926 42 39.75 42Z" fill="white"/>
<path d="M74.5043 44V18.8H79.2923V39.86H91.0643V44H74.5043ZM92.5785 18.08H97.3305V23.012H92.5785V18.08ZM92.7585 44V25.856H97.1865V44H92.7585ZM102.673 44V29.564H99.1089V25.856H102.673V24.164C102.673 20.492 105.229 18.08 109.153 18.08H112.393V21.824H109.657C108.109 21.824 107.101 22.796 107.101 24.38V25.856H112.393V29.564H107.101V44H102.673ZM125.924 37.952H130.244C129.56 41.804 126.176 44.288 121.712 44.288C115.772 44.288 112.46 39.608 112.46 34.856C112.46 30.068 115.412 25.568 121.352 25.568C127.436 25.568 130.172 29.996 130.172 34.316C130.172 34.928 130.136 35.468 130.1 35.828H116.708C117.032 38.744 118.904 40.616 121.712 40.616C123.98 40.616 125.456 39.68 125.924 37.952ZM121.352 28.88C118.868 28.88 117.284 30.176 116.816 32.912H125.744C125.564 30.608 123.98 28.88 121.352 28.88ZM140.749 44.288C135.097 44.288 131.533 40.112 131.533 34.928C131.533 29.744 135.097 25.568 140.749 25.568C145.321 25.568 149.029 28.304 149.425 32.48H145.033C144.709 30.68 142.945 29.384 140.857 29.384C137.797 29.384 136.141 31.76 136.141 34.928C136.141 38.096 137.833 40.472 140.929 40.472C143.017 40.472 144.637 39.284 145.069 37.484H149.533C148.957 41.444 145.429 44.288 140.749 44.288ZM158.923 25.568C163.531 25.568 166.771 28.232 166.771 32.336V44H162.415V41.3C161.659 43.1 159.571 44.288 156.979 44.288C153.379 44.288 150.931 41.984 150.931 38.852C150.931 35.324 153.667 33.128 157.735 33.128H161.083C161.983 33.128 162.415 32.624 162.415 31.904C162.415 30.14 161.047 28.88 158.707 28.88C156.367 28.88 154.963 30.356 154.891 31.976H150.931C151.147 28.376 154.207 25.568 158.923 25.568ZM158.023 41.012C160.795 41.012 162.415 39.068 162.415 36.332V36.044H158.347C156.475 36.044 155.215 37.088 155.215 38.672C155.215 40.076 156.367 41.012 158.023 41.012ZM180.933 29.564H178.089C175.281 29.564 174.165 31.976 174.165 35.432V44H169.737V25.856H174.165V29.06C175.065 26.756 176.469 25.856 178.809 25.856H180.933V29.564ZM194.587 37.952H198.907C198.223 41.804 194.839 44.288 190.375 44.288C184.435 44.288 181.123 39.608 181.123 34.856C181.123 30.068 184.075 25.568 190.015 25.568C196.099 25.568 198.835 29.996 198.835 34.316C198.835 34.928 198.799 35.468 198.763 35.828H185.371C185.695 38.744 187.567 40.616 190.375 40.616C192.643 40.616 194.119 39.68 194.587 37.952ZM190.015 28.88C187.531 28.88 185.947 30.176 185.479 32.912H194.407C194.227 30.608 192.643 28.88 190.015 28.88Z" fill="#1D354F"/>
</svg>
