<svg width="48" height="48" viewBox="0 0 48 48" fill="none" xmlns="http://www.w3.org/2000/svg">
<rect width="48" height="48" rx="24" fill="#FDB86B"/>
<path fill-rule="evenodd" clip-rule="evenodd" d="M26.7071 17.2929L28 16L32 20L30.7071 21.2929L31.9571 22.5429L30.5429 23.9571L29.5429 22.9571L27.848 24.652C27.9474 25.0853 28 25.5365 28 26C28 29.3137 25.3137 32 22 32C18.6863 32 16 29.3137 16 26C16 22.6863 18.6863 20 22 20C22.4635 20 22.9147 20.0526 23.348 20.152L25.0429 18.4571L24.0429 17.4571L25.4571 16.0429L26.7071 17.2929ZM26.4571 19.8713L28.1287 21.5429L25.651 24.0206L25.8987 25.0995C25.9647 25.3871 26 25.6882 26 26H18C18 23.7909 19.7909 22 22 22C22.3118 22 22.613 22.0353 22.9005 22.1013L23.9794 22.349L26.4571 19.8713Z" fill="#1D354F"/>
</svg>
