<svg width="1000" height="500" viewBox="0 0 1000 500" fill="none" xmlns="http://www.w3.org/2000/svg">
<g clip-path="url(#clip0_122_1843)">
<path d="M492.592 252.75C484.262 252.75 477.488 245.972 477.488 237.645C477.488 229.315 484.265 222.541 492.592 222.541C500.923 222.541 507.699 229.319 507.699 237.645C507.699 245.976 500.923 252.75 492.592 252.75ZM492.592 225.762C486.038 225.762 480.708 231.092 480.708 237.645C480.708 244.199 486.038 249.53 492.592 249.53C499.145 249.53 504.479 244.199 504.479 237.645C504.479 231.092 499.145 225.762 492.592 225.762Z" fill="#F1EFFB"/>
<path d="M492.592 264.927C477.548 264.927 465.311 252.686 465.311 237.646C465.311 222.602 477.551 210.364 492.592 210.364C507.636 210.364 519.873 222.605 519.873 237.646C519.873 252.69 507.636 264.927 492.592 264.927ZM492.592 213.585C479.324 213.585 468.531 224.378 468.531 237.646C468.531 250.913 479.324 261.707 492.592 261.707C505.859 261.707 516.654 250.913 516.654 237.646C516.654 224.378 505.859 213.585 492.592 213.585Z" fill="#F1EFFB"/>
<path d="M492.591 277.104C470.833 277.104 453.133 259.404 453.133 237.645C453.133 215.888 470.833 198.186 492.591 198.186C514.349 198.186 532.05 215.888 532.05 237.645C532.05 259.404 514.349 277.104 492.591 277.104ZM492.591 201.407C472.611 201.407 456.353 217.664 456.353 237.645C456.353 257.626 472.611 273.885 492.591 273.885C512.572 273.885 528.83 257.626 528.83 237.645C528.83 217.664 512.576 201.407 492.591 201.407Z" fill="#F1EFFB"/>
<path d="M500.313 288.692C499.533 288.692 498.846 288.125 498.723 287.328C498.587 286.448 499.189 285.628 500.066 285.492C523.788 281.815 541.005 261.694 541.005 237.649C541.005 210.951 519.287 189.233 492.59 189.233C465.892 189.233 444.173 210.954 444.173 237.649C444.173 259.287 458.711 278.464 479.525 284.282C480.382 284.521 480.882 285.408 480.642 286.265C480.402 287.122 479.511 287.622 478.659 287.381C456.457 281.175 440.953 260.724 440.953 237.646C440.953 209.175 464.117 186.01 492.59 186.01C521.061 186.01 544.225 209.175 544.225 237.646C544.225 263.29 525.861 284.751 500.56 288.672C500.48 288.685 500.396 288.692 500.313 288.692Z" fill="#F1EFFB"/>
<path d="M461.713 185.246C461.156 185.246 460.613 184.957 460.313 184.436C459.87 183.666 460.14 182.679 460.909 182.239C470.51 176.739 481.464 173.833 492.588 173.833C501.768 173.833 510.633 175.743 518.929 179.506C519.74 179.873 520.096 180.829 519.729 181.636C519.363 182.446 518.406 182.803 517.596 182.436C509.718 178.862 501.305 177.049 492.585 177.049C482.02 177.049 471.62 179.809 462.507 185.03C462.26 185.176 461.987 185.246 461.713 185.246Z" fill="#F1EFFB"/>
<path d="M441.593 274.877C441.085 274.877 440.585 274.638 440.273 274.191C434.826 266.411 431.141 257.354 429.615 248.003C429.472 247.126 430.068 246.3 430.945 246.156C431.826 246.01 432.649 246.609 432.795 247.486C434.265 256.486 437.669 264.851 442.913 272.344C443.422 273.074 443.246 274.077 442.515 274.588C442.233 274.784 441.913 274.877 441.593 274.877Z" fill="#F1EFFB"/>
<path d="M513.847 297.735C513.19 297.735 512.57 297.328 512.333 296.675C512.03 295.838 512.46 294.915 513.297 294.611C537.158 285.938 553.189 263.047 553.189 237.645C553.189 226.108 549.935 214.888 543.778 205.197C543.302 204.447 543.525 203.45 544.275 202.974C545.025 202.497 546.022 202.717 546.499 203.47C552.982 213.678 556.409 225.495 556.409 237.645C556.409 264.393 539.525 288.504 514.397 297.639C514.214 297.706 514.027 297.735 513.847 297.735Z" fill="#F1EFFB"/>
<path d="M509.329 311.746C508.596 311.746 507.933 311.243 507.762 310.496C507.562 309.629 508.105 308.766 508.972 308.566C542.177 300.932 565.368 271.767 565.368 237.645C565.368 197.52 532.724 164.875 492.598 164.875C478.914 164.875 465.583 168.692 454.043 175.915C453.29 176.389 452.296 176.159 451.823 175.406C451.349 174.653 451.579 173.659 452.333 173.185C464.387 165.642 478.311 161.651 492.598 161.651C534.501 161.651 568.588 195.74 568.588 237.642C568.588 254.936 562.621 271.86 551.791 285.298C541.12 298.538 526.17 307.915 509.695 311.702C509.569 311.733 509.449 311.746 509.329 311.746Z" fill="#F1EFFB"/>
<path d="M518.334 321.923C517.648 321.923 517.01 321.48 516.797 320.789C516.533 319.94 517.007 319.039 517.857 318.772C553.559 307.668 577.544 275.067 577.544 237.645C577.544 190.803 539.435 152.697 492.596 152.697C480.576 152.697 468.958 155.158 458.067 160.007C457.254 160.371 456.305 160.004 455.941 159.192C455.578 158.378 455.944 157.428 456.758 157.065C468.061 152.028 480.122 149.475 492.596 149.475C541.211 149.475 580.764 189.026 580.764 237.642C580.764 256.829 574.707 275.07 563.246 290.394C552.166 305.209 536.385 316.379 518.811 321.846C518.651 321.899 518.491 321.923 518.334 321.923Z" fill="#F1EFFB"/>
<path d="M520.721 333.927C520.027 333.927 519.384 333.473 519.177 332.773C518.924 331.921 519.41 331.023 520.264 330.77C561.159 318.64 589.721 280.344 589.721 237.642C589.721 184.086 546.152 140.517 492.596 140.517C485.072 140.517 477.579 141.38 470.321 143.084C469.461 143.284 468.591 142.751 468.385 141.883C468.181 141.017 468.718 140.15 469.585 139.947C477.082 138.188 484.826 137.297 492.596 137.297C547.925 137.297 592.941 182.312 592.941 237.642C592.941 259.71 585.913 280.651 572.62 298.192C559.756 315.166 541.489 327.83 521.18 333.857C521.024 333.907 520.871 333.927 520.721 333.927Z" fill="#F1EFFB"/>
<path d="M520.32 346.675C519.604 346.675 518.95 346.191 518.76 345.464C518.54 344.604 519.057 343.725 519.916 343.504C568.182 331.081 601.891 287.552 601.891 237.645C601.891 177.376 552.858 128.343 492.589 128.343C479.771 128.343 467.225 130.54 455.287 134.874C454.453 135.177 453.527 134.744 453.224 133.91C452.921 133.073 453.354 132.15 454.187 131.846C466.475 127.387 479.395 125.123 492.586 125.123C554.628 125.123 605.108 175.599 605.108 237.645C605.108 289.021 570.403 333.834 520.714 346.624C520.587 346.658 520.454 346.675 520.32 346.675Z" fill="#F1EFFB"/>
<path d="M517.397 359.845C516.647 359.845 515.976 359.319 515.82 358.558C515.643 357.689 516.203 356.835 517.073 356.658C573.276 345.158 614.069 295.108 614.069 237.648C614.069 170.665 559.572 116.169 492.589 116.169C479.274 116.169 466.187 118.309 453.694 122.53C452.85 122.817 451.936 122.363 451.653 121.52C451.369 120.676 451.82 119.763 452.663 119.48C465.49 115.146 478.925 112.949 492.589 112.949C561.349 112.949 617.288 168.889 617.288 237.648C617.288 296.631 575.413 348.007 517.717 359.815C517.613 359.835 517.503 359.845 517.397 359.845Z" fill="#F1EFFB"/>
<path d="M519.854 371.772C519.104 371.772 518.434 371.246 518.277 370.486C518.1 369.615 518.661 368.763 519.53 368.586C581.367 355.931 626.25 300.862 626.25 237.646C626.25 165.456 569.78 106.789 497.692 104.085C496.806 104.052 496.113 103.306 496.146 102.415C496.18 101.529 496.889 100.855 497.816 100.865C533.272 102.195 566.392 117.013 591.084 142.591C615.838 168.235 629.47 201.99 629.47 237.642C629.47 302.382 583.507 358.779 520.177 371.739C520.067 371.763 519.96 371.772 519.854 371.772Z" fill="#F1EFFB"/>
<path d="M384.18 339.191C383.746 339.191 383.313 339.017 382.996 338.671C376.596 331.73 370.832 324.154 365.862 316.146C365.392 315.39 365.626 314.399 366.382 313.929C367.138 313.46 368.129 313.693 368.599 314.449C373.463 322.283 379.102 329.697 385.366 336.487C385.97 337.141 385.93 338.161 385.273 338.761C384.963 339.048 384.57 339.191 384.18 339.191Z" fill="#F1EFFB"/>
<path d="M525.544 383.002C524.811 383.002 524.145 382.496 523.978 381.752C523.782 380.886 524.321 380.022 525.189 379.825C553.5 373.362 579.027 358.681 599.008 337.363C599.619 336.714 600.635 336.686 601.285 337.29C601.932 337.9 601.965 338.917 601.359 339.567C580.934 361.352 554.846 376.359 525.905 382.963C525.785 382.989 525.665 383.002 525.544 383.002Z" fill="#F1EFFB"/>
<path d="M639.472 252.256C639.425 252.256 639.379 252.253 639.329 252.25C638.442 252.173 637.789 251.39 637.866 250.506C638.236 246.252 638.425 241.926 638.425 237.645C638.425 161.291 578.826 97.3883 502.739 92.1581C501.852 92.0981 501.182 91.3281 501.242 90.4414C501.301 89.5547 502.082 88.8812 502.958 88.9446C540.553 91.5281 575.503 108.142 601.361 135.727C627.338 163.442 641.646 199.637 641.646 237.642C641.646 242.016 641.453 246.44 641.072 250.786C640.999 251.626 640.299 252.256 639.472 252.256Z" fill="#F1EFFB"/>
<path d="M528.205 394.888C527.471 394.888 526.807 394.38 526.634 393.633C526.438 392.767 526.981 391.904 527.848 391.707C555.142 385.486 580.401 371.999 600.898 352.698C601.545 352.088 602.565 352.119 603.175 352.765C603.785 353.412 603.755 354.432 603.108 355.041C582.194 374.736 556.419 388.5 528.568 394.847C528.444 394.877 528.324 394.888 528.205 394.888Z" fill="#F1EFFB"/>
<path d="M652.195 241.76C652.187 241.76 652.178 241.76 652.171 241.76C651.28 241.746 650.571 241.013 650.584 240.126C650.597 239.302 650.604 238.472 650.604 237.645C650.604 159.695 594.848 94.0982 518.024 81.671C517.147 81.5275 516.55 80.7008 516.69 79.8241C516.83 78.9475 517.664 78.3507 518.538 78.4908C555.906 84.5377 590.145 103.769 614.946 132.643C640.017 161.828 653.821 199.12 653.821 237.645C653.821 238.489 653.814 239.333 653.8 240.173C653.791 241.056 653.074 241.76 652.195 241.76Z" fill="#F1EFFB"/>
<path d="M422.395 95.862C421.801 95.862 421.228 95.532 420.948 94.962C420.558 94.1652 420.884 93.1985 421.685 92.8085C427.949 89.735 434.475 87.0482 441.079 84.8248C441.922 84.538 442.835 84.9947 443.119 85.8347C443.402 86.6782 442.949 87.5915 442.109 87.8749C435.638 90.055 429.245 92.6885 423.104 95.6986C422.875 95.8087 422.631 95.862 422.395 95.862Z" fill="#F1EFFB"/>
<path d="M376.315 348.611C375.885 348.611 375.459 348.442 375.143 348.105C364.335 336.621 355.294 323.667 348.271 309.609C347.875 308.817 348.198 307.846 348.991 307.449C349.785 307.053 350.754 307.376 351.151 308.169C358.035 321.947 366.895 334.641 377.486 345.895C378.096 346.541 378.065 347.561 377.416 348.172C377.109 348.468 376.713 348.611 376.315 348.611Z" fill="#F1EFFB"/>
<path d="M530.444 406.871C529.708 406.871 529.045 406.361 528.874 405.614C528.677 404.748 529.224 403.885 530.091 403.691C549.709 399.281 568.23 391.477 585.144 380.494C585.887 380.01 586.884 380.22 587.371 380.967C587.854 381.713 587.644 382.71 586.898 383.194C569.663 394.383 550.788 402.338 530.798 406.832C530.677 406.858 530.561 406.871 530.444 406.871Z" fill="#F1EFFB"/>
<path d="M608.328 366.222C607.891 366.222 607.454 366.046 607.138 365.696C606.538 365.039 606.585 364.019 607.242 363.422C612.825 358.328 618.122 352.811 622.982 347.024C623.555 346.344 624.569 346.254 625.249 346.827C625.929 347.398 626.019 348.414 625.446 349.094C620.496 354.988 615.098 360.612 609.408 365.802C609.105 366.083 608.718 366.222 608.328 366.222Z" fill="#F1EFFB"/>
<path d="M663.598 222.678C662.778 222.678 662.078 222.055 661.999 221.221C654.934 147.431 601.532 87.218 529.112 71.3839C528.241 71.1939 527.692 70.3372 527.881 69.4672C528.072 68.5971 528.928 68.047 529.799 68.2371C565.59 76.0608 597.475 94.7318 622.013 122.227C646.741 149.934 661.675 184.059 665.202 220.911C665.285 221.799 664.639 222.582 663.752 222.668C663.705 222.675 663.651 222.678 663.598 222.678Z" fill="#F1EFFB"/>
<path d="M411.145 87.9546C410.572 87.9546 410.019 87.6479 409.725 87.1079C409.302 86.3245 409.595 85.3478 410.379 84.9245C414.606 82.6444 418.978 80.5142 423.379 78.5975C424.196 78.2408 425.143 78.6141 425.5 79.4308C425.856 80.2442 425.483 81.1943 424.666 81.5509C420.349 83.4344 416.056 85.5212 411.905 87.7612C411.665 87.8946 411.402 87.9546 411.145 87.9546Z" fill="#F1EFFB"/>
<path d="M371.959 361.575C371.552 361.575 371.142 361.422 370.83 361.112C349.598 340.171 334.057 314.039 325.884 285.538C325.637 284.684 326.134 283.791 326.987 283.548C327.84 283.298 328.733 283.798 328.977 284.651C336.997 312.623 352.251 338.271 373.089 358.819C373.723 359.442 373.729 360.462 373.106 361.095C372.789 361.415 372.373 361.575 371.959 361.575Z" fill="#F1EFFB"/>
<path d="M534.432 418.451C533.697 418.451 533.038 417.948 532.864 417.206C532.665 416.338 533.201 415.475 534.068 415.271C550.432 411.465 566.196 405.394 580.92 397.231C581.696 396.798 582.677 397.08 583.111 397.857C583.544 398.635 583.26 399.614 582.484 400.048C567.499 408.358 551.455 414.538 534.801 418.412C534.674 418.439 534.551 418.451 534.432 418.451Z" fill="#F1EFFB"/>
<path d="M608.617 382.04C608.151 382.04 607.684 381.837 607.367 381.447C606.805 380.756 606.911 379.744 607.601 379.183C614.428 373.626 620.909 367.53 626.862 361.052C627.466 360.395 628.486 360.359 629.139 360.956C629.792 361.559 629.836 362.575 629.236 363.232C623.179 369.819 616.585 376.026 609.634 381.68C609.335 381.924 608.974 382.04 608.617 382.04Z" fill="#F1EFFB"/>
<path d="M675.829 222.668C675.005 222.668 674.301 222.038 674.228 221.201C667.585 146.835 617.085 84.7745 545.579 63.0967C544.728 62.84 544.248 61.9399 544.505 61.0899C544.762 60.2398 545.661 59.7599 546.512 60.0165C581.657 70.6704 612.622 91.3847 636.066 119.923C659.808 148.824 674.112 183.746 677.435 220.918C677.515 221.805 676.862 222.585 675.975 222.665C675.925 222.668 675.875 222.668 675.829 222.668Z" fill="#F1EFFB"/>
<path d="M368.966 375.505C368.579 375.505 368.193 375.366 367.882 375.089C339.791 349.585 320.413 316.69 311.849 279.954C311.646 279.088 312.186 278.225 313.053 278.021C313.919 277.824 314.783 278.357 314.986 279.225C323.404 315.319 342.441 347.644 370.049 372.706C370.705 373.302 370.755 374.322 370.159 374.979C369.842 375.325 369.406 375.505 368.966 375.505Z" fill="#F1EFFB"/>
<path d="M556.025 424.926C555.354 424.926 554.727 424.505 554.5 423.836C554.214 422.996 554.664 422.078 555.504 421.792C561.008 419.912 566.498 417.755 571.815 415.381C572.625 415.022 573.578 415.386 573.942 416.195C574.305 417.005 573.939 417.959 573.128 418.322C567.722 420.735 562.141 422.929 556.545 424.842C556.371 424.899 556.197 424.926 556.025 424.926Z" fill="#F1EFFB"/>
<path d="M609.097 397.074C608.605 397.074 608.117 396.847 607.801 396.421C607.274 395.707 607.424 394.697 608.137 394.171C613.317 390.34 618.365 386.207 623.135 381.887C623.792 381.289 624.812 381.34 625.409 382C626.005 382.66 625.955 383.677 625.295 384.273C620.445 388.666 615.317 392.867 610.051 396.761C609.768 396.974 609.431 397.074 609.097 397.074Z" fill="#F1EFFB"/>
<path d="M688.739 237.508C687.855 237.508 687.136 236.796 687.128 235.912C686.535 168.029 651.477 106.449 593.337 71.1872C592.578 70.7272 592.334 69.7338 592.798 68.9771C593.258 68.2171 594.247 67.9737 595.008 68.4338C623.316 85.6047 647.07 109.809 663.702 138.427C680.832 167.909 690.046 201.61 690.346 235.886C690.352 236.775 689.639 237.502 688.749 237.508C688.746 237.508 688.742 237.508 688.739 237.508Z" fill="#F1EFFB"/>
<path d="M349.231 105.379C348.838 105.379 348.445 105.236 348.132 104.946C347.481 104.339 347.449 103.319 348.054 102.669C364.855 84.6845 384.57 70.1538 406.648 59.4867C407.447 59.0999 408.411 59.4333 408.798 60.2367C409.185 61.0367 408.848 62.0001 408.048 62.3868C386.33 72.884 366.936 87.1747 350.408 104.869C350.092 105.206 349.661 105.379 349.231 105.379Z" fill="#F1EFFB"/>
<path d="M317.046 151.638C316.802 151.638 316.559 151.585 316.325 151.468C315.529 151.071 315.209 150.101 315.606 149.307C317.919 144.681 320.449 140.084 323.126 135.647C323.586 134.887 324.573 134.64 325.336 135.101C326.097 135.56 326.343 136.551 325.883 137.31C323.249 141.674 320.76 146.194 318.485 150.748C318.206 151.311 317.639 151.638 317.046 151.638Z" fill="#F1EFFB"/>
<path d="M364.225 387.576C363.852 387.576 363.475 387.446 363.172 387.183C327.833 356.575 304.412 314.416 297.219 268.477C297.082 267.597 297.682 266.773 298.559 266.637C299.435 266.507 300.262 267.101 300.399 267.98C307.472 313.169 330.516 354.638 365.278 384.75C365.952 385.333 366.025 386.35 365.442 387.02C365.125 387.39 364.678 387.576 364.225 387.576Z" fill="#F1EFFB"/>
<path d="M699.358 264.93C699.292 264.93 699.225 264.927 699.161 264.921C698.278 264.81 697.652 264.007 697.758 263.127C698.788 254.733 699.312 246.163 699.312 237.649C699.312 174.749 671.177 116.026 622.124 76.5375C621.431 75.9808 621.321 74.9674 621.881 74.2741C622.438 73.5807 623.451 73.4707 624.144 74.0307C673.96 114.132 702.532 173.772 702.532 237.653C702.532 246.297 702.001 255 700.955 263.52C700.852 264.331 700.158 264.93 699.358 264.93Z" fill="#F1EFFB"/>
<path d="M337.962 99.6451C337.578 99.6451 337.192 99.5085 336.881 99.2285C336.221 98.6318 336.168 97.615 336.765 96.955C358.899 72.4571 386.81 53.2928 417.489 41.5389C418.319 41.2221 419.252 41.6356 419.569 42.4656C419.885 43.2957 419.472 44.2256 418.642 44.5457C388.437 56.1196 360.949 74.9873 339.154 99.1118C338.838 99.4652 338.401 99.6451 337.962 99.6451Z" fill="#F1EFFB"/>
<path d="M299.168 161.725C298.969 161.725 298.766 161.689 298.569 161.608C297.746 161.279 297.342 160.341 297.676 159.515C303.243 145.641 310.333 132.314 318.753 119.903C319.253 119.166 320.256 118.976 320.989 119.476C321.727 119.976 321.916 120.976 321.416 121.713C313.126 133.933 306.143 147.054 300.662 160.715C300.409 161.341 299.805 161.725 299.168 161.725Z" fill="#F1EFFB"/>
<path d="M349.711 390.87C349.314 390.87 348.918 390.724 348.607 390.433C313.029 356.891 290.165 311.819 284.231 263.517C284.121 262.633 284.75 261.829 285.631 261.724C286.508 261.623 287.317 262.244 287.424 263.126C293.268 310.685 315.782 355.065 350.814 388.093C351.461 388.703 351.491 389.722 350.881 390.37C350.567 390.7 350.141 390.87 349.711 390.87Z" fill="#F1EFFB"/>
<path d="M708.62 283.695C708.514 283.695 708.404 283.684 708.297 283.661C707.427 283.484 706.863 282.631 707.043 281.761C709.994 267.337 711.49 252.496 711.49 237.645C711.49 172.872 683.032 111.786 633.413 70.0503C632.733 69.477 632.646 68.4636 633.216 67.7836C633.786 67.1035 634.803 67.0168 635.483 67.5869C685.833 109.935 714.707 171.918 714.707 237.645C714.707 252.713 713.191 267.773 710.194 282.408C710.04 283.172 709.37 283.695 708.62 283.695Z" fill="#F1EFFB"/>
<path d="M330.607 89.6416C330.217 89.6416 329.823 89.5017 329.514 89.2151C328.86 88.6117 328.82 87.5915 329.424 86.9382C356.689 57.4334 391.347 35.869 429.659 24.5717C430.512 24.3217 431.406 24.8084 431.659 25.6618C431.909 26.5151 431.422 27.4119 430.569 27.6619C392.817 38.7958 358.659 60.0502 331.79 89.125C331.474 89.4683 331.04 89.6416 330.607 89.6416Z" fill="#F1EFFB"/>
<path d="M287.265 158.695C287.068 158.695 286.872 158.658 286.678 158.582C285.852 158.258 285.442 157.321 285.768 156.495C291.522 141.844 298.88 127.753 307.636 114.612C308.13 113.873 309.126 113.673 309.87 114.166C310.61 114.659 310.81 115.659 310.316 116.399C301.686 129.346 294.436 143.234 288.765 157.675C288.515 158.308 287.908 158.695 287.265 158.695Z" fill="#F1EFFB"/>
<path d="M345.865 403.86C345.485 403.86 345.102 403.727 344.795 403.45C304.753 367.735 278.995 318.896 272.261 265.933C272.148 265.05 272.775 264.244 273.655 264.133C274.535 264.026 275.342 264.647 275.455 265.526C282.089 317.719 307.476 365.849 346.938 401.051C347.602 401.641 347.659 402.66 347.068 403.324C346.749 403.68 346.309 403.86 345.865 403.86Z" fill="#F1EFFB"/>
<path d="M725.111 248.109C725.09 248.109 725.07 248.109 725.047 248.109C724.16 248.076 723.468 247.329 723.5 246.44C723.611 243.525 723.663 240.566 723.663 237.645C723.663 166.819 691.839 100.875 636.35 56.723C635.653 56.1696 635.54 55.1561 636.093 54.4595C636.647 53.7661 637.659 53.6495 638.356 54.2029C694.619 98.9684 726.887 165.828 726.887 237.645C726.887 240.606 726.831 243.606 726.721 246.559C726.688 247.429 725.974 248.109 725.111 248.109Z" fill="#F1EFFB"/>
<path d="M324.506 78.3542C324.107 78.3542 323.706 78.2042 323.393 77.9075C322.75 77.2908 322.73 76.274 323.343 75.6307C347.384 50.5228 377.186 30.7718 409.524 18.5078C410.355 18.1911 411.285 18.6111 411.602 19.4412C411.918 20.2713 411.498 21.2013 410.667 21.518C378.776 33.612 349.384 53.0963 325.674 77.8608C325.354 78.1875 324.93 78.3542 324.506 78.3542Z" fill="#F1EFFB"/>
<path d="M267.224 181.149C267.092 181.149 266.959 181.132 266.822 181.1C265.962 180.879 265.442 179.999 265.665 179.139C272.662 151.928 284.416 126.419 300.604 103.325C301.113 102.599 302.12 102.422 302.846 102.932C303.577 103.442 303.75 104.445 303.24 105.175C287.276 127.953 275.682 153.108 268.782 179.943C268.595 180.666 267.942 181.149 267.224 181.149Z" fill="#F1EFFB"/>
<path d="M336.248 411.591C335.861 411.591 335.475 411.451 335.164 411.174C296.063 375.679 269.857 327.59 261.381 275.757C261.238 274.88 261.834 274.051 262.711 273.907C263.587 273.764 264.418 274.36 264.561 275.237C272.921 326.353 298.766 373.782 337.331 408.79C337.988 409.388 338.038 410.408 337.441 411.065C337.124 411.411 336.688 411.591 336.248 411.591Z" fill="#F1EFFB"/>
<path d="M737.409 234.519C736.535 234.519 735.816 233.819 735.799 232.939C734.422 160.445 701.084 92.8585 644.327 47.5061C643.633 46.9495 643.52 45.9394 644.074 45.2427C644.627 44.5494 645.641 44.436 646.338 44.9893C703.843 90.9416 737.625 159.425 739.019 232.876C739.036 233.766 738.328 234.499 737.438 234.516C737.429 234.519 737.418 234.519 737.409 234.519Z" fill="#F1EFFB"/>
<path d="M319.316 66.2468C318.906 66.2468 318.493 66.0902 318.18 65.7768C317.549 65.1468 317.549 64.1301 318.18 63.5C342.667 38.9754 371.385 20.2212 403.541 7.7572C404.37 7.43385 405.304 7.8472 405.624 8.67724C405.948 9.50729 405.534 10.4373 404.704 10.7607C372.969 23.0613 344.625 41.5722 320.459 65.7802C320.14 66.0902 319.726 66.2468 319.316 66.2468Z" fill="#F1EFFB"/>
<path d="M293.331 96.9115C293.008 96.9115 292.681 96.8149 292.394 96.6116C291.671 96.0949 291.505 95.0881 292.02 94.3648C296.365 88.2978 301.042 82.3508 305.925 76.6906C306.505 76.0172 307.522 75.9405 308.195 76.5238C308.868 77.1039 308.942 78.1207 308.362 78.794C303.542 84.3777 298.925 90.2479 294.638 96.2382C294.328 96.6783 293.834 96.9115 293.331 96.9115Z" fill="#F1EFFB"/>
<path d="M248.189 224.195C248.156 224.195 248.123 224.195 248.09 224.192C247.203 224.138 246.526 223.375 246.579 222.488C249.119 180.615 262.43 139.851 285.075 104.605C285.555 103.855 286.555 103.642 287.298 104.122C288.045 104.602 288.264 105.599 287.781 106.345C265.434 141.13 252.296 181.359 249.79 222.684C249.743 223.538 249.032 224.195 248.189 224.195Z" fill="#F1EFFB"/>
<path d="M252.109 285.608C251.353 285.608 250.676 285.071 250.53 284.302C249.983 281.437 249.476 278.528 249.033 275.647C248.896 274.768 249.5 273.947 250.376 273.81C251.256 273.678 252.08 274.278 252.213 275.155C252.653 277.998 253.149 280.868 253.69 283.695C253.856 284.568 253.283 285.411 252.413 285.578C252.313 285.599 252.21 285.608 252.109 285.608Z" fill="#F1EFFB"/>
<path d="M331.766 423.901C331.389 423.901 331.013 423.772 330.71 423.505C293.551 391.11 267.203 348.971 254.512 301.636C254.282 300.775 254.793 299.892 255.649 299.662C256.509 299.435 257.389 299.942 257.622 300.802C270.147 347.515 296.151 389.107 332.827 421.078C333.496 421.662 333.566 422.678 332.984 423.348C332.659 423.715 332.213 423.901 331.766 423.901Z" fill="#F1EFFB"/>
<path d="M749.624 237.418C748.741 237.418 748.022 236.706 748.014 235.819C747.505 163.181 715.913 93.9546 661.341 45.8888C660.673 45.3021 660.61 44.2854 661.196 43.6154C661.783 42.9486 662.8 42.882 663.47 43.472C718.733 92.1411 750.721 162.242 751.238 235.796C751.244 236.685 750.528 237.409 749.638 237.415C749.631 237.418 749.628 237.418 749.624 237.418Z" fill="#F1EFFB"/>
<path d="M315.72 52.7491C315.293 52.7491 314.867 52.5825 314.55 52.2459C313.94 51.5991 313.967 50.5824 314.61 49.9691C334.974 30.6481 358.152 14.8673 383.5 3.06C384.303 2.68331 385.263 3.03332 385.64 3.84004C386.017 4.64674 385.667 5.60346 384.861 5.98014C359.829 17.6408 336.941 33.2249 316.827 52.3058C316.516 52.6025 316.117 52.7491 315.72 52.7491Z" fill="#F1EFFB"/>
<path d="M281.578 92.4414C281.261 92.4414 280.937 92.3481 280.658 92.1514C279.928 91.6413 279.751 90.6379 280.257 89.9112C284.511 83.8109 289.085 77.8173 293.852 72.1003C294.418 71.4169 295.435 71.3236 296.118 71.8936C296.802 72.4637 296.895 73.4771 296.325 74.1605C291.618 79.8074 287.101 85.7244 282.901 91.7514C282.588 92.2014 282.088 92.4414 281.578 92.4414Z" fill="#F1EFFB"/>
<path d="M237.702 205.88C237.632 205.88 237.562 205.877 237.492 205.868C236.609 205.754 235.988 204.944 236.101 204.064C241.082 165.662 254.296 129.694 275.384 97.1586C275.867 96.4119 276.864 96.1985 277.611 96.6819C278.358 97.1653 278.571 98.162 278.087 98.9087C257.262 131.037 244.212 166.559 239.295 204.478C239.192 205.29 238.502 205.88 237.702 205.88Z" fill="#F1EFFB"/>
<path d="M238.318 277.094C237.531 277.094 236.844 276.517 236.728 275.717C235.624 268.25 234.841 260.633 234.397 253.073C234.344 252.186 235.025 251.423 235.911 251.373C236.791 251.309 237.562 251.996 237.615 252.887C238.054 260.353 238.827 267.877 239.914 275.251C240.045 276.13 239.438 276.947 238.558 277.077C238.475 277.091 238.394 277.094 238.318 277.094Z" fill="#F1EFFB"/>
<path d="M266.47 361.575C265.896 361.575 265.342 361.268 265.053 360.732C258.176 348.041 252.332 334.697 247.692 321.067C247.405 320.224 247.855 319.309 248.698 319.023C249.543 318.736 250.456 319.186 250.742 320.03C255.326 333.49 261.092 346.667 267.887 359.198C268.31 359.982 268.019 360.959 267.24 361.381C266.993 361.512 266.73 361.575 266.47 361.575Z" fill="#F1EFFB"/>
<path d="M320.613 430.286C320.229 430.286 319.843 430.149 319.536 429.872C304.632 416.448 291.288 401.287 279.87 384.82C279.364 384.09 279.547 383.087 280.277 382.579C281.01 382.073 282.011 382.256 282.518 382.986C293.791 399.251 306.972 414.221 321.692 427.482C322.352 428.078 322.406 429.095 321.813 429.755C321.489 430.106 321.053 430.286 320.613 430.286Z" fill="#F1EFFB"/>
<path d="M760.852 262.117C760.806 262.117 760.762 262.113 760.716 262.11C759.829 262.034 759.172 261.257 759.245 260.371C759.879 252.87 760.199 245.222 760.199 237.646C760.199 170.056 734.934 105.529 689.062 55.9499C688.458 55.2965 688.495 54.2798 689.148 53.6731C689.798 53.0697 690.819 53.1064 691.422 53.7631C737.847 103.939 763.416 169.243 763.416 237.646C763.416 245.312 763.092 253.05 762.452 260.64C762.382 261.48 761.679 262.117 760.852 262.117Z" fill="#F1EFFB"/>
<path d="M301.922 49.1993C301.512 49.1993 301.098 49.0426 300.786 48.7292C300.155 48.1025 300.155 47.0825 300.782 46.4524C319.006 28.1682 339.684 12.6074 362.238 0.200112C363.019 -0.229909 363.996 0.05677 364.426 0.833477C364.851 1.61352 364.569 2.59357 363.792 3.02025C341.504 15.2808 321.073 30.6584 303.065 48.726C302.749 49.0426 302.336 49.1993 301.922 49.1993Z" fill="#F1EFFB"/>
<path d="M258.654 105.932C258.384 105.932 258.107 105.862 257.857 105.719C257.084 105.279 256.817 104.295 257.257 103.522C265.668 88.7945 275.531 74.7737 286.571 61.8464C287.148 61.1697 288.165 61.0897 288.841 61.6664C289.518 62.2431 289.599 63.2598 289.021 63.9365C278.111 76.7105 268.364 90.5646 260.053 105.119C259.757 105.639 259.213 105.932 258.654 105.932Z" fill="#F1EFFB"/>
<path d="M224.812 211.315C224.756 211.315 224.702 211.311 224.646 211.304C223.763 211.214 223.12 210.421 223.21 209.537C226.402 178.566 234.837 148.655 248.277 120.643C248.664 119.84 249.624 119.503 250.424 119.887C251.228 120.27 251.564 121.233 251.181 122.033C237.9 149.711 229.57 179.263 226.413 209.864C226.326 210.698 225.629 211.315 224.812 211.315Z" fill="#F1EFFB"/>
<path d="M224.34 262.174C223.512 262.174 222.806 261.54 222.736 260.7C222.163 253.916 221.843 247.006 221.779 240.169C221.773 239.279 222.486 238.552 223.376 238.546C224.286 238.586 224.992 239.252 225 240.142C225.059 246.903 225.379 253.73 225.942 260.433C226.016 261.32 225.36 262.096 224.472 262.174C224.43 262.171 224.382 262.174 224.34 262.174Z" fill="#F1EFFB"/>
<path d="M313.743 440.48C313.364 440.48 312.98 440.346 312.673 440.073C300.299 429.066 288.875 416.865 278.714 403.804C278.168 403.105 278.295 402.091 278.998 401.545C279.699 400.998 280.711 401.124 281.258 401.827C291.299 414.735 302.589 426.792 314.817 437.666C315.48 438.256 315.54 439.276 314.95 439.94C314.627 440.297 314.187 440.48 313.743 440.48Z" fill="#F1EFFB"/>
<path d="M767.37 300.192C767.257 300.192 767.14 300.182 767.024 300.156C766.153 299.962 765.606 299.105 765.797 298.235C770.16 278.464 772.376 258.079 772.376 237.645C772.376 172.779 749.672 109.555 708.443 59.623C707.876 58.9362 707.974 57.9229 708.66 57.3561C709.347 56.7895 710.36 56.8861 710.927 57.5729C752.629 108.078 775.597 172.032 775.597 237.645C775.597 258.314 773.357 278.931 768.943 298.928C768.777 299.682 768.109 300.192 767.37 300.192Z" fill="#F1EFFB"/>
<path d="M284.261 50.0958C283.874 50.0958 283.488 49.9557 283.177 49.679C282.521 49.0823 282.471 48.0623 283.067 47.4056C292.981 36.495 303.826 26.2811 315.305 17.0441C315.999 16.484 317.012 16.5941 317.569 17.2874C318.125 17.9807 318.016 18.9942 317.326 19.5508C305.975 28.6846 295.255 38.7818 285.454 49.5691C285.137 49.9191 284.701 50.0958 284.261 50.0958Z" fill="#F1EFFB"/>
<path d="M251.256 94.4683C250.973 94.4683 250.689 94.3949 250.429 94.2382C249.665 93.7816 249.422 92.7915 249.878 92.0282C256.816 80.4909 264.653 69.3436 273.177 58.8931C273.74 58.2031 274.753 58.0998 275.443 58.6631C276.134 59.2265 276.236 60.2398 275.674 60.9299C267.246 71.2604 259.496 82.2843 252.639 93.6882C252.336 94.1916 251.802 94.4683 251.256 94.4683Z" fill="#F1EFFB"/>
<path d="M212.988 207.383C212.929 207.383 212.868 207.38 212.805 207.374C211.923 207.274 211.285 206.477 211.385 205.594C214.932 174.136 223.666 143.744 237.35 115.26C237.733 114.46 238.697 114.12 239.497 114.506C240.296 114.893 240.637 115.853 240.25 116.653C226.722 144.81 218.089 174.856 214.582 205.953C214.492 206.778 213.795 207.383 212.988 207.383Z" fill="#F1EFFB"/>
<path d="M211.749 256.963C210.906 256.963 210.195 256.307 210.142 255.453C209.828 250.393 209.645 245.249 209.602 240.166C209.595 239.275 210.308 238.549 211.199 238.542C211.202 238.542 211.209 238.542 211.212 238.542C212.095 238.542 212.812 239.255 212.822 240.139C212.865 245.166 213.045 250.253 213.356 255.256C213.409 256.143 212.735 256.907 211.848 256.963C211.816 256.96 211.782 256.963 211.749 256.963Z" fill="#F1EFFB"/>
<path d="M303.51 447.657C303.124 447.657 302.737 447.516 302.426 447.239C292.876 438.569 283.835 429.162 275.555 419.279C274.985 418.598 275.075 417.582 275.755 417.012C276.435 416.442 277.452 416.529 278.022 417.212C286.205 426.982 295.146 436.283 304.59 444.856C305.246 445.453 305.296 446.472 304.7 447.129C304.386 447.477 303.95 447.657 303.51 447.657Z" fill="#F1EFFB"/>
<path d="M773.986 323.2C773.834 323.2 773.68 323.18 773.527 323.133C772.674 322.88 772.19 321.983 772.444 321.13C780.481 294.156 784.554 266.067 784.554 237.646C784.554 170.849 762.6 107.986 721.068 55.8565C720.514 55.1597 720.627 54.1497 721.324 53.593C722.021 53.0396 723.034 53.153 723.588 53.8497C743.962 79.421 759.83 107.935 770.75 138.601C782.051 170.329 787.778 203.654 787.778 237.646C787.778 266.377 783.657 294.775 775.534 322.05C775.32 322.747 774.68 323.2 773.986 323.2Z" fill="#F1EFFB"/>
<path d="M271.981 45.5659C271.604 45.5659 271.225 45.4325 270.918 45.1658C270.251 44.5791 270.184 43.5624 270.771 42.8924C272.967 40.3923 275.234 37.8988 277.508 35.4787C278.118 34.832 279.135 34.7986 279.785 35.4087C280.431 36.0186 280.465 37.0354 279.855 37.6855C277.605 40.0789 275.361 42.5457 273.191 45.0192C272.874 45.3791 272.428 45.5659 271.981 45.5659Z" fill="#F1EFFB"/>
<path d="M238.812 91.5817C238.535 91.5817 238.259 91.5116 238.001 91.3616C237.235 90.915 236.975 89.9283 237.422 89.1583C244.436 77.1309 252.386 65.4871 261.046 54.5465C261.596 53.8498 262.61 53.7331 263.307 54.2832C264.004 54.8364 264.12 55.8465 263.569 56.5432C255.003 67.3605 247.142 78.881 240.205 90.7783C239.905 91.295 239.365 91.5817 238.812 91.5817Z" fill="#F1EFFB"/>
<path d="M199.417 254.59C198.568 254.59 197.854 253.923 197.81 253.064C197.548 247.963 197.414 242.775 197.414 237.645C197.414 193.84 206.781 151.678 225.258 112.329C225.635 111.525 226.595 111.179 227.402 111.556C228.205 111.932 228.552 112.893 228.176 113.699C209.901 152.614 200.638 194.317 200.638 237.645C200.638 242.722 200.767 247.853 201.027 252.896C201.074 253.783 200.391 254.54 199.501 254.587C199.47 254.59 199.444 254.59 199.417 254.59Z" fill="#F1EFFB"/>
<path d="M296.439 457.677C296.055 457.677 295.672 457.54 295.362 457.264C286.665 449.45 278.347 441.03 270.633 432.243C270.048 431.572 270.114 430.556 270.784 429.969C271.45 429.386 272.467 429.449 273.057 430.119C280.684 438.813 288.915 447.14 297.515 454.871C298.176 455.464 298.232 456.484 297.636 457.144C297.319 457.497 296.878 457.677 296.439 457.677Z" fill="#F1EFFB"/>
<path d="M783.868 332.478C783.705 332.478 783.541 332.454 783.378 332.4C782.531 332.13 782.064 331.224 782.334 330.377C784.232 324.444 785.968 318.373 787.494 312.326C787.711 311.466 788.585 310.943 789.449 311.16C790.308 311.376 790.832 312.253 790.615 313.113C789.072 319.224 787.318 325.36 785.401 331.357C785.182 332.04 784.548 332.478 783.868 332.478Z" fill="#F1EFFB"/>
<path d="M796.5 273.007C796.44 273.007 796.381 273.004 796.323 272.998C795.44 272.9 794.803 272.104 794.9 271.22C796.117 260.15 796.733 248.853 796.733 237.646C796.733 169.185 774.526 104.539 732.507 50.6962C731.96 49.9962 732.084 48.9828 732.787 48.4361C733.491 47.8894 734.5 48.0127 735.047 48.7161C777.51 103.129 799.954 168.462 799.954 237.646C799.954 248.969 799.331 260.383 798.104 271.574C798.007 272.397 797.311 273.007 796.5 273.007Z" fill="#F1EFFB"/>
<path d="M224.809 91.5813C224.546 91.5813 224.279 91.518 224.032 91.3814C223.256 90.9513 222.972 89.9713 223.402 89.1946C230.756 75.8872 239.186 63.0032 248.45 50.9059C248.99 50.1993 250.004 50.0659 250.707 50.6059C251.414 51.146 251.547 52.156 251.007 52.8627C241.836 64.8334 233.496 77.5806 226.219 90.748C225.925 91.2814 225.375 91.5813 224.809 91.5813Z" fill="#F1EFFB"/>
<path d="M186.873 243.376C185.993 243.376 185.277 242.669 185.263 241.789C185.243 240.412 185.236 239.03 185.236 237.646C185.236 191.463 195.227 147.065 214.928 105.682C215.312 104.879 216.271 104.539 217.074 104.922C217.878 105.306 218.218 106.266 217.835 107.069C198.34 148.015 188.457 191.947 188.457 237.649C188.457 239.016 188.466 240.382 188.483 241.746C188.493 242.636 187.783 243.367 186.893 243.379C186.887 243.376 186.879 243.376 186.873 243.376Z" fill="#F1EFFB"/>
<path d="M295.089 472.658C294.723 472.658 294.352 472.534 294.049 472.278C285.779 465.273 277.788 457.744 270.295 449.899C269.681 449.256 269.705 448.236 270.348 447.623C270.991 447.01 272.008 447.033 272.624 447.676C280.038 455.44 287.945 462.89 296.129 469.821C296.809 470.394 296.892 471.411 296.316 472.091C295.999 472.464 295.546 472.658 295.089 472.658Z" fill="#F1EFFB"/>
<path d="M799.663 321.924C799.524 321.924 799.384 321.907 799.247 321.867C798.387 321.637 797.879 320.753 798.11 319.896C800.477 311.076 802.483 302.042 804.073 293.042C804.23 292.165 805.073 291.582 805.94 291.735C806.817 291.892 807.401 292.726 807.247 293.602C805.64 302.696 803.614 311.823 801.221 320.73C801.024 321.45 800.373 321.924 799.663 321.924Z" fill="#F1EFFB"/>
<path d="M810.462 233.399C809.585 233.399 808.869 232.696 808.852 231.819C807.651 165.403 786.097 102.179 746.512 48.9895C745.982 48.2762 746.128 47.2661 746.842 46.736C747.555 46.206 748.564 46.3528 749.095 47.0661C789.08 100.799 810.858 164.665 812.072 231.758C812.088 232.648 811.378 233.382 810.491 233.395C810.482 233.399 810.471 233.399 810.462 233.399Z" fill="#F1EFFB"/>
<path d="M174.873 227.799C174.853 227.799 174.833 227.799 174.816 227.799C173.929 227.768 173.233 227.021 173.263 226.131C175.542 161.715 196.924 100.262 235.092 48.4092C235.619 47.6925 236.629 47.5392 237.342 48.0659C238.059 48.5926 238.213 49.6026 237.686 50.316C199.904 101.649 178.739 162.482 176.48 226.248C176.449 227.115 175.736 227.799 174.873 227.799Z" fill="#F1EFFB"/>
<path d="M285.215 480.238C284.841 480.238 284.468 480.112 284.165 479.848C277.681 474.262 271.341 468.344 265.324 462.257C264.697 461.624 264.703 460.604 265.337 459.981C265.967 459.357 266.987 459.36 267.614 459.994C273.571 466.021 279.844 471.881 286.264 477.408C286.938 477.988 287.014 479.005 286.435 479.678C286.114 480.049 285.665 480.238 285.215 480.238Z" fill="#F1EFFB"/>
<path d="M808.919 333.927C808.765 333.927 808.611 333.907 808.455 333.86C807.602 333.607 807.119 332.707 807.372 331.857C812.338 315.243 816.002 298.082 818.265 280.847C818.383 279.967 819.195 279.344 820.072 279.461C820.953 279.577 821.575 280.385 821.459 281.268C819.172 298.672 815.472 316.003 810.459 332.781C810.252 333.477 809.611 333.927 808.919 333.927Z" fill="#F1EFFB"/>
<path d="M822.466 226.922C821.605 226.922 820.889 226.238 820.859 225.372C818.436 159.388 796.505 96.4217 757.436 43.2823C756.909 42.5656 757.063 41.5589 757.779 41.0322C758.496 40.5055 759.503 40.6588 760.029 41.3755C799.481 95.0416 821.626 158.625 824.073 225.255C824.105 226.145 823.413 226.892 822.523 226.922C822.506 226.918 822.486 226.922 822.466 226.922Z" fill="#F1EFFB"/>
<path d="M162.689 227.799C162.669 227.799 162.652 227.799 162.632 227.799C161.742 227.769 161.049 227.022 161.079 226.136C163.346 159.622 185.251 96.0786 224.422 42.3758C224.946 41.6558 225.952 41.4992 226.672 42.0225C227.393 42.5459 227.549 43.5525 227.026 44.2726C188.234 97.452 166.543 160.378 164.296 226.245C164.265 227.115 163.553 227.799 162.689 227.799Z" fill="#F1EFFB"/>
<path d="M288.784 498.946C288.438 498.946 288.084 498.833 287.79 498.603C280.557 492.915 273.467 486.852 266.719 480.575C266.07 479.968 266.033 478.951 266.637 478.298C267.243 477.648 268.26 477.611 268.913 478.215C275.596 484.432 282.618 490.439 289.781 496.066C290.481 496.615 290.601 497.629 290.051 498.325C289.734 498.736 289.261 498.946 288.784 498.946Z" fill="#F1EFFB"/>
<path d="M825.199 320.379C825.072 320.379 824.946 320.367 824.819 320.333C823.956 320.123 823.426 319.253 823.636 318.387C829.716 293.372 832.946 267.526 833.24 241.566C833.249 240.682 833.969 239.972 834.85 239.972C834.856 239.972 834.859 239.972 834.867 239.972C835.756 239.982 836.466 240.712 836.46 241.599C836.163 267.804 832.903 293.895 826.766 319.146C826.586 319.887 825.926 320.379 825.199 320.379Z" fill="#F1EFFB"/>
<path d="M833.967 214.218C833.13 214.218 832.423 213.571 832.363 212.725C828.049 153.055 807.959 95.3951 774.268 45.9759C773.768 45.2426 773.957 44.2392 774.69 43.7392C775.424 43.2391 776.428 43.4258 776.928 44.1625C810.939 94.0484 831.22 152.258 835.577 212.492C835.64 213.378 834.973 214.148 834.086 214.214C834.047 214.218 834.007 214.218 833.967 214.218Z" fill="#F1EFFB"/>
<path d="M150.957 218.118C150.924 218.118 150.89 218.118 150.857 218.114C149.971 218.061 149.294 217.298 149.347 216.411C153.238 152.581 174.824 91.2679 211.774 39.1019C212.286 38.3786 213.294 38.2052 214.017 38.7185C214.744 39.232 214.913 40.2387 214.401 40.9621C177.798 92.638 156.413 153.374 152.561 216.604C152.511 217.461 151.8 218.118 150.957 218.118Z" fill="#F1EFFB"/>
<path d="M808.458 400.25C808.212 400.25 807.962 400.194 807.725 400.073C806.935 399.671 806.618 398.7 807.025 397.907C811.012 390.1 814.752 382.042 818.136 373.969C818.48 373.149 819.422 372.766 820.242 373.106C821.062 373.449 821.449 374.392 821.106 375.212C817.689 383.362 813.916 391.489 809.892 399.371C809.609 399.93 809.045 400.25 808.458 400.25Z" fill="#F1EFFB"/>
<path d="M836.187 326.683C836.057 326.683 835.923 326.667 835.79 326.634C834.93 326.413 834.406 325.54 834.626 324.677C839.707 304.653 843.037 284.001 844.524 263.293C844.587 262.407 845.378 261.74 846.244 261.804C847.131 261.867 847.797 262.637 847.733 263.523C846.233 284.418 842.873 305.26 837.747 325.467C837.56 326.2 836.903 326.683 836.187 326.683Z" fill="#F1EFFB"/>
<path d="M842.367 181.522C841.594 181.522 840.91 180.963 840.78 180.173C832.957 132.4 815.663 87.5076 789.381 46.7356C788.898 45.9889 789.114 44.9922 789.861 44.5088C790.607 44.0254 791.604 44.2422 792.087 44.9888C818.61 86.1342 836.063 131.44 843.96 179.649C844.104 180.525 843.507 181.356 842.631 181.499C842.541 181.516 842.454 181.522 842.367 181.522Z" fill="#F1EFFB"/>
<path d="M141.318 191.587C141.245 191.587 141.175 191.583 141.101 191.573C140.222 191.453 139.601 190.643 139.722 189.763C146.865 136.613 166.406 84.9009 196.227 40.222C196.721 39.482 197.721 39.282 198.461 39.7754C199.201 40.2687 199.401 41.2687 198.908 42.0088C169.353 86.281 149.992 137.523 142.912 190.19C142.805 191 142.112 191.587 141.318 191.587Z" fill="#F1EFFB"/>
<path d="M816.278 411.591C816.022 411.591 815.761 411.531 815.522 411.4C814.738 410.984 814.438 410.007 814.858 409.224C823.408 393.196 830.809 376.395 836.852 359.291C837.149 358.454 838.066 358.012 838.906 358.311C839.746 358.608 840.183 359.528 839.886 360.364C833.789 377.622 826.322 394.57 817.695 410.741C817.408 411.281 816.851 411.591 816.278 411.591Z" fill="#F1EFFB"/>
<path d="M850.47 319.27C850.354 319.27 850.237 319.256 850.121 319.23C849.254 319.036 848.706 318.177 848.9 317.309C850.313 310.963 851.574 304.482 852.644 298.055C852.79 297.176 853.624 296.589 854.497 296.732C855.374 296.879 855.967 297.709 855.821 298.586C854.74 305.072 853.47 311.609 852.043 318.013C851.874 318.76 851.208 319.27 850.47 319.27Z" fill="#F1EFFB"/>
<path d="M857.228 200.784C856.415 200.784 855.715 200.167 855.628 199.34C855.128 194.557 854.528 189.716 853.841 184.957C853.715 184.076 854.325 183.26 855.204 183.132C856.091 183 856.901 183.617 857.028 184.497C857.721 189.297 858.328 194.18 858.834 199.007C858.927 199.891 858.284 200.684 857.401 200.773C857.342 200.784 857.285 200.784 857.228 200.784Z" fill="#F1EFFB"/>
<path d="M853.08 172.069C852.32 172.069 851.643 171.525 851.499 170.752C843.283 126.38 827.052 84.3778 803.267 45.9158C802.797 45.1591 803.034 44.1658 803.791 43.699C804.547 43.2323 805.541 43.4657 806.008 44.2225C830.006 83.0277 846.38 125.399 854.67 170.168C854.833 171.042 854.254 171.882 853.38 172.046C853.277 172.062 853.176 172.069 853.08 172.069Z" fill="#F1EFFB"/>
<path d="M130.276 182.829C130.193 182.829 130.113 182.823 130.029 182.809C129.15 182.673 128.549 181.853 128.683 180.972C136.83 128.239 155.944 78.9073 185.503 34.3517C185.992 33.6083 186.992 33.4083 187.732 33.8983C188.473 34.3917 188.676 35.3885 188.186 36.1285C158.888 80.2974 139.94 129.193 131.866 181.463C131.743 182.263 131.057 182.829 130.276 182.829Z" fill="#F1EFFB"/>
<path d="M820.324 429.345C820.048 429.345 819.771 429.275 819.518 429.128C818.751 428.682 818.488 427.695 818.935 426.928C832.405 403.754 843.4 379.103 851.617 353.658C851.89 352.815 852.797 352.351 853.643 352.621C854.49 352.894 854.954 353.801 854.68 354.648C846.393 380.309 835.302 405.174 821.719 428.546C821.419 429.055 820.878 429.345 820.324 429.345Z" fill="#F1EFFB"/>
<path d="M862.474 321.396C862.361 321.396 862.241 321.382 862.128 321.359C861.258 321.166 860.71 320.309 860.901 319.44C861.821 315.269 862.681 311.049 863.448 306.903C863.608 306.029 864.445 305.448 865.325 305.612C866.198 305.772 866.775 306.615 866.615 307.488C865.838 311.676 864.974 315.929 864.044 320.136C863.878 320.882 863.212 321.396 862.474 321.396Z" fill="#F1EFFB"/>
<path d="M868.965 196.073C868.158 196.073 867.462 195.466 867.369 194.643C866.835 189.946 866.205 185.193 865.495 180.519C865.361 179.639 865.969 178.819 866.845 178.685C867.732 178.549 868.545 179.156 868.678 180.036C869.395 184.753 870.029 189.542 870.568 194.283C870.669 195.166 870.035 195.963 869.152 196.064C869.088 196.07 869.026 196.073 868.965 196.073Z" fill="#F1EFFB"/>
<path d="M863.424 161.565C862.679 161.565 862.008 161.041 861.851 160.282C854.264 123.88 841.324 88.8781 823.389 56.2431C822.959 55.463 823.246 54.4863 824.026 54.0562C824.807 53.6263 825.787 53.9129 826.212 54.693C844.3 87.6079 857.354 122.913 865.008 159.628C865.188 160.498 864.632 161.352 863.758 161.532C863.645 161.552 863.535 161.565 863.424 161.565Z" fill="#F1EFFB"/>
<path d="M125.318 146.124C125.187 146.124 125.054 146.107 124.921 146.074C124.058 145.857 123.538 144.981 123.754 144.118C132.814 108.279 147.075 73.9936 166.143 42.212C166.599 41.4486 167.59 41.202 168.354 41.6587C169.116 42.1154 169.363 43.1054 168.907 43.8687C150.002 75.3804 135.862 109.372 126.878 144.907C126.695 145.638 126.038 146.124 125.318 146.124Z" fill="#F1EFFB"/>
<path d="M836.389 425.622C836.13 425.622 835.866 425.558 835.624 425.425C834.84 425.002 834.554 424.021 834.976 423.242C848.4 398.528 859.134 372.322 866.881 345.355C867.128 344.498 868.022 344.004 868.871 344.251C869.725 344.498 870.218 345.388 869.975 346.242C862.165 373.435 851.341 399.86 837.804 424.779C837.513 425.319 836.96 425.622 836.389 425.622Z" fill="#F1EFFB"/>
<path d="M874.255 324.523C874.138 324.523 874.021 324.511 873.905 324.483C873.037 324.29 872.488 323.43 872.681 322.564C873.745 317.77 874.731 312.906 875.608 308.1C875.768 307.222 876.612 306.646 877.481 306.806C878.355 306.966 878.935 307.803 878.775 308.679C877.891 313.523 876.894 318.43 875.821 323.261C875.658 324.011 874.995 324.523 874.255 324.523Z" fill="#F1EFFB"/>
<path d="M880.675 191.39C879.872 191.39 879.178 190.79 879.078 189.977C878.565 185.766 877.975 181.51 877.322 177.326C877.185 176.446 877.788 175.622 878.665 175.485C879.541 175.356 880.369 175.949 880.505 176.829C881.162 181.05 881.755 185.343 882.275 189.587C882.381 190.469 881.755 191.273 880.872 191.38C880.805 191.387 880.742 191.39 880.675 191.39Z" fill="#F1EFFB"/>
<path d="M874.902 156.975C874.158 156.975 873.492 156.458 873.329 155.701C865.911 121.062 853.758 87.5944 837.204 56.2194C836.789 55.4327 837.09 54.4593 837.876 54.046C838.663 53.6326 839.637 53.9326 840.053 54.7194C856.741 86.3543 868.998 120.103 876.479 155.028C876.665 155.898 876.111 156.754 875.242 156.937C875.128 156.961 875.015 156.975 874.902 156.975Z" fill="#F1EFFB"/>
<path d="M114.67 138.667C114.533 138.667 114.393 138.65 114.256 138.613C113.396 138.387 112.886 137.503 113.112 136.644C121.713 104.249 134.497 73.0137 151.108 43.8122C151.548 43.0389 152.532 42.7689 153.305 43.2088C154.078 43.6488 154.349 44.6322 153.908 45.4056C137.434 74.367 124.756 105.342 116.23 137.47C116.033 138.191 115.379 138.667 114.67 138.667Z" fill="#F1EFFB"/>
<path d="M855.14 415.815C854.903 415.815 854.663 415.762 854.434 415.651C853.633 415.262 853.303 414.299 853.693 413.498C862.347 395.757 869.738 377.233 875.657 358.442C875.924 357.595 876.828 357.122 877.677 357.389C878.528 357.656 878.998 358.558 878.731 359.409C872.764 378.353 865.314 397.028 856.586 414.912C856.306 415.482 855.736 415.815 855.14 415.815Z" fill="#F1EFFB"/>
<path d="M884.969 332.287C884.845 332.287 884.723 332.274 884.599 332.244C883.732 332.04 883.199 331.171 883.403 330.307C884.879 324.06 886.226 317.67 887.406 311.313C887.566 310.436 888.403 309.853 889.283 310.023C890.156 310.186 890.733 311.027 890.572 311.899C889.383 318.306 888.026 324.75 886.539 331.048C886.362 331.787 885.699 332.287 884.969 332.287Z" fill="#F1EFFB"/>
<path d="M891.412 179.886C890.625 179.886 889.938 179.309 889.822 178.513C888.828 171.775 887.648 164.985 886.316 158.332C886.139 157.458 886.705 156.611 887.578 156.434C888.452 156.261 889.299 156.824 889.475 157.698C890.819 164.405 892.008 171.249 893.013 178.039C893.142 178.918 892.532 179.735 891.652 179.865C891.569 179.879 891.492 179.886 891.412 179.886Z" fill="#F1EFFB"/>
<path d="M885.212 147.264C884.483 147.264 883.819 146.764 883.646 146.02C877.233 118.542 867.855 91.6612 855.778 66.1266C855.398 65.3232 855.741 64.3632 856.545 63.9832C857.348 63.6032 858.308 63.9465 858.688 64.7499C870.865 90.4912 880.319 117.586 886.782 145.287C886.986 146.154 886.446 147.017 885.579 147.22C885.456 147.248 885.333 147.264 885.212 147.264Z" fill="#F1EFFB"/>
<path d="M104.405 130.017C104.262 130.017 104.115 129.997 103.969 129.957C103.112 129.717 102.615 128.826 102.855 127.97C111.292 97.9285 123.263 68.8337 138.441 41.4923C138.871 40.7156 139.85 40.4356 140.63 40.8656C141.408 41.2957 141.687 42.2756 141.257 43.0557C126.203 70.1771 114.326 99.0418 105.959 128.84C105.755 129.55 105.109 130.017 104.405 130.017Z" fill="#F1EFFB"/>
<path d="M867.617 417.984C867.384 417.984 867.147 417.934 866.924 417.827C866.12 417.445 865.78 416.484 866.164 415.681C877.368 392.216 886.374 367.572 892.935 342.441C893.158 341.581 894.035 341.064 894.899 341.29C895.759 341.514 896.275 342.394 896.048 343.254C889.435 368.586 880.357 393.419 869.067 417.068C868.794 417.644 868.218 417.984 867.617 417.984Z" fill="#F1EFFB"/>
<path d="M895.519 340.451C895.388 340.451 895.259 340.434 895.126 340.405C894.262 340.187 893.739 339.315 893.955 338.451C895.522 332.187 896.962 325.801 898.232 319.47C898.405 318.596 899.262 318.037 900.129 318.207C901.003 318.383 901.566 319.23 901.392 320.104C900.113 326.484 898.663 332.921 897.082 339.231C896.896 339.964 896.239 340.451 895.519 340.451Z" fill="#F1EFFB"/>
<path d="M901.809 167.822C901.042 167.822 900.358 167.269 900.225 166.485C898.355 155.695 896.022 144.847 893.295 134.247C893.075 133.387 893.592 132.507 894.452 132.287C895.311 132.064 896.188 132.584 896.411 133.444C899.158 144.127 901.508 155.058 903.396 165.932C903.548 166.808 902.961 167.642 902.085 167.792C901.995 167.816 901.902 167.822 901.809 167.822Z" fill="#F1EFFB"/>
<path d="M888.559 113.513C887.876 113.513 887.242 113.076 887.025 112.389C881.831 96.0216 875.541 79.8175 868.331 64.2167C867.957 63.41 868.308 62.4533 869.117 62.0799C869.925 61.7066 870.881 62.0566 871.255 62.8666C878.522 78.5874 884.862 94.9216 890.095 111.415C890.365 112.263 889.896 113.169 889.048 113.435C888.882 113.486 888.719 113.513 888.559 113.513Z" fill="#F1EFFB"/>
<path d="M95.7344 116.363C95.5777 116.363 95.4176 116.34 95.2577 116.289C94.4077 116.026 93.9343 115.126 94.1943 114.276C99.4679 97.2319 105.912 80.361 113.352 64.1235C113.722 63.3168 114.678 62.9602 115.486 63.3302C116.292 63.7002 116.649 64.6569 116.279 65.4636C108.896 81.5745 102.501 98.3153 97.2711 115.226C97.0578 115.919 96.421 116.363 95.7344 116.363Z" fill="#F1EFFB"/>
<path d="M879.752 420.818C879.521 420.818 879.288 420.768 879.068 420.665C878.265 420.288 877.918 419.328 878.294 418.524C887.493 398.941 895.243 378.499 901.326 357.765C901.576 356.912 902.48 356.428 903.323 356.672C904.176 356.922 904.666 357.815 904.416 358.668C898.286 379.563 890.479 400.161 881.209 419.892C880.935 420.475 880.358 420.818 879.752 420.818Z" fill="#F1EFFB"/>
<path d="M907.639 342.175C907.513 342.175 907.383 342.161 907.253 342.128C906.389 341.914 905.863 341.041 906.077 340.178C906.877 336.944 907.653 333.63 908.386 330.331C908.58 329.464 909.433 328.917 910.307 329.107C911.173 329.301 911.723 330.161 911.53 331.028C910.79 334.351 910.007 337.691 909.203 340.951C909.023 341.681 908.363 342.175 907.639 342.175Z" fill="#F1EFFB"/>
<path d="M899.746 108.505C899.066 108.505 898.432 108.069 898.213 107.386C892.915 90.8748 886.525 74.5107 879.218 58.7499C878.844 57.9431 879.195 56.9864 880.001 56.6131C880.808 56.2364 881.765 56.5897 882.142 57.3965C889.502 73.2772 895.938 89.7647 901.279 106.406C901.549 107.252 901.086 108.159 900.236 108.429C900.072 108.479 899.906 108.505 899.746 108.505Z" fill="#F1EFFB"/>
<path d="M85.911 107.046C85.7443 107.046 85.5776 107.019 85.4142 106.965C84.5675 106.689 84.1042 105.782 84.3809 104.935C88.4011 92.5646 93.0446 80.2307 98.1849 68.2768C98.5349 67.4601 99.485 67.0834 100.298 67.4334C101.115 67.7834 101.492 68.7301 101.142 69.5468C96.0415 81.4108 91.4313 93.6514 87.4444 105.929C87.221 106.612 86.591 107.046 85.911 107.046Z" fill="#F1EFFB"/>
<path d="M886.399 435.042C886.159 435.042 885.912 434.988 885.682 434.872C884.885 434.476 884.562 433.508 884.959 432.712C894.645 413.257 902.94 392.927 909.6 372.275C909.873 371.432 910.777 370.969 911.626 371.239C912.474 371.513 912.937 372.419 912.663 373.266C905.953 394.067 897.599 414.551 887.839 434.148C887.558 434.715 886.989 435.042 886.399 435.042Z" fill="#F1EFFB"/>
<path d="M912.52 108.505C911.834 108.505 911.197 108.063 910.983 107.372C904.57 86.7512 896.539 66.4234 887.112 46.9558C886.726 46.1557 887.058 45.1924 887.859 44.8057C888.656 44.419 889.622 44.7523 890.009 45.5523C899.506 65.1667 907.596 85.6444 914.06 106.418C914.323 107.269 913.85 108.168 913 108.435C912.837 108.482 912.677 108.505 912.52 108.505Z" fill="#F1EFFB"/>
<path d="M73.6764 105.292C73.513 105.292 73.3498 105.269 73.1864 105.216C72.3397 104.946 71.873 104.039 72.143 103.192C76.0499 90.9648 80.5501 78.7643 85.5203 66.9337C85.8636 66.1137 86.8104 65.7269 87.6271 66.0736C88.4471 66.4169 88.8339 67.3604 88.4872 68.1804C83.5536 79.9276 79.0866 92.0382 75.2098 104.176C74.9931 104.856 74.3597 105.292 73.6764 105.292Z" fill="#F1EFFB"/>
<path d="M897.374 440.325C897.133 440.325 896.886 440.272 896.656 440.156C895.86 439.758 895.537 438.792 895.933 437.999C904.29 421.211 911.657 403.73 917.831 386.033C918.125 385.193 919.044 384.746 919.881 385.042C920.721 385.336 921.165 386.253 920.871 387.093C914.651 404.913 907.231 422.524 898.816 439.432C898.533 439.999 897.964 440.325 897.374 440.325Z" fill="#F1EFFB"/>
<path d="M934.088 142.528C933.347 142.528 932.681 142.014 932.515 141.261C930.678 132.847 928.577 124.39 926.267 116.126C926.027 115.269 926.527 114.382 927.384 114.143C928.245 113.899 929.127 114.403 929.368 115.26C931.695 123.584 933.815 132.101 935.661 140.574C935.852 141.444 935.301 142.301 934.431 142.49C934.315 142.514 934.198 142.528 934.088 142.528Z" fill="#F1EFFB"/>
<path d="M924.84 107.129C924.149 107.129 923.513 106.682 923.3 105.988C918.073 88.8679 911.746 71.8871 904.496 55.5129C904.136 54.6996 904.502 53.7495 905.316 53.3895C906.126 53.0294 907.08 53.3961 907.439 54.2095C914.743 70.7037 921.117 87.8078 926.38 105.052C926.64 105.902 926.16 106.802 925.31 107.062C925.154 107.106 924.997 107.129 924.84 107.129Z" fill="#F1EFFB"/>
<path d="M61.7364 102.652C61.5765 102.652 61.4131 102.629 61.2498 102.575C60.4031 102.305 59.933 101.402 60.1997 100.555C64.5333 86.8745 69.5869 73.2371 75.2172 60.0265C75.5672 59.2064 76.5106 58.8264 77.3306 59.1764C78.1473 59.5264 78.5306 60.4698 78.1806 61.2898C72.5904 74.4072 67.5768 87.9445 63.2732 101.532C63.0532 102.215 62.4198 102.652 61.7364 102.652Z" fill="#F1EFFB"/>
<path d="M902.99 456.053C902.737 456.053 902.477 455.994 902.237 455.867C901.451 455.45 901.154 454.477 901.567 453.69C904.146 448.817 906.674 443.826 909.081 438.856C909.471 438.056 910.437 437.722 911.23 438.106C912.031 438.493 912.367 439.456 911.977 440.255C909.554 445.26 907.01 450.286 904.41 455.193C904.123 455.744 903.567 456.053 902.99 456.053Z" fill="#F1EFFB"/>
<path d="M914.116 433.575C913.89 433.575 913.663 433.529 913.444 433.426C912.636 433.052 912.284 432.095 912.656 431.289C916.997 421.889 921.074 412.215 924.771 402.528C925.088 401.697 926.021 401.281 926.85 401.597C927.681 401.914 928.097 402.844 927.78 403.678C924.057 413.431 919.954 423.175 915.58 432.639C915.31 433.229 914.726 433.575 914.116 433.575Z" fill="#F1EFFB"/>
<path d="M942.808 126.35C942.088 126.35 941.428 125.86 941.248 125.13C939.648 118.73 937.888 112.286 936.018 105.979C935.765 105.125 936.251 104.229 937.105 103.979C937.958 103.729 938.855 104.212 939.108 105.065C940.992 111.415 942.765 117.906 944.375 124.353C944.592 125.216 944.069 126.09 943.206 126.306C943.069 126.334 942.939 126.35 942.808 126.35Z" fill="#F1EFFB"/>
<path d="M934.37 96.8182C933.69 96.8182 933.057 96.385 932.837 95.7016C929.42 85.0944 925.566 74.4771 921.38 64.1432C921.046 63.3199 921.443 62.3799 922.267 62.0465C923.09 61.7131 924.03 62.1099 924.363 62.9333C928.577 73.3404 932.46 84.0309 935.901 94.7114C936.174 95.5582 935.707 96.4649 934.861 96.7382C934.701 96.7949 934.533 96.8182 934.37 96.8182Z" fill="#F1EFFB"/>
<path d="M45.3854 114.929C45.2421 114.929 45.0987 114.909 44.9553 114.87C44.0986 114.632 43.5952 113.746 43.8353 112.889C48.2422 97.0051 53.5591 81.1843 59.6461 65.8602C59.9728 65.0335 60.9095 64.6268 61.7362 64.9568C62.5629 65.2835 62.9662 66.2202 62.6396 67.0469C56.596 82.2644 51.3157 97.9751 46.9388 113.749C46.7388 114.463 46.0921 114.929 45.3854 114.929Z" fill="#F1EFFB"/>
<path d="M953.06 117.303C952.346 117.303 951.696 116.826 951.502 116.103C946.859 98.5283 941.136 81.0441 934.492 64.1333C934.169 63.3066 934.575 62.3698 935.402 62.0464C936.229 61.7198 937.166 62.1265 937.489 62.9565C944.179 79.984 949.943 97.5882 954.616 115.283C954.842 116.143 954.33 117.022 953.47 117.249C953.333 117.283 953.196 117.303 953.06 117.303Z" fill="#F1EFFB"/>
<path d="M31.3619 120.239C31.2285 120.239 31.0951 120.222 30.9585 120.19C30.0984 119.969 29.5784 119.089 29.8018 118.23C34.5553 99.7585 40.489 81.3775 47.4427 63.6067C47.766 62.7766 48.7028 62.3699 49.5295 62.6932C50.3562 63.0166 50.7662 63.95 50.4428 64.78C43.5358 82.4309 37.6422 100.685 32.9219 119.033C32.7319 119.756 32.0786 120.239 31.3619 120.239Z" fill="#F1EFFB"/>
<path d="M961.646 102.695C960.949 102.695 960.306 102.239 960.102 101.535C956.742 89.9682 952.895 78.3775 948.665 67.077C948.354 66.2436 948.775 65.3169 949.607 65.0036C950.438 64.6935 951.368 65.1136 951.682 65.9469C955.935 77.3209 959.809 88.9914 963.192 100.635C963.442 101.489 962.949 102.382 962.095 102.632C961.945 102.676 961.795 102.695 961.646 102.695Z" fill="#F1EFFB"/>
<path d="M18.5575 121.193C18.4274 121.193 18.2974 121.176 18.1674 121.146C17.3041 120.933 16.7774 120.059 16.994 119.196C21.6576 100.412 27.5079 81.7142 34.3816 63.6233C34.6982 62.7932 35.6283 62.3732 36.4583 62.6899C37.2884 63.0066 37.7084 63.9367 37.3917 64.7667C30.5614 82.7376 24.7511 101.312 20.1175 119.972C19.9342 120.703 19.2775 121.193 18.5575 121.193Z" fill="#F1EFFB"/>
<path d="M975.201 105.859C974.494 105.859 973.847 105.389 973.65 104.676C969.961 91.2914 965.65 77.9007 960.84 64.8734C960.534 64.04 960.956 63.1134 961.793 62.8067C962.63 62.5 963.554 62.9233 963.86 63.7601C968.7 76.8708 973.037 90.3514 976.754 103.822C976.991 104.679 976.487 105.566 975.631 105.802C975.487 105.839 975.344 105.859 975.201 105.859Z" fill="#F1EFFB"/>
<path d="M4.19022 129.026C4.07354 129.026 3.95354 129.013 3.83687 128.986C2.97016 128.793 2.42347 127.93 2.62014 127.064C7.43705 105.632 13.7341 84.3243 21.3378 63.7266C21.6477 62.8932 22.5745 62.4665 23.4045 62.7732C24.2379 63.0799 24.6646 64.0066 24.3579 64.8399C16.8042 85.3043 10.5472 106.476 5.7603 127.767C5.59029 128.517 4.92692 129.026 4.19022 129.026Z" fill="#F1EFFB"/>
<path d="M986.081 99.532C985.377 99.532 984.734 99.0687 984.534 98.3586C981.094 86.1879 977.151 73.9974 972.81 62.1267C972.503 61.29 972.934 60.3666 973.77 60.0632C974.603 59.7566 975.53 60.1867 975.834 61.0233C980.201 72.9707 984.171 85.2379 987.634 97.4852C987.877 98.342 987.377 99.232 986.524 99.4719C986.374 99.512 986.227 99.532 986.081 99.532Z" fill="#F1EFFB"/>
<path d="M2.14005 89.2048C1.98336 89.2048 1.82669 89.1815 1.67002 89.1347C0.819976 88.8748 0.339952 87.9747 0.599965 87.1247C3.36678 78.0743 6.4236 68.9838 9.69043 60.1C9.9971 59.2666 10.9238 58.8365 11.7572 59.1432C12.5905 59.45 13.0206 60.3767 12.7139 61.2101C9.46708 70.0372 6.43026 79.071 3.68012 88.0647C3.46678 88.7581 2.83008 89.2048 2.14005 89.2048Z" fill="#F1EFFB"/>
<path d="M998.021 96.9916C997.317 96.9916 996.671 96.5283 996.471 95.8149C993.767 86.1877 990.74 76.5072 987.477 67.0335C987.187 66.1934 987.634 65.2767 988.474 64.9866C989.31 64.6933 990.23 65.1433 990.521 65.9834C993.803 75.5139 996.851 85.2577 999.57 94.9415C999.811 95.7982 999.311 96.6882 998.454 96.9283C998.311 96.9716 998.164 96.9916 998.021 96.9916Z" fill="#F1EFFB"/>
</g>
<defs>
<clipPath id="clip0_122_1843">
<rect width="1000" height="500" fill="white"/>
</clipPath>
</defs>
</svg>
