<svg width="40" height="40" viewBox="0 0 40 40" fill="none" xmlns="http://www.w3.org/2000/svg">
<rect width="40" height="40" rx="20" fill="#16103A" fill-opacity="0.04"/>
<path d="M27.6361 13.34C26.212 12.714 24.6892 12.259 23.0973 12C22.9018 12.3321 22.6734 12.7787 22.5159 13.1341C20.8236 12.895 19.1469 12.895 17.4857 13.1341C17.3283 12.7787 17.0946 12.3321 16.8974 12C15.3037 12.259 13.7793 12.7157 12.3552 13.3433C9.48276 17.4213 8.70409 21.3981 9.09342 25.3184C10.9986 26.6551 12.8449 27.467 14.66 27.9983C15.1082 27.4189 15.5079 26.8029 15.8523 26.1536C15.1964 25.9195 14.5683 25.6306 13.9748 25.2951C14.1323 25.1856 14.2863 25.071 14.4351 24.9531C18.0551 26.5438 21.9881 26.5438 25.5649 24.9531C25.7154 25.071 25.8694 25.1856 26.0251 25.2951C25.4299 25.6322 24.8 25.9211 24.1442 26.1553C24.4885 26.8029 24.8865 27.4205 25.3364 28C27.1533 27.4687 29.0013 26.6567 30.9065 25.3184C31.3633 20.7738 30.1261 16.8335 27.6361 13.34ZM16.3454 22.9075C15.2587 22.9075 14.3676 21.9543 14.3676 20.7937C14.3676 19.6331 15.2397 18.6783 16.3454 18.6783C17.4511 18.6783 18.3422 19.6314 18.3232 20.7937C18.325 21.9543 17.4511 22.9075 16.3454 22.9075ZM23.6545 22.9075C22.5678 22.9075 21.6767 21.9543 21.6767 20.7937C21.6767 19.6331 22.5488 18.6783 23.6545 18.6783C24.7602 18.6783 25.6514 19.6314 25.6323 20.7937C25.6323 21.9543 24.7602 22.9075 23.6545 22.9075Z" fill="#16103A"/>
</svg>
