<svg width="40" height="40" viewBox="0 0 40 40" fill="none" xmlns="http://www.w3.org/2000/svg">
<rect width="40" height="40" rx="20" fill="#16103A" fill-opacity="0.04"/>
<path d="M27 14.5C27 15.3284 26.3284 16 25.5 16C24.6716 16 24 15.3284 24 14.5C24 13.6716 24.6716 13 25.5 13C26.3284 13 27 13.6716 27 14.5Z" fill="#16103A"/>
<path fill-rule="evenodd" clip-rule="evenodd" d="M20 25C22.7614 25 25 22.7614 25 20C25 17.2386 22.7614 15 20 15C17.2386 15 15 17.2386 15 20C15 22.7614 17.2386 25 20 25ZM20 23C21.6569 23 23 21.6569 23 20C23 18.3431 21.6569 17 20 17C18.3431 17 17 18.3431 17 20C17 21.6569 18.3431 23 20 23Z" fill="#16103A"/>
<path fill-rule="evenodd" clip-rule="evenodd" d="M10 19.6C10 16.2397 10 14.5595 10.654 13.2761C11.2292 12.1471 12.1471 11.2292 13.2761 10.654C14.5595 10 16.2397 10 19.6 10H20.4C23.7603 10 25.4405 10 26.7239 10.654C27.8529 11.2292 28.7708 12.1471 29.346 13.2761C30 14.5595 30 16.2397 30 19.6V20.4C30 23.7603 30 25.4405 29.346 26.7239C28.7708 27.8529 27.8529 28.7708 26.7239 29.346C25.4405 30 23.7603 30 20.4 30H19.6C16.2397 30 14.5595 30 13.2761 29.346C12.1471 28.7708 11.2292 27.8529 10.654 26.7239C10 25.4405 10 23.7603 10 20.4V19.6ZM19.6 12H20.4C22.1132 12 23.2777 12.0016 24.1779 12.0751C25.0548 12.1467 25.5032 12.2766 25.816 12.436C26.5686 12.8195 27.1805 13.4314 27.564 14.184C27.7234 14.4968 27.8533 14.9452 27.9249 15.8221C27.9984 16.7223 28 17.8868 28 19.6V20.4C28 22.1132 27.9984 23.2777 27.9249 24.1779C27.8533 25.0548 27.7234 25.5032 27.564 25.816C27.1805 26.5686 26.5686 27.1805 25.816 27.564C25.5032 27.7234 25.0548 27.8533 24.1779 27.9249C23.2777 27.9984 22.1132 28 20.4 28H19.6C17.8868 28 16.7223 27.9984 15.8221 27.9249C14.9452 27.8533 14.4968 27.7234 14.184 27.564C13.4314 27.1805 12.8195 26.5686 12.436 25.816C12.2766 25.5032 12.1467 25.0548 12.0751 24.1779C12.0016 23.2777 12 22.1132 12 20.4V19.6C12 17.8868 12.0016 16.7223 12.0751 15.8221C12.1467 14.9452 12.2766 14.4968 12.436 14.184C12.8195 13.4314 13.4314 12.8195 14.184 12.436C14.4968 12.2766 14.9452 12.1467 15.8221 12.0751C16.7223 12.0016 17.8868 12 19.6 12Z" fill="#16103A"/>
</svg>
