<svg width="40" height="40" viewBox="0 0 40 40" fill="none" xmlns="http://www.w3.org/2000/svg">
<rect width="40" height="40" rx="20" fill="#16103A" fill-opacity="0.04"/>
<path fill-rule="evenodd" clip-rule="evenodd" d="M24.0193 12.9095C24.0066 12.9898 24 13.0723 24 13.1563C24 14.0043 24.6716 14.6918 25.5 14.6918C26.3284 14.6918 27 14.0043 27 13.1563C27 12.3082 26.3284 11.6207 25.5 11.6207C25.1309 11.6207 24.7929 11.7572 24.5315 11.9836L20.6362 11L19.2283 16.7651C17.3554 16.8913 15.671 17.4719 14.4003 18.3485C14.0395 17.9863 13.5452 17.7629 13 17.7629C11.8954 17.7629 11 18.6796 11 19.8103C11 20.5973 11.4337 21.2805 12.0697 21.6232C12.0237 21.8674 12 22.1166 12 22.3696C12 25.4792 15.5817 28 20 28C24.4183 28 28 25.4792 28 22.3696C28 22.1166 27.9763 21.8674 27.9303 21.6232C28.5663 21.2805 29 20.5973 29 19.8103C29 18.6796 28.1046 17.7629 27 17.7629C26.4548 17.7629 25.9605 17.9863 25.5997 18.3485C24.2153 17.3935 22.3399 16.7897 20.2647 16.7423L21.3638 12.2414L24.0193 12.9095ZM16.5 22.8815C17.3284 22.8815 18 22.194 18 21.3459C18 20.4978 17.3284 19.8103 16.5 19.8103C15.6716 19.8103 15 20.4978 15 21.3459C15 22.194 15.6716 22.8815 16.5 22.8815ZM23.5 22.8815C24.3284 22.8815 25 22.194 25 21.3459C25 20.4978 24.3284 19.8103 23.5 19.8103C22.6716 19.8103 22 20.4978 22 21.3459C22 22.194 22.6716 22.8815 23.5 22.8815ZM16.7773 24.503C16.5476 24.3462 16.2372 24.4097 16.084 24.6449C15.9308 24.8802 15.9929 25.198 16.2226 25.3548C17.3107 26.0973 18.6554 26.4686 20 26.4686C21.3446 26.4686 22.6893 26.0973 23.7773 25.3548C24.0071 25.198 24.0692 24.8802 23.916 24.6449C23.7628 24.4097 23.4524 24.3462 23.2226 24.503C22.3025 25.1309 21.1513 25.4449 20 25.4449C19.3173 25.4449 18.6345 25.3345 18 25.1137C17.5646 24.9621 17.1518 24.7585 16.7773 24.503Z" fill="#16103A"/>
</svg>
