<svg width="40" height="40" viewBox="0 0 40 40" fill="none" xmlns="http://www.w3.org/2000/svg">
<rect width="40" height="40" rx="20" fill="#16103A" fill-opacity="0.04"/>
<path d="M9.68338 15.4558C9.77978 13.9717 10.973 12.8087 12.4583 12.7351C14.6093 12.6285 17.6836 12.5 20 12.5C22.3164 12.5 25.3907 12.6285 27.5417 12.7351C29.027 12.8087 30.2202 13.9717 30.3166 15.4558C30.409 16.8777 30.5 18.6272 30.5 20C30.5 21.3728 30.409 23.1223 30.3166 24.5442C30.2202 26.0283 29.027 27.1913 27.5417 27.2649C25.3907 27.3715 22.3164 27.5 20 27.5C17.6836 27.5 14.6093 27.3715 12.4583 27.2649C10.973 27.1913 9.77978 26.0283 9.68338 24.5442C9.59102 23.1223 9.5 21.3728 9.5 20C9.5 18.6272 9.59102 16.8777 9.68338 15.4558Z" fill="#16103A"/>
<path d="M17.75 17V23L23.75 20L17.75 17Z" fill="white"/>
</svg>
