<svg width="130" height="56" viewBox="0 0 130 56" fill="none" xmlns="http://www.w3.org/2000/svg">
<path d="M36 22.1941L31.415 24.6698L30.5375 25.1518L31.6124 20.3756L28.936 22.8733L27.0932 14L25.755 20.4632L21.1919 15.5336L12 20.8795L18.4935 27.8686V37.0485L27.0932 42L35.6929 37.0485V27.1237L34.1573 26.2254L36 22.1941ZM14.3912 21.2301L20.8848 17.4617L25.3601 22.3036L25.2285 22.8952L22.552 20.3756L23.6271 25.1518L22.7495 24.6698L18.1645 22.1941L20.0292 26.2473L19.393 26.6198L14.3912 21.2301ZM26.3254 39.831L20.0073 36.194V28.8764L26.3254 32.5133V39.831ZM22.8592 28.7888L21.9818 26.8827L21.4551 25.7214L22.7714 26.4445L25.8427 28.1095L25.1627 25.0642L25.1188 24.8889L25.2505 25.0204L26.1718 25.8749L27.0054 21.8874L27.0932 21.5149L27.2248 22.1283L27.6856 24.3193L28.0147 25.8967L28.936 25.0423L29.0676 24.9108L29.0237 25.0861L28.3437 28.1315L31.415 26.4664L32.7313 25.7434L32.2047 26.9046L31.3271 28.8107L27.0932 31.2645L22.8592 28.7888ZM34.1791 28.8764V36.1722L27.861 39.8091V32.5352L34.1791 28.8764Z" fill="#5C6A78"/>
<path d="M55.5371 26.7136V29.4782H63.6217V33.3156H55.5371V36.2452H64V40H52V23H63.9058V26.7136H55.5371Z" fill="#5C6A78"/>
<path d="M69.9882 41H66.1259L70.4587 34.4788L66 28H70.1455L72.6255 31.6418L75.0118 28H78.749L74.6042 34.3941L79 41H75.1062L72.5311 37.2736L69.9882 41Z" fill="#5C6A78"/>
<path d="M84.2976 27.2439V28.8301C84.6955 28.2607 85.9472 27 88.0543 27H88.267C91.8401 27 93 30.2535 93 33.2224V33.5885C93 36.3134 91.8095 39.933 88.2364 39.933H87.9931C85.8554 39.933 84.6955 38.6316 84.2976 38.1028V44H81V27.2439H84.2976ZM87.0765 30.2535H86.8936C84.9089 30.2535 84.2976 32.0023 84.2976 33.4258V33.5071C84.2976 34.8899 84.9089 36.6795 86.8936 36.6795H87.0765C89.1224 36.6795 89.6113 34.8086 89.6113 33.5071V33.4258C89.6113 32.0837 89.153 30.2535 87.0765 30.2535Z" fill="#5C6A78"/>
<path d="M95 40V23H99V40H95Z" fill="#5C6A78"/>
<path d="M101 33.7214V33.3993C101 31.1857 101.754 27 106.729 27H107.271C112.396 27 113 31.226 113 33.3993V33.7214C113 35.9349 112.396 40 107.241 40H106.729C101.784 40 101 35.9349 101 33.7214ZM109.683 33.4397C109.683 32.0309 109.171 30.1795 107.121 30.1795H106.94C104.799 30.1795 104.377 32.0309 104.377 33.4397C104.377 34.8081 104.799 36.7399 106.94 36.7399H107.121C109.141 36.7399 109.683 34.8081 109.683 33.4397Z" fill="#5C6A78"/>
</svg>
