<svg width="140" height="56" viewBox="0 0 140 56" fill="none" xmlns="http://www.w3.org/2000/svg">
<path d="M39.7636 30.6731L42.8542 29.812C42.9052 30.5063 43.2233 31.1518 43.7393 31.6081C44.3435 32.1195 45.1152 32.3792 45.8996 32.3351C46.4841 32.3691 47.0636 32.2078 47.5501 31.876C47.733 31.7518 47.8831 31.5836 47.9873 31.3865C48.0914 31.1894 48.1465 30.9692 48.1476 30.7453C48.1484 30.5596 48.1092 30.3761 48.0325 30.2078C47.9557 30.0394 47.8435 29.8903 47.7037 29.7712C47.3231 29.464 46.8682 29.267 46.3868 29.2006L44.1678 28.6927C43.0266 28.4784 41.9828 27.8974 41.189 27.0351C40.5025 26.2518 40.1305 25.234 40.1469 24.184C40.1463 23.5286 40.2896 22.8813 40.566 22.2895C40.8424 21.6976 41.2451 21.1762 41.7446 20.7633C42.8259 19.8055 44.2207 19.2961 45.6529 19.3361C46.3805 19.3277 47.1055 19.43 47.8036 19.6396C48.3646 19.801 48.896 20.0538 49.3775 20.3884C49.7739 20.679 50.1248 21.0288 50.4188 21.426C50.6783 21.765 50.8945 22.1362 51.0623 22.5307C51.195 22.8564 51.2893 23.1972 51.3431 23.5456L48.4062 24.4066C48.3735 24.1594 48.3027 23.919 48.1963 23.6944C48.0742 23.4364 47.9183 23.1964 47.7329 22.9812C47.503 22.7226 47.2155 22.5242 46.8946 22.4028C46.4987 22.2475 46.0771 22.1718 45.6529 22.1801C45.0941 22.1593 44.5463 22.3414 44.1071 22.6942C43.9187 22.8357 43.7651 23.0199 43.6584 23.2322C43.5517 23.4446 43.495 23.6793 43.4926 23.9179C43.4904 24.1065 43.5261 24.2937 43.5974 24.4677C43.6687 24.6418 43.7742 24.7993 43.9074 24.9302C44.213 25.2269 44.6 25.4216 45.017 25.4886L47.2778 25.9627C48.4577 26.1599 49.5491 26.7236 50.4025 27.5768C51.1156 28.3303 51.5063 29.3412 51.489 30.3878C51.4889 31.0183 51.3686 31.6428 51.1348 32.2265C50.8924 32.8295 50.5474 33.3842 50.1157 33.865C49.626 34.3952 49.0258 34.8066 48.3593 35.0688C47.5845 35.3831 46.7565 35.5388 45.9225 35.527C44.9852 35.5421 44.0537 35.3749 43.1777 35.0348C42.4542 34.7649 41.8 34.3317 41.2641 33.7677C40.8354 33.3053 40.4764 32.7806 40.1989 32.2108C39.9676 31.7278 39.8202 31.2075 39.7636 30.6731Z" fill="#5C6A78"/>
<path d="M51.4985 23.008V19.8126H52.2666C52.584 19.8359 52.9027 19.7888 53.2006 19.6747C53.4985 19.5606 53.7686 19.3821 53.9924 19.1515C54.3971 18.6685 54.6061 18.0465 54.577 17.4121V15.1039H57.8033V19.8126H60.9083V23.008H57.8033V30.119C57.7792 30.3827 57.8072 30.6489 57.8859 30.9014C57.9644 31.1541 58.092 31.3881 58.2608 31.5896C58.6677 31.928 59.1885 32.091 59.7118 32.0436C60.1247 32.0445 60.5367 32.0031 60.9416 31.9201V34.9051C60.2379 35.1598 59.4924 35.2732 58.7464 35.2391C58.146 35.2728 57.545 35.183 56.9792 34.9749C56.4135 34.7669 55.8947 34.445 55.4536 34.0284C55.0399 33.5846 54.7197 33.0591 54.5129 32.4844C54.3061 31.9097 54.217 31.2979 54.2511 30.6868V23.008H51.4985Z" fill="#5C6A78"/>
<path d="M61.7919 30.9658C61.7662 30.3808 61.864 29.797 62.0788 29.254C62.2937 28.711 62.6205 28.2213 63.0372 27.8182C63.9528 26.9934 65.0946 26.4746 66.3087 26.3318L70.1494 25.7351C70.8891 25.6401 71.259 25.2971 71.259 24.7062C71.2664 24.4076 71.2066 24.1113 71.0841 23.8398C70.9616 23.5684 70.7796 23.3293 70.5523 23.1407C69.9373 22.6905 69.1865 22.4749 68.4313 22.5319C67.6419 22.4906 66.8676 22.7641 66.2728 23.2947C65.7364 23.8017 65.4063 24.4953 65.3476 25.2385L62.1043 24.5053C62.1719 23.7963 62.376 23.1078 62.7051 22.4794C63.0342 21.8509 63.4818 21.2947 64.0222 20.8429C65.2439 19.8092 66.7977 19.2726 68.3843 19.3364C69.3894 19.3178 70.3899 19.4776 71.3409 19.8088C72.1062 20.0692 72.798 20.5151 73.3569 21.1082C73.8436 21.6444 74.2177 22.2762 74.4562 22.965C74.6996 23.6865 74.8203 24.4452 74.8129 25.2081V32.6087C74.8006 33.4281 74.8657 34.2468 75.0076 35.0535H71.6379C71.493 34.4173 71.4357 33.7636 71.4672 33.1114C71.0181 33.8212 70.4062 34.409 69.6843 34.8239C68.8194 35.3156 67.8397 35.5588 66.8498 35.5275C65.5041 35.588 64.1893 35.1059 63.19 34.1855C62.7453 33.7813 62.3906 33.2849 62.1494 32.7296C61.9083 32.1743 61.7864 31.573 61.7919 30.9658ZM65.3476 30.7048C65.3432 30.9658 65.3923 31.2247 65.4919 31.4652C65.5917 31.7056 65.7396 31.9221 65.9263 32.1008C66.1432 32.2992 66.3965 32.452 66.6716 32.5501C66.9467 32.6484 67.2382 32.6901 67.5292 32.673C68.0128 32.6786 68.4943 32.6089 68.9571 32.466C69.3868 32.3294 69.7876 32.1117 70.1383 31.8241C70.5172 31.5001 70.8031 31.0775 70.9653 30.6013C71.1733 30 71.2728 29.3654 71.259 28.728V28.0399L67.3593 28.6488C66.8197 28.7201 66.3123 28.9508 65.8998 29.3124C65.7147 29.4896 65.5694 29.7056 65.4741 29.9455C65.3789 30.1855 65.3356 30.4436 65.3476 30.7021V30.7048Z" fill="#5C6A78"/>
<path d="M77.2173 35.0559V19.8129H80.6538V21.7124C81.0791 20.9556 81.7248 20.3523 82.5013 19.986C83.2985 19.5816 84.1775 19.3708 85.068 19.3703C86.0204 19.3526 86.9607 19.585 87.7991 20.0451C88.5909 20.4844 89.2205 21.1747 89.5908 22.0115C90.0827 21.1602 90.7957 20.4632 91.6503 19.9973C92.5048 19.5313 93.4687 19.3143 94.4365 19.3703C95.0952 19.3652 95.7501 19.4816 96.3682 19.7138C96.9756 19.9459 97.5333 20.2936 98.0138 20.7383C98.5424 21.2433 98.9456 21.8694 99.1889 22.5648C99.4903 23.3965 99.6364 24.278 99.6219 25.1643V35.0559H96.2772V25.715C96.3177 24.8885 96.0629 24.0748 95.5588 23.4257C95.2864 23.1269 94.9506 22.8944 94.578 22.7452C94.2047 22.5963 93.8031 22.5346 93.4037 22.5648C92.9837 22.5501 92.5652 22.63 92.1789 22.7985C91.7918 22.9672 91.4468 23.2206 91.1675 23.5406C90.5876 24.2052 90.2786 25.0712 90.3061 25.9602V35.0559H86.7503V25.715C86.7885 24.8923 86.5368 24.083 86.0396 23.4336C85.7672 23.131 85.4314 22.8955 85.0565 22.7448C84.6816 22.5941 84.2792 22.5323 83.8776 22.5639C83.4553 22.5463 83.0361 22.6228 82.6467 22.788C82.258 22.9533 81.9092 23.2033 81.6246 23.5206C81.047 24.1945 80.744 25.0685 80.7785 25.9628V35.0584L77.2173 35.0559Z" fill="#5C6A78"/>
<path d="M102.183 41.0055V19.8126H105.65V21.8548C106.086 21.1119 106.727 20.5146 107.491 20.1353C108.39 19.6717 109.386 19.4403 110.393 19.4613C111.347 19.4145 112.3 19.5902 113.178 19.9752C114.056 20.36 114.836 20.944 115.459 21.6825C116.735 23.3011 117.39 25.3367 117.303 27.4106C117.384 29.5102 116.697 31.5656 115.376 33.1788C114.747 33.9215 113.961 34.5103 113.078 34.9016C112.194 35.2931 111.235 35.4771 110.273 35.44C109.33 35.4585 108.396 35.2568 107.541 34.8504C106.822 34.5185 106.2 34.0015 105.737 33.3501V41.0037L102.183 41.0055ZM105.709 27.4133C105.65 28.681 106.05 29.9267 106.832 30.914C107.185 31.3436 107.626 31.6866 108.127 31.9172C108.628 32.1476 109.173 32.2595 109.722 32.2447C110.273 32.2606 110.819 32.15 111.321 31.9208C111.824 31.6919 112.269 31.3503 112.624 30.9218C113.409 29.9328 113.809 28.6837 113.747 27.4133C113.805 26.1636 113.408 24.9362 112.632 23.9673C112.273 23.5414 111.825 23.2031 111.321 22.9774C110.817 22.7515 110.27 22.644 109.719 22.6627C109.172 22.6473 108.627 22.7575 108.127 22.9852C107.626 23.2131 107.183 23.5526 106.829 23.9787C106.053 24.9423 105.653 26.1649 105.709 27.4106V27.4133Z" fill="#5C6A78"/>
<path d="M117.563 30.6731L120.653 29.812C120.704 30.5063 121.023 31.1518 121.538 31.6081C122.143 32.1196 122.915 32.3793 123.7 32.3351C124.284 32.3689 124.864 32.2077 125.35 31.876C125.533 31.7518 125.683 31.5836 125.787 31.3865C125.891 31.1894 125.946 30.9692 125.947 30.7453C125.949 30.5596 125.909 30.3761 125.832 30.2078C125.755 30.0394 125.643 29.8903 125.503 29.7712C125.123 29.464 124.668 29.2669 124.187 29.2006L121.968 28.6927C120.828 28.4785 119.783 27.8976 118.991 27.0351C118.304 26.2522 117.93 25.2341 117.947 24.184C117.947 23.5286 118.09 22.8813 118.367 22.2895C118.643 21.6976 119.046 21.1762 119.545 20.7633C120.627 19.8055 122.021 19.2961 123.453 19.3361C124.182 19.3277 124.906 19.43 125.604 19.6396C126.165 19.8008 126.697 20.0537 127.177 20.3884C127.574 20.6792 127.926 21.029 128.221 21.426C128.479 21.7652 128.695 22.1364 128.863 22.5307C128.995 22.8564 129.089 23.1972 129.143 23.5456L126.207 24.4066C126.174 24.1595 126.103 23.919 125.998 23.6944C125.875 23.4365 125.718 23.1966 125.533 22.9812C125.303 22.7226 125.016 22.5242 124.696 22.4028C124.299 22.2474 123.877 22.1717 123.453 22.1801C122.895 22.1593 122.348 22.3416 121.909 22.6942C121.72 22.8355 121.566 23.0197 121.46 23.2321C121.352 23.4444 121.295 23.6792 121.294 23.9179C121.291 24.1065 121.326 24.2937 121.398 24.4677C121.469 24.6418 121.574 24.7993 121.707 24.9302C122.014 25.2267 122.401 25.4214 122.817 25.4886L125.077 25.9627C126.258 26.1597 127.349 26.7235 128.203 27.5768C128.916 28.3306 129.306 29.3413 129.289 30.3878C129.289 31.0183 129.168 31.6429 128.935 32.2265C128.692 32.8297 128.347 33.3845 127.916 33.865C127.426 34.3953 126.826 34.8066 126.158 35.0688C125.385 35.3831 124.557 35.5387 123.723 35.527C122.786 35.5422 121.853 35.3751 120.978 35.0348C120.254 34.7647 119.6 34.3314 119.065 33.7677C118.636 33.3053 118.277 32.7806 117.999 32.2108C117.768 31.7277 117.621 31.2075 117.563 30.6731Z" fill="#5C6A78"/>
<path d="M13.9436 19.5348C13.9591 19.4932 13.9702 19.4501 13.9769 19.4061C14.0848 18.6239 14.4798 17.9125 15.0822 17.4153C15.5089 17.0688 16.0191 16.8455 16.5596 16.7691C16.5954 16.7637 16.6305 16.7546 16.6646 16.7421C16.7706 16.7309 16.8772 16.7254 16.9838 16.7256C17.7198 16.7213 18.4318 16.9913 18.9858 17.4852C19.5396 17.979 19.8971 18.6623 19.9906 19.4061C20.0006 19.524 20.054 19.6338 20.1402 19.7131C20.2263 19.7926 20.3388 19.8358 20.4549 19.834H20.5652C20.6814 19.8362 20.7941 19.7932 20.8803 19.7137C20.9666 19.6342 21.0198 19.5243 21.0295 19.4061C21.1189 18.6641 21.4724 17.9814 22.023 17.4873C22.5737 16.9931 23.283 16.7221 24.0167 16.7256C24.7526 16.7213 25.4646 16.9913 26.0186 17.4852C26.5725 17.979 26.93 18.6623 27.0235 19.4061C27.0334 19.524 27.0868 19.6338 27.173 19.7131C27.2591 19.7926 27.3716 19.8358 27.4878 19.834H27.5732C27.6894 19.8362 27.8022 19.7932 27.8884 19.7137C27.9746 19.6342 28.0279 19.5243 28.0375 19.4061C28.1304 18.6656 28.485 17.985 29.0349 17.4917C29.5847 16.9982 30.2921 16.7259 31.0248 16.7256C31.8163 16.7255 32.5765 17.0414 33.1422 17.6058C33.6971 18.1834 34.0075 18.9597 34.0068 19.768C34.0069 20.5147 33.7397 21.2359 33.2552 21.7963C32.7708 22.3567 32.1025 22.7178 31.3755 22.812C31.2596 22.8217 31.1517 22.876 31.0737 22.9639C30.9957 23.0519 30.9535 23.1667 30.9555 23.2852V23.3721C30.9538 23.4905 30.9962 23.6051 31.0742 23.693C31.1521 23.7807 31.2598 23.8351 31.3755 23.8452C32.1055 23.9402 32.7763 24.3042 33.261 24.8686C33.7459 25.4329 34.0111 26.1585 34.0068 26.9085C34.0102 27.6562 33.7441 28.3792 33.2591 28.9403C32.7742 29.5014 32.1038 29.8616 31.3755 29.9526C31.2596 29.9622 31.1517 30.0165 31.0737 30.1044C30.9957 30.1923 30.9535 30.3072 30.9555 30.4257V30.5387C30.954 30.6571 30.9965 30.7716 31.0743 30.8593C31.1523 30.9471 31.2599 31.0016 31.3755 31.0119C32.1055 31.1069 32.7763 31.4709 33.261 32.0352C33.7459 32.5995 34.0111 33.3251 34.0068 34.0751C34.0068 34.176 34.0018 34.2752 33.9924 34.3734C33.9765 34.4151 33.9651 34.4581 33.9583 34.5021C33.851 35.2844 33.4563 35.9961 32.8538 36.493C32.4268 36.8396 31.9162 37.0627 31.3755 37.1392C31.3402 37.1449 31.3054 37.1536 31.2714 37.1653C31.1651 37.1768 31.0582 37.1826 30.9513 37.1826C30.2154 37.187 29.5035 36.9168 28.9497 36.423C28.3959 35.9292 28.0387 35.246 27.9453 34.5021C27.9354 34.3842 27.882 34.2745 27.7958 34.195C27.7097 34.1156 27.5971 34.0725 27.4809 34.0742H27.37C27.2537 34.0721 27.1411 34.1152 27.0548 34.1946C26.9686 34.2741 26.9152 34.384 26.9057 34.5021C26.8164 35.2442 26.4629 35.9272 25.9123 36.4213C25.3616 36.9154 24.6521 37.1863 23.9185 37.1826C23.1825 37.1871 22.4705 36.9169 21.9166 36.4231C21.3626 35.9292 21.0052 35.246 20.9116 34.5021C20.9017 34.3842 20.8482 34.2745 20.7621 34.195C20.676 34.1156 20.5634 34.0725 20.4473 34.0742H20.362C20.2457 34.0721 20.133 34.1152 20.0468 34.1946C19.9606 34.2741 19.9072 34.384 19.8976 34.5021C19.805 35.2428 19.4505 35.9236 18.9007 36.4171C18.3507 36.9106 17.6431 37.1827 16.9104 37.1826C16.1171 37.1838 15.3549 36.8677 14.7877 36.3025C14.2332 35.7247 13.9231 34.9485 13.924 34.1403C13.924 33.3937 14.1909 32.6726 14.6752 32.1123C15.1595 31.5519 15.8276 31.1906 16.5545 31.0962C16.6706 31.0867 16.7787 31.0326 16.8568 30.9447C16.935 30.8567 16.9774 30.7418 16.9752 30.6231V30.5361C16.9767 30.4177 16.9342 30.3031 16.8561 30.2153C16.778 30.1275 16.6702 30.0731 16.5545 30.0631C15.8246 29.9679 15.1541 29.6038 14.6695 29.0395C14.1849 28.4752 13.9197 27.7496 13.924 26.9998C13.9204 26.2521 14.1864 25.5292 14.6712 24.968C15.1561 24.4069 15.8262 24.0466 16.5545 23.9557C16.6706 23.9462 16.7787 23.892 16.8568 23.8041C16.935 23.7162 16.9774 23.6012 16.9752 23.4826V23.3695C16.9767 23.2511 16.9342 23.1364 16.8561 23.0487C16.778 22.9608 16.6702 22.9064 16.5545 22.8964C15.8246 22.8013 15.1541 22.4371 14.6695 21.8728C14.1849 21.3085 13.9197 20.583 13.924 19.8332C13.924 19.7323 13.9291 19.6332 13.9385 19.5348H13.9436ZM16.5621 15.775C16.5252 15.7652 16.4876 15.7586 16.4495 15.755C15.4433 15.8979 14.527 16.4225 13.8839 17.224C13.3981 17.8137 13.0858 18.5312 12.9827 19.2939C12.9851 19.327 12.9902 19.3599 12.998 19.3922C12.9849 19.5237 12.9784 19.6558 12.9784 19.788C12.9845 20.5213 13.1823 21.2397 13.5515 21.8692C13.9207 22.4987 14.4479 23.0166 15.0788 23.3695C14.4478 23.7225 13.9205 24.2406 13.5513 24.8702C13.1822 25.4999 12.9843 26.2185 12.9784 26.952C12.9845 27.6853 13.1823 28.4037 13.5515 29.0332C13.9207 29.6628 14.4479 30.1807 15.0788 30.5335C14.444 30.882 13.9137 31.3989 13.5439 32.0297C13.1741 32.6603 12.9786 33.3812 12.9784 34.1159C12.9784 34.2299 12.9834 34.3421 12.9919 34.4543C12.9798 34.5061 12.9758 34.5596 12.9801 34.6126C13.0973 35.508 13.5017 36.3388 14.1305 36.9757C14.7555 37.6164 15.5708 38.0286 16.4495 38.1481C16.5019 38.1524 16.5546 38.1484 16.6057 38.1359C16.7149 38.1455 16.8259 38.1498 16.9377 38.1498C17.6585 38.1495 18.3659 37.9504 18.9848 37.5736C19.6035 37.1967 20.1107 36.6562 20.4524 36.0094C20.7986 36.6524 21.3067 37.1897 21.9245 37.5659C22.5424 37.9421 23.2475 38.1437 23.9671 38.1498C24.6869 38.1439 25.3922 37.9424 26.0102 37.5661C26.6281 37.1899 27.1364 36.6525 27.4827 36.0094C27.8289 36.6524 28.337 37.1897 28.9548 37.5659C29.5727 37.9421 30.2777 38.1437 30.9974 38.1498C31.1246 38.1498 31.2535 38.1437 31.3747 38.1316C31.4119 38.1415 31.4499 38.1479 31.4882 38.1507C32.4927 38.0076 33.4072 37.4833 34.0486 36.6825C34.5347 36.093 34.8475 35.3754 34.9508 34.6126C34.9482 34.5795 34.9431 34.5466 34.9355 34.5144C34.9482 34.3839 34.9543 34.2535 34.9543 34.1186C34.9482 33.3853 34.7506 32.6669 34.3815 32.0374C34.0124 31.4079 33.4854 30.89 32.8546 30.537C33.4855 30.184 34.0126 29.6659 34.3818 29.0363C34.7508 28.4065 34.9484 27.688 34.9543 26.9546C34.9482 26.2213 34.7506 25.5029 34.3815 24.8734C34.0124 24.2439 33.4854 23.7259 32.8546 23.373C33.4892 23.0244 34.0195 22.5075 34.389 21.8767C34.7587 21.246 34.9539 20.5251 34.9543 19.7906C34.9543 19.6767 34.95 19.5635 34.9414 19.4522C34.9528 19.4003 34.9568 19.3471 34.9533 19.2939C34.8364 18.3982 34.4316 17.5672 33.802 16.9308C33.1776 16.2899 32.3625 15.8775 31.4839 15.7584C31.4315 15.7541 31.3787 15.7582 31.3277 15.7707C31.2185 15.7611 31.1075 15.7567 30.9957 15.7567C30.2748 15.757 29.5675 15.9561 28.9486 16.333C28.3299 16.7098 27.8227 17.2503 27.4809 17.8971C27.1348 17.254 26.6264 16.7166 26.0085 16.3404C25.3905 15.9641 24.6852 15.7627 23.9654 15.7567C23.2457 15.7628 22.5407 15.9644 21.9228 16.3406C21.305 16.7168 20.7969 17.2541 20.4507 17.8971C20.1045 17.254 19.5962 16.7166 18.9783 16.3404C18.3602 15.9641 17.6549 15.7627 16.9351 15.7567C16.808 15.7567 16.6791 15.7628 16.5579 15.775H16.5621Z" fill="#5C6A78"/>
<path d="M31.5108 38.914L31.4322 38.908C31.3998 38.908 31.3666 38.901 31.3341 38.8967C31.2232 38.9045 31.1105 38.9088 30.9987 38.9088C30.1328 38.9076 29.2842 38.6622 28.5465 38.2C28.1538 37.9552 27.7973 37.6546 27.4874 37.3076C27.0413 37.808 26.4983 38.2087 25.8927 38.4842C25.2869 38.7599 24.6317 38.9044 23.9684 38.9088C23.1025 38.9076 22.2539 38.6622 21.5163 38.2C21.1249 37.9555 20.7691 37.656 20.4597 37.3102C20.1528 37.6567 19.7987 37.9563 19.4081 38.2C18.6649 38.6636 17.8104 38.9088 16.9389 38.9088C16.84 38.9088 16.7402 38.9088 16.6411 38.8993C16.559 38.9097 16.4761 38.9114 16.3935 38.9045H16.351C15.8272 38.8329 15.3187 38.6734 14.8462 38.4322C14.3869 38.1972 13.9682 37.8881 13.6061 37.5165C13.2415 37.1477 12.9382 36.7209 12.7082 36.2527C12.4709 35.7715 12.3139 35.2532 12.244 34.7194V34.6759C12.2379 34.5917 12.2397 34.5073 12.2491 34.4236C12.243 34.3228 12.2405 34.221 12.2405 34.121C12.2401 33.233 12.4806 32.3623 12.9352 31.6047C13.1741 31.2062 13.4685 30.8449 13.8091 30.5325C13.4692 30.2175 13.175 29.855 12.9352 29.4557C12.482 28.704 12.2414 27.8393 12.2405 26.9569C12.2448 26.2811 12.3866 25.6134 12.6569 24.9962C12.9271 24.3791 13.3201 23.8256 13.8109 23.3711C13.4704 23.0552 13.1755 22.6919 12.9352 22.2917C12.482 21.54 12.2414 20.6752 12.2405 19.7929C12.2405 19.6721 12.2448 19.5502 12.2541 19.4294C12.2507 19.4051 12.2481 19.3807 12.2464 19.3563L12.2405 19.2763L12.2507 19.1962C12.3725 18.2933 12.742 17.4437 13.3168 16.7454C14.077 15.795 15.1624 15.1735 16.3543 15.0059L16.4329 14.9945L16.5122 15.0007C16.5447 15.0007 16.5771 15.0076 16.6096 15.012C16.7214 15.0042 16.834 14.9997 16.945 14.9997C17.8111 15.0013 18.66 15.2466 19.3979 15.7087C19.7903 15.9536 20.1467 16.2541 20.4562 16.6009C20.9023 16.1007 21.4452 15.7 22.051 15.4244C22.6567 15.1488 23.312 15.0043 23.9752 14.9997C24.8414 15.0013 25.6902 15.2466 26.4282 15.7087C26.8197 15.9532 27.1754 16.2527 27.4848 16.5983C27.7917 16.252 28.1457 15.9524 28.5363 15.7087C29.2796 15.2451 30.134 14.9997 31.0055 14.9997C31.1046 14.9997 31.2044 14.9997 31.3025 15.0094C31.3849 14.9989 31.4682 14.9971 31.5509 15.0042H31.5927C32.1165 15.0756 32.625 15.2351 33.0975 15.4764C33.5571 15.7111 33.9762 16.0204 34.3384 16.3922C34.7035 16.7606 35.0068 17.1876 35.2363 17.6559C35.473 18.1373 35.6297 18.6556 35.6998 19.1893V19.2328C35.7058 19.3169 35.7039 19.4013 35.6937 19.485C35.6998 19.5859 35.7031 19.6868 35.7031 19.7877C35.7033 20.6757 35.4625 21.5465 35.0076 22.3038C34.769 22.7025 34.4749 23.0637 34.1344 23.3762C34.4743 23.6909 34.7683 24.0535 35.0076 24.453C35.4612 25.2045 35.7019 26.0694 35.7031 26.9517C35.6989 27.6277 35.5571 28.2954 35.2866 28.9126C35.0161 29.5298 34.623 30.0832 34.1318 30.5377C34.4725 30.853 34.7673 31.2161 35.0076 31.6161C35.4609 32.3681 35.7017 33.2331 35.7031 34.1157C35.7031 34.2367 35.6989 34.3584 35.6895 34.4785C35.6895 34.5028 35.6955 34.528 35.6972 34.5524L35.7031 34.6324L35.692 34.7124C35.5708 35.6152 35.2015 36.4649 34.627 37.1633C33.8665 38.1138 32.7807 38.7354 31.5884 38.9027L31.5108 38.914ZM28.6875 34.4123C28.7585 34.972 29.0285 35.4857 29.4463 35.8562C29.864 36.2268 30.4005 36.4285 30.9543 36.4231C31.0149 36.4231 31.0747 36.4232 31.1344 36.4162C31.1745 36.4057 31.2146 36.397 31.2556 36.3901H31.2778C31.6837 36.3321 32.0669 36.1642 32.3874 35.9039C32.8423 35.5292 33.1404 34.9922 33.2212 34.4018V34.3801C33.2296 34.3285 33.2407 34.2774 33.2545 34.2271C33.2545 34.1775 33.2596 34.127 33.2596 34.0775C33.2646 33.5129 33.0665 32.9661 32.7029 32.5403C32.3391 32.1145 31.8349 31.8393 31.2855 31.7665C30.9887 31.735 30.714 31.5921 30.5149 31.3656C30.3158 31.1391 30.2066 30.8452 30.2084 30.541V30.428C30.206 30.1303 30.3107 29.842 30.5027 29.6177C30.6947 29.3934 30.9607 29.2485 31.2504 29.2104H31.294C31.8384 29.1381 32.3381 28.8657 32.6996 28.4446C33.061 28.0235 33.2592 27.4824 33.2571 26.923C33.2621 26.3585 33.064 25.8116 32.7003 25.3859C32.3365 24.9601 31.8323 24.6848 31.2829 24.6121C30.9861 24.5806 30.7115 24.4377 30.5124 24.2111C30.3132 23.9847 30.204 23.6908 30.2058 23.3867V23.2998C30.2034 23.002 30.3081 22.7137 30.5001 22.4894C30.6921 22.265 30.9581 22.1202 31.2479 22.0821H31.2915C31.8334 22.004 32.3299 21.7301 32.6903 21.3102C33.0506 20.8903 33.2509 20.3524 33.2545 19.7946C33.2558 19.1873 33.024 18.6036 32.6084 18.1683C32.1813 17.7446 31.6084 17.5083 31.0124 17.5099C30.4633 17.5077 29.9324 17.7097 29.5192 18.0779C29.1059 18.4462 28.8387 18.9555 28.7675 19.5103V19.5546C28.7303 19.8499 28.5881 20.1209 28.3679 20.3166C28.1478 20.5123 27.8648 20.619 27.5727 20.6165H27.4874C27.1888 20.6185 26.9003 20.5071 26.678 20.3042C26.4556 20.1014 26.3151 19.8215 26.284 19.5189C26.2127 18.9591 25.9425 18.4453 25.5247 18.0746C25.1067 17.704 24.5702 17.5021 24.0162 17.5073C23.4672 17.5051 22.9364 17.707 22.523 18.0754C22.1097 18.4437 21.8425 18.9529 21.7715 19.5077V19.552C21.7342 19.8472 21.592 20.1183 21.3718 20.314C21.1516 20.5096 20.8687 20.6163 20.5766 20.6139H20.4665C20.168 20.6159 19.8795 20.5045 19.6571 20.3016C19.4347 20.0988 19.2941 19.8189 19.2631 19.5164C19.1917 18.9565 18.9216 18.4427 18.5038 18.072C18.0859 17.7014 17.5493 17.4995 16.9953 17.5046C16.9356 17.5046 16.875 17.5046 16.8151 17.5125C16.7759 17.523 16.735 17.5316 16.694 17.5386H16.6719C16.2659 17.5962 15.8826 17.7642 15.5623 18.0248C15.1068 18.399 14.8086 18.9362 14.7285 19.5268V19.5485C14.72 19.6001 14.7089 19.6512 14.6952 19.7016C14.6952 19.7512 14.6909 19.8017 14.6909 19.8512C14.6858 20.4156 14.8838 20.9623 15.2474 21.3881C15.6109 21.8138 16.1149 22.0892 16.6641 22.1621C16.9609 22.1936 17.2357 22.3365 17.4347 22.563C17.6339 22.7896 17.7431 23.0835 17.7413 23.3875V23.5006C17.7437 23.7982 17.6391 24.0864 17.4473 24.3107C17.2554 24.535 16.9896 24.68 16.7001 24.7182H16.6556C16.1112 24.7905 15.6113 25.0628 15.2498 25.4838C14.8884 25.9051 14.6903 26.4462 14.6926 27.0056C14.6874 27.57 14.8853 28.1166 15.2489 28.5423C15.6125 28.968 16.1167 29.2432 16.6658 29.3156C16.9627 29.3476 17.2373 29.4908 17.4363 29.7173C17.6353 29.944 17.7447 30.2379 17.743 30.542V30.6289C17.7453 30.9265 17.6408 31.2146 17.449 31.439C17.2571 31.6633 16.9913 31.8083 16.7017 31.8466H16.6574C16.1153 31.9246 15.6189 32.1985 15.2585 32.6184C14.8981 33.0383 14.6979 33.5761 14.6943 34.1341C14.6928 34.7411 14.9248 35.3246 15.3403 35.7595C15.7673 36.1835 16.3404 36.4199 16.9364 36.418C17.4838 36.4141 18.0115 36.2099 18.4235 35.8427C18.8356 35.4756 19.1044 34.9698 19.1811 34.4175V34.3949L19.1854 34.3722C19.223 34.0772 19.3652 33.8063 19.5853 33.6108C19.8055 33.4153 20.0883 33.3088 20.3802 33.3112H20.4656C20.7641 33.3094 21.0526 33.4207 21.2751 33.6236C21.4975 33.8264 21.638 34.1063 21.6691 34.4088C21.7405 34.9686 22.0106 35.4823 22.4285 35.8528C22.8463 36.2234 23.383 36.425 23.9368 36.4197C24.4859 36.422 25.0169 36.2201 25.4302 35.8517C25.8435 35.4834 26.1106 34.9741 26.1815 34.4193V34.3967L26.1858 34.375C26.2231 34.0796 26.3653 33.8085 26.5855 33.6129C26.8056 33.4172 27.0885 33.3105 27.3807 33.313H27.4916C27.7891 33.3131 28.0759 33.4256 28.2968 33.6285C28.5177 33.8317 28.6569 34.1109 28.6875 34.4123Z" fill="#5C6A78"/>
<path d="M23.979 29.9199C23.4399 29.9215 22.9058 29.8141 22.4077 29.6039C21.9096 29.3937 21.4574 29.0849 21.0772 28.6953C20.695 28.3079 20.3919 27.8471 20.1857 27.3394C19.9795 26.8319 19.874 26.2876 19.8754 25.7382C19.8754 25.492 19.9713 25.2559 20.1422 25.0817C20.3129 24.9075 20.5446 24.8095 20.7861 24.8094C21.0278 24.8095 21.2593 24.9075 21.4302 25.0817C21.6009 25.2559 21.6969 25.492 21.6969 25.7382C21.6977 26.3547 21.9385 26.9456 22.3663 27.3814C22.7941 27.8172 23.3742 28.0624 23.979 28.0631C24.584 28.0624 25.164 27.8172 25.5918 27.3814C26.0197 26.9456 26.2604 26.3547 26.2613 25.7382C26.2612 25.6163 26.2847 25.4955 26.3303 25.3829C26.3761 25.2702 26.4432 25.1677 26.5277 25.0814C26.6123 24.9952 26.7128 24.9267 26.8232 24.8801C26.9339 24.8334 27.0524 24.8094 27.1721 24.8094C27.4136 24.8095 27.6453 24.9075 27.816 25.0817C27.9868 25.2559 28.0827 25.492 28.0827 25.7382C28.0842 26.2876 27.9787 26.8318 27.7724 27.3394C27.5662 27.847 27.2631 28.3079 26.881 28.6953C26.5007 29.0849 26.0485 29.3936 25.5504 29.6039C25.0522 29.814 24.5183 29.9215 23.979 29.9199Z" fill="#5C6A78"/>
</svg>
