<svg width="134" height="72" viewBox="0 0 134 72" fill="none" xmlns="http://www.w3.org/2000/svg">
<path d="M29.6526 21.8068L27.3221 20L24.9916 21.8068L22.661 23.591L18 27.2045V30.7955L20.3305 32.6023V29.0113L27.3221 23.591L29.6526 25.3978V36.2158L32 38V27.2045V23.591L29.6526 21.8068Z" fill="#5C6A78"/>
<path d="M37 26.8244L34.6695 25L32.339 26.8243L34.6695 28.6488V39.5496L32.3389 41.3739L29.9916 39.5496L27.661 37.7252L25.3305 35.9236L23 37.7252L27.661 41.3739L29.9916 43.1755L32.3389 45L34.6695 43.1755L37 41.3739V26.8244Z" fill="#5C6A78"/>
<path d="M30 43.4828L27.6 45.3218L25.2 43.4828L22.8 41.6667L20.4 39.8276V36.1723L27.6 30.6551V27L25.2 28.839L22.8 30.6551L20.4 32.4943L18 34.3333V41.6667L20.4 43.4828L27.6 49L30 47.1609V43.4828Z" fill="#5C6A78"/>
<path d="M64.3189 39.4236V41.4549C64.3189 42.433 64.406 42.6963 64.5219 42.922V43.0348H60.5498C60.4919 42.922 60.4629 42.6586 60.4629 42.0192V40.7402C60.4629 38.7465 59.912 38.0318 58.2304 38.0318H54.2005V43.0725H50.3735V27.5365H59.2163C63.652 27.5365 64.2319 29.8687 64.2319 31.712V31.9C64.2319 33.9691 63.0432 35.1728 61.6226 35.549C63.2172 35.9628 64.3189 37.0912 64.3189 39.4236ZM58.6944 34.1571C59.941 34.1571 60.2309 33.4801 60.2309 32.69V32.6524C60.2309 31.9 59.912 31.223 58.6944 31.223H54.2005V34.1571H58.6944Z" fill="#5C6A78"/>
<path d="M69.6536 43.0346V27.5361H73.481V42.9969H69.6536V43.0346Z" fill="#5C6A78"/>
<path d="M78.6694 35.4733V34.9843C78.6694 31.6363 80.2071 27.348 86.0053 27.348H86.5569C92.2678 27.348 93.7466 30.5831 93.7466 32.9529V33.0282H89.7164C89.6001 32.652 89.1365 31.185 86.2662 31.185C83.4248 31.185 82.6139 33.1787 82.6139 35.1348V35.3981C82.6139 37.279 83.483 39.4985 86.3243 39.4985C89.021 39.4985 89.6001 37.8809 89.6874 37.3919H86.3534V34.5705H93.8338V43.1097H90.9917C90.9344 42.5831 90.7018 41.5674 90.4998 41.0407C90.1517 41.5297 88.8474 43.3355 85.889 43.3355H85.6281C80.2645 43.2602 78.6694 38.9718 78.6694 35.4733Z" fill="#5C6A78"/>
<path d="M99.371 43.0346V27.5361H103.198V42.9969H99.371V43.0346Z" fill="#5C6A78"/>
<path d="M115.491 27.5361C121.869 27.5361 123.29 31.486 123.29 34.7964V35.4358C123.29 38.8591 122.102 43.0346 115.491 43.0346H108.909V27.5361H115.491ZM115.143 39.3104C118.912 39.3104 119.289 36.9782 119.289 35.2854V35.1726C119.289 33.555 118.912 31.2603 115.143 31.2603H112.736V39.3104H115.143Z" fill="#5C6A78"/>
</svg>
