<svg width="140" height="56" viewBox="0 0 140 56" fill="none" xmlns="http://www.w3.org/2000/svg">
<path d="M36.0965 46.1408L40.7945 44.443C42.1409 43.9538 43.029 42.6876 43.029 41.2488C43.029 39.0905 41.0524 37.4791 38.9612 37.9395L34.0626 38.9754C32.3437 39.3495 31.1119 40.8747 31.1119 42.6301C31.0832 45.2199 33.6614 47.0041 36.0965 46.1408Z" fill="#5C6A78"/>
<path d="M40.9091 11.8391L36.1537 9.91107C33.7186 8.93268 31.0831 10.7168 31.0831 13.3356C31.0831 15.0333 32.229 16.5009 33.8619 16.9325L38.8465 18.1988C40.9664 18.7455 43.0003 17.134 43.0003 14.947C43.0289 13.5945 42.1981 12.3571 40.9091 11.8391Z" fill="#5C6A78"/>
<path d="M20.6557 21.8822C20.6557 24.5871 22.7755 26.8029 25.4684 26.8893L46.5524 27.6375C48.2426 27.695 49.6464 26.3426 49.6464 24.6447C49.6464 23.2634 48.7009 22.026 47.326 21.7382L26.786 16.9902C23.635 16.2419 20.6557 18.6304 20.6557 21.8822Z" fill="#5C6A78"/>
<path d="M43.0288 32.3856V32.6445C43.0288 34.3136 41.8257 35.7236 40.1929 35.9827L35.4374 36.7884C33.1743 37.1625 31.1118 35.4071 31.1118 33.1049V32.846C31.1118 30.8028 32.7447 29.1338 34.7786 29.1051L39.5912 29.0187C41.4819 28.9612 43.0288 30.5151 43.0288 32.3856Z" fill="#5C6A78"/>
<path d="M68.6966 21.9109H71.418V25.1627H68.6966V30.8604C68.6966 32.0403 69.2409 32.4431 70.3008 32.4431C70.7305 32.4431 71.2461 32.3856 71.418 32.3281V35.3783C71.0743 35.5222 70.4153 35.7237 69.3555 35.7237C66.72 35.7237 65.0584 34.141 65.0584 31.5224V25.1914H62.6234V21.9109H63.3109C64.7433 21.9109 65.4021 20.9614 65.4021 19.7527V17.8535H68.6966V21.9109Z" fill="#5C6A78"/>
<path d="M85.9416 28.7021C85.9416 32.8748 82.8769 35.925 78.8376 35.925C74.7983 35.925 71.7332 32.8748 71.7332 28.7021C71.7332 24.5008 74.7983 21.4792 78.8376 21.4792C82.8769 21.4792 85.9416 24.5008 85.9416 28.7021ZM82.2756 28.7021C82.2756 26.141 80.6132 24.8173 78.8376 24.8173C77.0612 24.8173 75.3999 26.1122 75.3999 28.7021C75.3999 31.2345 77.0612 32.5582 78.8376 32.5582C80.6132 32.5582 82.2756 31.2633 82.2756 28.7021Z" fill="#5C6A78"/>
<path d="M98.3465 21.9109L101.267 30.6877L103.761 21.9109H107.398L103.159 35.5221H99.4918L96.3406 26.2274L93.2186 35.5221H89.4936L85.1689 21.9109H89.0079L91.4995 30.6589L94.4495 21.9109H98.3465Z" fill="#5C6A78"/>
<path d="M111.208 27.6662L114.531 27.177C115.305 27.0619 115.563 26.6878 115.563 26.1986C115.563 25.2201 114.818 24.4432 113.271 24.4432C111.666 24.4432 110.807 25.4792 110.693 26.659L107.456 25.9684C107.685 23.8389 109.633 21.4792 113.271 21.4792C117.568 21.4792 119.172 23.9252 119.172 26.659V33.3352C119.172 34.0545 119.259 35.033 119.344 35.4934H115.993C115.907 35.1481 115.849 34.3999 115.849 33.8532C115.162 34.9178 113.872 35.8675 111.868 35.8675C108.974 35.8675 107.227 33.9107 107.227 31.7812C107.169 29.364 108.945 28.0115 111.208 27.6662ZM115.563 29.9971V29.3928L112.497 29.8532C111.552 29.9971 110.807 30.515 110.807 31.5798C110.807 32.3855 111.38 33.1625 112.555 33.1625C114.131 33.1625 115.563 32.4143 115.563 29.9971Z" fill="#5C6A78"/>
</svg>
