<svg width="140" height="56" viewBox="0 0 140 56" fill="none" xmlns="http://www.w3.org/2000/svg">
<path d="M14.4122 36.1847C14.5202 36.1847 14.5897 36.0849 14.6205 35.885C14.6669 35.6853 14.5973 35.324 14.4122 34.8015C14.3505 34.6016 14.2116 34.2481 13.9956 33.7408C13.795 33.2336 13.5558 32.6495 13.2781 31.9886C13.0004 31.3278 12.715 30.6591 12.4218 29.9828C12.1441 29.3065 11.8894 28.684 11.658 28.1153C11.4266 27.5466 11.2492 27.1162 11.1257 26.8241C10.9251 26.3016 10.7092 25.9327 10.4777 25.7175C10.2617 25.5023 10.0843 25.3947 9.94535 25.3947H14.6669C14.5742 25.3947 14.5126 25.5023 14.4817 25.7175C14.4508 25.9327 14.5126 26.3016 14.6669 26.8241C14.744 27.1008 14.8674 27.5081 15.0371 28.0461C15.2223 28.5841 15.4229 29.1911 15.6388 29.8675C15.8703 30.5439 16.1018 31.2355 16.3333 31.9426C16.5801 32.6495 16.8038 33.3028 17.0044 33.9022H17.0275C17.1974 33.2875 17.3824 32.6265 17.5831 31.9195C17.7836 31.197 17.9765 30.4977 18.1616 29.8214C18.3467 29.1297 18.5088 28.5149 18.6477 27.977C18.802 27.439 18.91 27.0393 18.9717 26.7781C19.1105 26.2555 19.1645 25.8942 19.1337 25.6945C19.1028 25.4946 19.0488 25.3947 18.9717 25.3947H24.1098C24.0172 25.3947 23.9555 25.5023 23.9246 25.7175C23.8937 25.9327 23.9555 26.3016 24.1098 26.8241C24.1869 27.1008 24.3026 27.5081 24.4569 28.0461C24.6112 28.5841 24.7809 29.1911 24.9661 29.8675C25.1513 30.5439 25.3441 31.2355 25.5447 31.9426C25.7453 32.6495 25.9228 33.3028 26.077 33.9022H26.1002C26.3316 33.2875 26.5709 32.6265 26.8176 31.9195C27.08 31.197 27.3346 30.4977 27.5815 29.8214C27.8283 29.1297 28.0443 28.5149 28.2295 27.977C28.4146 27.439 28.538 27.0393 28.5998 26.7781C28.7386 26.2863 28.7927 25.9327 28.7617 25.7175C28.7309 25.5023 28.677 25.3947 28.5998 25.3947H33.2056C33.0975 25.3947 32.9431 25.4946 32.7426 25.6945C32.5421 25.8942 32.3338 26.2478 32.1177 26.7551C32.0097 27.0317 31.8323 27.439 31.5854 27.977C31.3386 28.5149 31.0684 29.1144 30.7754 29.7752C30.4823 30.4361 30.189 31.0972 29.8959 31.7581C29.6027 32.4189 29.3404 33.0184 29.109 33.5565C28.8929 34.0944 28.7386 34.5094 28.6461 34.8015C28.4918 35.2933 28.43 35.6468 28.4609 35.862C28.4918 36.0772 28.5534 36.1847 28.6461 36.1847H23.4849C23.5774 36.1847 23.6391 36.0772 23.67 35.862C23.7009 35.6468 23.6391 35.2933 23.4849 34.8015C23.4386 34.6631 23.346 34.348 23.2072 33.8561C23.0836 33.3643 22.9293 32.7725 22.7442 32.0808C22.5591 31.3738 22.3662 30.6436 22.1657 29.8906C21.9651 29.1374 21.7722 28.4227 21.587 27.7465H21.5176C21.3325 28.392 21.1395 29.0836 20.9389 29.8214C20.7384 30.5439 20.5455 31.2508 20.3604 31.9426C20.1752 32.6188 20.0054 33.2183 19.8512 33.7408C19.7123 34.2481 19.6197 34.6016 19.5735 34.8015C19.4346 35.3087 19.3805 35.6698 19.4114 35.885C19.4423 36.0849 19.4963 36.1847 19.5735 36.1847H14.4122ZM38.3454 36.4153C36.7253 36.4153 35.4523 36.1924 34.5265 35.7467C33.6162 35.3009 32.9759 34.6631 32.6056 33.8331C32.2353 32.9877 32.0501 31.981 32.0501 30.8128C32.0501 29.0759 32.5361 27.7002 33.5082 26.6858C34.4803 25.6714 35.9693 25.1642 37.9751 25.1642C39.1477 25.1642 40.0966 25.3255 40.8219 25.6483C41.5625 25.9711 42.1257 26.4015 42.5113 26.9395C42.8971 27.4774 43.1594 28.0769 43.2983 28.7378C43.4526 29.3833 43.5298 30.0366 43.5298 30.6975V31.7811C43.5298 31.735 43.3137 31.6889 42.8817 31.6427C42.4651 31.5813 41.7554 31.5506 40.7524 31.5506H35.3829C35.3829 32.3959 35.6375 33.0339 36.1467 33.4642C36.6712 33.8792 37.5199 34.0867 38.6926 34.0867C39.6801 34.0867 40.5595 33.9715 41.3311 33.7408C42.1179 33.4949 42.6888 33.2644 43.0437 33.0492V33.7408L43.2751 35.4931C42.9821 35.6929 42.4189 35.9004 41.5856 36.1156C40.7524 36.3154 39.6724 36.4153 38.3454 36.4153ZM36.2392 29.5678H40.2432C40.2432 29.2297 40.1661 28.8992 40.0118 28.5764C39.8729 28.2536 39.6415 27.9923 39.3174 27.7925C38.9934 27.5773 38.5459 27.4697 37.9751 27.4697C37.1265 27.4697 36.517 27.6465 36.1467 28.0001C35.7764 28.3535 35.5912 28.7224 35.5912 29.1067C35.5912 29.2604 35.6375 29.3756 35.7301 29.4525C35.8226 29.5294 35.9924 29.5678 36.2392 29.5678ZM49.117 36.4153C48.0523 36.4153 47.2808 36.1924 46.8025 35.7467C46.3242 35.2856 46.0849 34.5401 46.0849 33.5103V27.7002H44.002V25.3947C44.7119 25.3947 45.2673 25.3102 45.6684 25.1411C46.0696 24.9566 46.3551 24.6415 46.5247 24.1958C46.6945 23.7501 46.7793 23.1276 46.7793 22.3283H49.3715V25.3947H53.3292C53.2212 25.7021 53.1132 26.0864 53.0051 26.5475C52.9126 26.9933 52.8664 27.3776 52.8664 27.7002H49.3715V32.2422C49.3715 32.9493 49.4255 33.4334 49.5335 33.6947C49.6416 33.9561 49.8962 34.0867 50.2973 34.0867C50.5597 34.0867 50.8451 33.9945 51.1535 33.8101C51.4776 33.6256 51.7863 33.4028 52.0794 33.1414C52.388 32.8647 52.6427 32.6035 52.8432 32.3575V33.0722L53.0746 35.3087C52.7968 35.5546 52.3108 35.8005 51.6165 36.0465C50.9221 36.2923 50.0889 36.4153 49.117 36.4153ZM53.6444 36.1847C53.7525 36.1847 53.8526 36.0772 53.9452 35.862C54.0533 35.6468 54.1072 35.2933 54.1072 34.8015V27.0086C54.1072 26.5168 54.0533 26.1709 53.9452 25.9711C53.8526 25.7559 53.7525 25.6406 53.6444 25.6253C54.3233 25.6253 55.0177 25.5791 55.7273 25.4869C56.4371 25.3794 56.9926 25.2717 57.3938 25.1642V26.0864L57.3475 26.4783L57.3938 26.5245C57.5019 26.3553 57.6715 26.1709 57.9029 25.9711C58.1499 25.7559 58.4584 25.5715 58.8288 25.4177C59.2146 25.2487 59.662 25.1642 60.1711 25.1642C60.9272 25.1642 61.5984 25.2717 62.1846 25.4869C62.771 25.6868 63.1877 25.8942 63.4345 26.1095L62.7402 29.1989V29.8906C62.5086 29.5678 62.1924 29.2373 61.7912 28.8992C61.4055 28.561 60.9735 28.2767 60.4951 28.0461C60.0322 27.8155 59.5539 27.7002 59.0602 27.7002C58.5047 27.7002 58.0881 27.9002 57.8104 28.2997C57.5327 28.6994 57.3938 29.3295 57.3938 30.1903V34.8015C57.3938 35.2933 57.44 35.6468 57.5327 35.862C57.6407 36.0772 57.7487 36.1847 57.8566 36.1847H53.6444ZM67.7632 36.4153C66.3746 36.4153 65.2636 36.1464 64.4305 35.6083C63.6126 35.0551 63.2039 34.1712 63.2039 32.957C63.2039 32.1116 63.4198 31.4275 63.8519 30.905C64.2839 30.3824 64.8703 29.9981 65.6108 29.7522C66.3669 29.4909 67.2233 29.3603 68.1798 29.3603C69.2445 29.3603 70.0777 29.4833 70.6794 29.7292C71.2812 29.9751 71.6592 30.1442 71.8136 30.2365C71.8136 29.2834 71.6438 28.5841 71.3044 28.1383C70.9649 27.6926 70.3092 27.4697 69.3371 27.4697C68.3958 27.4697 67.5626 27.562 66.8375 27.7465C66.1122 27.9308 65.5183 28.146 65.0553 28.392C64.6079 28.6379 64.2993 28.8453 64.1296 29.0145V28.3228L63.8981 26.0633C64.0061 26.0019 64.2916 25.902 64.7545 25.7636C65.2174 25.6253 65.85 25.4946 66.6523 25.3717C67.4547 25.2333 68.4113 25.1642 69.5222 25.1642C71.0498 25.1642 72.2147 25.387 73.0171 25.8327C73.8193 26.2631 74.3671 26.8856 74.6603 27.7002C74.9689 28.5149 75.1232 29.4986 75.1232 30.6514V34.8015C75.1232 35.2318 75.1695 35.5469 75.262 35.7467C75.37 35.9312 75.478 36.0772 75.5861 36.1847H71.8367V35.7006L71.883 35.2625L71.8367 35.2165C71.5898 35.4777 71.1192 35.7467 70.4249 36.0234C69.7459 36.2847 68.8587 36.4153 67.7632 36.4153ZM68.8511 34.0867C69.8076 34.0867 70.5406 33.9791 71.0498 33.7639C71.5744 33.5334 71.8367 33.2413 71.8367 32.8877C71.8367 32.5343 71.5666 32.2422 71.0267 32.0117C70.5019 31.7811 69.7845 31.6658 68.8743 31.6658C67.9948 31.6658 67.3698 31.7889 66.9996 32.0347C66.6446 32.2806 66.4672 32.5881 66.4672 32.957C66.4672 33.4181 66.6755 33.7255 67.0921 33.8792C67.5087 34.0175 68.0949 34.0867 68.8511 34.0867ZM76.5647 36.1847C76.6726 36.1847 76.7728 36.0772 76.8654 35.862C76.9732 35.6468 77.0275 35.2933 77.0275 34.8015V27.0086C77.0275 26.5168 76.9732 26.1709 76.8654 25.9711C76.7728 25.7559 76.6726 25.6406 76.5647 25.6253C77.2433 25.6253 77.9379 25.5791 78.6479 25.4869C79.3571 25.3794 79.9132 25.2717 80.3141 25.1642V26.5705L80.2682 26.8703L80.3141 26.9164C80.36 26.8088 80.5069 26.6167 80.754 26.34C81.0011 26.0633 81.3553 25.802 81.8181 25.5561C82.281 25.2948 82.8525 25.1642 83.531 25.1642C84.9662 25.1642 86.0617 25.5715 86.8176 26.3861C87.5887 27.2008 87.9751 28.4764 87.9751 30.2133V34.8015C87.9751 35.2933 88.021 35.6468 88.1136 35.862C88.2222 36.0772 88.3301 36.1847 88.4379 36.1847H84.2257C84.3336 36.1847 84.4338 36.0772 84.5263 35.862C84.6342 35.6468 84.6885 35.2933 84.6885 34.8015V30.2825C84.6885 29.1911 84.5187 28.4534 84.179 28.0691C83.8393 27.6695 83.4071 27.4697 82.8831 27.4697C82.219 27.4697 81.6254 27.708 81.1013 28.1845C80.5765 28.6456 80.3141 29.4141 80.3141 30.4901V34.8015C80.3141 35.2933 80.36 35.6468 80.4533 35.862C80.5612 36.0772 80.6691 36.1847 80.7769 36.1847H76.5647ZM95.213 36.4153C93.8398 36.4153 92.6823 36.3384 91.7413 36.1847C90.7996 36.0311 90.1516 35.8773 89.7974 35.7236V35.032L89.3108 32.7725C89.7125 33.0645 90.4607 33.3566 91.5554 33.6486C92.6517 33.9407 93.9936 34.0867 95.5833 34.0867C96.3078 34.0867 96.8096 34.0175 97.0873 33.8792C97.3803 33.7408 97.5272 33.5026 97.5272 33.1645C97.5272 32.9031 97.427 32.7033 97.2258 32.5651C97.0414 32.4267 96.7018 32.3192 96.2083 32.2422C95.7141 32.15 94.9965 32.0425 94.0555 31.9195C92.8674 31.7658 91.9264 31.5506 91.2318 31.2739C90.5372 30.9819 90.0437 30.613 89.7507 30.1672C89.473 29.7062 89.3345 29.1452 89.3345 28.4842C89.3345 27.8694 89.4807 27.3161 89.7737 26.8241C90.082 26.317 90.6075 25.9173 91.3473 25.6253C92.1039 25.3179 93.1528 25.1642 94.4946 25.1642C95.7608 25.1642 96.8708 25.241 97.8279 25.3947C98.7842 25.5484 99.4711 25.7021 99.8873 25.8558V26.5475L100.35 28.5764C99.9952 28.3458 99.3013 28.1076 98.2678 27.8617C97.2342 27.6158 95.923 27.4928 94.3332 27.4928C93.7158 27.4928 93.2767 27.5543 93.0136 27.6772C92.7519 27.8002 92.6203 28.0154 92.6203 28.3228C92.6203 28.5227 92.7052 28.6916 92.8759 28.83C93.0449 28.953 93.3769 29.0683 93.8704 29.1758C94.3799 29.2834 95.1357 29.4064 96.1379 29.5447C97.4499 29.7138 98.4376 29.952 99.1009 30.2595C99.7642 30.5514 100.212 30.9204 100.444 31.3661C100.675 31.7964 100.791 32.3192 100.791 32.934C100.791 34.1175 100.343 34.9936 99.4482 35.5622C98.5531 36.1309 97.1409 36.4153 95.213 36.4153ZM102.143 36.1847C102.251 36.1847 102.352 36.0772 102.444 35.862C102.552 35.6468 102.606 35.2933 102.606 34.8015V27.7002H100.523V25.3947H102.838L102.861 25.3486C102.814 25.2717 102.723 25.0181 102.583 24.5877C102.444 24.142 102.375 23.6194 102.375 23.02C102.375 21.8058 102.723 20.9296 103.416 20.3916C104.126 19.8537 105.09 19.5847 106.31 19.5847C107.297 19.5847 108.169 19.6385 108.925 19.7461C109.681 19.8383 110.229 19.9383 110.569 20.0458V20.7605L111.031 23.2736C110.753 23.0738 110.39 22.8739 109.944 22.6742C109.511 22.459 109.048 22.2822 108.555 22.1439C108.061 21.9902 107.567 21.9133 107.072 21.9133C106.58 21.9133 106.225 22.0286 106.008 22.2591C105.808 22.4897 105.708 22.8279 105.708 23.2736V24.7031C105.708 25.0412 105.738 25.241 105.8 25.3025C105.861 25.3639 106.07 25.3947 106.424 25.3947H109.897C109.789 25.5331 109.681 25.802 109.573 26.2016C109.48 26.5859 109.434 27.0855 109.434 27.7002H105.939V34.8015C105.939 35.2933 105.985 35.6468 106.078 35.862C106.186 36.0772 106.294 36.1847 106.402 36.1847H102.143ZM115.583 36.4153C113.962 36.4153 112.689 36.1924 111.764 35.7467C110.853 35.3009 110.213 34.6631 109.843 33.8331C109.473 32.9877 109.287 31.981 109.287 30.8128C109.287 29.0759 109.773 27.7002 110.745 26.6858C111.717 25.6714 113.206 25.1642 115.212 25.1642C116.384 25.1642 117.334 25.3255 118.059 25.6483C118.8 25.9711 119.363 26.4015 119.749 26.9395C120.134 27.4774 120.397 28.0769 120.535 28.7378C120.69 29.3833 120.767 30.0366 120.767 30.6975V31.7811C120.767 31.735 120.551 31.6889 120.119 31.6427C119.702 31.5813 118.993 31.5506 117.989 31.5506H112.62C112.62 32.3959 112.874 33.0339 113.384 33.4642C113.908 33.8792 114.758 34.0867 115.93 34.0867C116.918 34.0867 117.797 33.9715 118.568 33.7408C119.355 33.4949 119.926 33.2644 120.281 33.0492V33.7408L120.512 35.4931C120.219 35.6929 119.656 35.9004 118.823 36.1156C117.99 36.3154 116.91 36.4153 115.583 36.4153ZM113.477 29.5678H117.481C117.481 29.2297 117.403 28.8992 117.249 28.5764C117.11 28.2536 116.879 27.9923 116.555 27.7925C116.231 27.5773 115.783 27.4697 115.212 27.4697C114.364 27.4697 113.754 27.6465 113.384 28.0001C113.014 28.3535 112.829 28.7224 112.829 29.1067C112.829 29.2604 112.874 29.3756 112.967 29.4525C113.06 29.5294 113.229 29.5678 113.477 29.5678ZM121.795 36.1847C121.903 36.1847 122.003 36.0772 122.095 35.862C122.204 35.6468 122.257 35.2933 122.257 34.8015V27.0086C122.257 26.5168 122.204 26.1709 122.095 25.9711C122.003 25.7559 121.903 25.6406 121.795 25.6253C122.474 25.6253 123.168 25.5791 123.878 25.4869C124.588 25.3794 125.143 25.2717 125.544 25.1642V26.0864L125.497 26.4783L125.544 26.5245C125.653 26.3553 125.822 26.1709 126.053 25.9711C126.301 25.7559 126.608 25.5715 126.979 25.4177C127.365 25.2487 127.812 25.1642 128.321 25.1642C129.078 25.1642 129.749 25.2717 130.335 25.4869C130.921 25.6868 131.338 25.8942 131.585 26.1095L130.89 29.1989V29.8906C130.658 29.5678 130.342 29.2373 129.941 28.8992C129.556 28.561 129.124 28.2767 128.645 28.0461C128.182 27.8155 127.704 27.7002 127.21 27.7002C126.655 27.7002 126.238 27.9002 125.96 28.2997C125.683 28.6994 125.544 29.3295 125.544 30.1903V34.8015C125.544 35.2933 125.59 35.6468 125.683 35.862C125.791 36.0772 125.899 36.1847 126.007 36.1847H121.795Z" fill="#5C6A78"/>
</svg>
