<svg width="140" height="56" viewBox="0 0 140 56" fill="none" xmlns="http://www.w3.org/2000/svg">
<path d="M47.8535 37.326V37.4983H40.544V37.326C41.3654 37.1825 41.6889 36.9813 41.7767 36.3497V26.8162C41.7767 25.0634 41.1312 24.2019 39.8102 24.2019C39.3734 24.2105 38.9508 24.3541 38.6025 24.6121C38.2542 24.87 37.9981 25.2291 37.8709 25.638C37.9308 25.9701 37.9605 26.3066 37.9594 26.6438V35.6066C37.9594 36.6694 38.282 37.1005 39.2781 37.3297V37.5021H32.292V37.326C33.2896 37.0982 33.6107 36.6655 33.6107 35.6028V26.8124C33.6107 25.0596 32.935 24.198 31.6435 24.198C31.2329 24.2018 30.8337 24.3311 30.502 24.5682C30.1703 24.8052 29.9228 25.1379 29.7942 25.5196V35.6028C29.7942 36.6655 30.1169 37.0967 31.1129 37.326V37.4983H23.7159V37.326C24.8599 37.0679 25.4472 36.579 25.4472 35.4282V26.2704C25.4472 24.7476 25.0368 24.2876 23.7159 24.1729V24.0007L29.7919 22.3633V25.0634C30.0479 24.2395 30.5757 23.522 31.2928 23.023C32.0099 22.524 32.8758 22.2716 33.755 22.3055C35.9564 22.3055 37.3365 23.3971 37.7763 25.1788C38.0624 24.3245 38.6227 23.5833 39.3737 23.0657C40.1248 22.548 41.0267 22.2814 41.945 22.3055C44.6755 22.3055 46.1136 24.0294 46.1136 26.6438V35.4342C46.1214 36.5828 46.7085 37.0717 47.8535 37.326Z" fill="#5C6A78"/>
<path d="M63.3838 34.3715C62.885 36.7247 61.3289 37.9339 59.2725 37.9339C58.9019 37.9671 58.5281 37.9278 58.1731 37.8182C57.8182 37.7086 57.4891 37.531 57.2049 37.2958C56.9208 37.0605 56.6873 36.7723 56.5181 36.448C56.3488 36.1234 56.2473 35.7694 56.2192 35.4062L56.1611 35.1784C55.8928 36.0115 55.3496 36.734 54.6167 37.2326C53.8838 37.7313 53.0027 37.9779 52.1112 37.9339C51.607 37.9723 51.1001 37.9079 50.6227 37.7444C50.1453 37.581 49.7077 37.3223 49.3379 36.9847C48.9682 36.6472 48.674 36.238 48.4742 35.7834C48.2745 35.3286 48.1735 34.8383 48.1776 34.3434C48.1776 31.7867 50.2914 30.1205 53.6673 29.4305L56.1037 28.9424V28.3351C56.1037 26.1231 55.2815 24.601 52.8155 24.601C50.908 24.601 49.5575 25.4915 48.9114 27.7323L48.6787 27.6747C49.1441 24.3711 51.3789 22.3025 54.8433 22.3025C58.7473 22.3025 60.45 24.7445 60.45 28.4216V34.1954C60.45 35.2012 60.9488 35.7181 61.595 35.7181C62.1527 35.7181 62.7981 35.4024 63.1209 34.3396L63.3838 34.3715ZM56.1037 34.688V29.6597L54.9588 29.8609C52.6689 30.3209 52.2291 31.7283 52.2291 33.1357C52.2291 34.6007 52.9629 35.75 54.3716 35.75C54.7384 35.7772 55.1044 35.6888 55.416 35.4977C55.7278 35.3066 55.9687 35.0229 56.1037 34.688Z" fill="#5C6A78"/>
<path d="M79.3249 37.3267V37.499H71.9279V37.3267C72.8968 37.099 73.2466 36.6662 73.2466 35.6035V26.8457C73.2466 25.093 72.5717 24.2025 71.1918 24.2025C70.7239 24.1986 70.2653 24.3301 69.8735 24.5804C69.4818 24.8309 69.1746 25.1891 68.9902 25.6099V35.6073C68.9902 36.6701 69.313 37.1012 70.3091 37.3305V37.5028H62.9126V37.3267C64.0576 37.0686 64.6448 36.5797 64.6448 35.4289V26.2711C64.6448 24.7483 64.2336 24.2883 62.9126 24.1737V24.0014L68.9895 22.364V25.181C69.2872 24.3046 69.8712 23.5484 70.6513 23.0289C71.4316 22.5094 72.3648 22.2555 73.3071 22.3062C76.0997 22.3062 77.5929 23.9764 77.5929 26.6727V35.4349C77.5937 36.5835 78.1812 37.0724 79.3249 37.3267Z" fill="#5C6A78"/>
<path d="M89.3062 34.1127C88.6613 36.2094 87.0762 37.9334 84.5217 37.9334C82.0561 37.9334 80.881 36.4106 80.881 34.1705V23.3684H79.1796V23.2249C81.5183 21.9348 83.5494 20.1723 85.1384 18.0547H85.2562V22.7945H88.2206V23.3684H85.2523V33.5093C85.2523 34.8309 85.8108 35.7213 86.8964 35.7213C87.4013 35.7205 87.8902 35.5525 88.2841 35.2447C88.6789 34.9369 88.9551 34.5073 89.0683 34.0262L89.3062 34.1127Z" fill="#5C6A78"/>
<path d="M101.49 32.3034C100.756 36.4398 98.0849 37.9338 95.5313 37.9338C92.1254 37.9338 89.0148 35.3482 89.0148 30.4072C89.0148 25.6961 91.6862 22.3061 95.708 22.3061C98.5554 22.3061 101.491 24.0588 101.461 28.7987H92.4199C92.7137 32.4757 94.6515 34.5155 97.4989 34.5155C98.2953 34.5872 99.0948 34.405 99.7772 33.9959C100.46 33.5868 100.989 32.973 101.285 32.2458L101.49 32.3034ZM92.3893 27.7617V28.0775H97.4676C97.4974 24.4005 96.5289 23.1077 95.0631 23.1077C93.4175 23.1107 92.3893 24.8915 92.3893 27.7617Z" fill="#5C6A78"/>
<path d="M112.734 22.3061V26.4432H112.588C112.109 26.2368 111.585 26.148 111.061 26.1843C109.153 26.1843 107.891 27.1901 107.891 31.0107V35.4348C107.891 36.7252 108.625 37.1291 110.209 37.3326V37.5049H101.814V37.3265C102.959 37.0683 103.546 36.5795 103.546 35.4287V26.529C103.546 24.8915 103.106 24.3169 101.814 24.2023V24.03L107.714 22.3638V28.7987H107.862C108.095 24.1735 109.858 22.3061 112.412 22.3061H112.734Z" fill="#5C6A78"/>
<path d="M111.443 35.5205C111.453 34.8941 111.715 34.2966 112.17 33.8566C112.626 33.4165 113.239 33.1691 113.879 33.1673C114.515 33.1756 115.121 33.4261 115.57 33.8657C116.02 34.3052 116.276 34.899 116.284 35.5205C116.288 36.1485 116.036 36.7521 115.585 37.1991C115.135 37.6461 114.521 37.8999 113.879 37.9049C113.559 37.9056 113.242 37.8446 112.946 37.725C112.65 37.6055 112.381 37.4299 112.155 37.2082C111.928 36.9867 111.748 36.7236 111.627 36.4339C111.504 36.1443 111.442 35.8339 111.443 35.5205Z" fill="#5C6A78"/>
</svg>
