<svg width="56" height="56" viewBox="0 0 56 56" fill="none" xmlns="http://www.w3.org/2000/svg">
<rect width="56" height="56" rx="28" fill="#D2CCF9"/>
<path d="M38.1112 21.4972L38.1111 21.4971L37.394 19.9195L37.394 19.9194C36.8395 18.6997 35.6234 17.9166 34.2835 17.9166H21.7178C20.3779 17.9166 19.1618 18.6997 18.6073 19.9195C18.6073 19.9195 18.6073 19.9195 18.6073 19.9195L17.8902 21.4971L17.8902 21.4971C17.6884 21.9411 17.584 22.4232 17.584 22.9109V35.0002C17.584 36.8873 19.1137 38.4169 21.0007 38.4169H35.0006C36.8876 38.4169 38.4173 36.8872 38.4173 35.0002V22.9109C38.4173 22.4232 38.3129 21.9412 38.1112 21.4972Z" fill="#1D354F" stroke="#1D354F" stroke-width="1.5" stroke-linecap="round" stroke-linejoin="round"/>
<path d="M24.6673 22.3334C24.6673 23.9902 23.334 25.6667 21.334 25.6667C19.334 25.6667 18.334 23.9902 18.334 22.3334" stroke="#D2CCF9" stroke-width="1.5" stroke-linecap="round" stroke-linejoin="round"/>
<path d="M37.6673 22.3334C37.6673 23.9902 36.6673 25.6667 34.6673 25.6667C32.6673 25.6667 31.334 23.9902 31.334 22.3334" stroke="#D2CCF9" stroke-width="1.5" stroke-linecap="round" stroke-linejoin="round"/>
<path d="M31.3327 22.3334C31.3327 23.9902 29.9993 25.6667 27.9993 25.6667C25.9993 25.6667 24.666 23.9902 24.666 22.3334" stroke="#D2CCF9" stroke-width="1.5" stroke-linecap="round" stroke-linejoin="round"/>
<path d="M25 32.9991C25 31.5263 26.194 30.3324 27.6666 30.3324H28.3333C29.8061 30.3324 31 31.5263 31 32.9991V37.6657H25V32.9991Z" stroke="#D2CCF9" stroke-width="1.5" stroke-linecap="round" stroke-linejoin="round"/>
</svg>
