<svg width="48" height="49" viewBox="0 0 48 49" fill="none" xmlns="http://www.w3.org/2000/svg">
<path d="M38.5 12C38.5 10.8954 37.6046 10 36.5 10H28C25.7908 10 24 11.7909 24 14V39L25.6568 37.3432C27.1572 35.8428 29.192 35 31.3138 35H36.5C37.6046 35 38.5 34.1046 38.5 33V12Z" stroke="#7FBCE8" stroke-width="4" stroke-linecap="round" stroke-linejoin="round"/>
<path d="M9.5 12C9.5 10.8954 10.3954 10 11.5 10H20C22.2092 10 24 11.7909 24 14V39L22.3432 37.3432C20.8428 35.8428 18.808 35 16.6863 35H11.5C10.3954 35 9.5 34.1046 9.5 33V12Z" stroke="#7FBCE8" stroke-width="4" stroke-linecap="round" stroke-linejoin="round"/>
</svg>
