<svg width="48" height="49" viewBox="0 0 48 49" fill="none" xmlns="http://www.w3.org/2000/svg">
<path d="M11.5 14C11.5 11.7909 13.2909 10 15.5 10H32.5C34.7092 10 36.5 11.7909 36.5 14V39H11.5V14Z" stroke="#9D6AD5" stroke-width="4" stroke-linecap="round" stroke-linejoin="round"/>
<path d="M38.5 39H9.5" stroke="#9D6AD5" stroke-width="4" stroke-linecap="round" stroke-linejoin="round"/>
<path d="M19.5 32C19.5 29.7908 21.2908 28 23.5 28H24.5C26.7092 28 28.5 29.7908 28.5 32V39H19.5V32Z" stroke="#9D6AD5" stroke-width="4" stroke-linecap="round" stroke-linejoin="round"/>
<path d="M20 22.5C21.1046 22.5 22 21.6046 22 20.5C22 19.3954 21.1046 18.5 20 18.5C18.8954 18.5 18 19.3954 18 20.5C18 21.6046 18.8954 22.5 20 22.5Z" fill="#9D6AD5"/>
<path d="M28 22.5C29.1046 22.5 30 21.6046 30 20.5C30 19.3954 29.1046 18.5 28 18.5C26.8954 18.5 26 19.3954 26 20.5C26 21.6046 26.8954 22.5 28 22.5Z" fill="#9D6AD5"/>
</svg>
