<svg width="134" height="40" viewBox="0 0 134 40" fill="none" xmlns="http://www.w3.org/2000/svg">
<rect width="40" height="40" rx="8" fill="#6A55EA"/>
<rect x="2.85547" y="2.85712" width="34.2857" height="34.2857" rx="6" fill="#7661F4"/>
<rect x="17.1445" y="8.57144" width="5.71429" height="22.8571" rx="1.42857" fill="white"/>
<rect x="31.4277" y="17.1429" width="5.71429" height="22.8571" rx="1.42857" transform="rotate(90 31.4277 17.1429)" fill="white"/>
<path d="M50.0028 30H61.0428V27.24H53.1948V13.2H50.0028V30ZM62.0523 12.72V16.008H65.2203V12.72H62.0523ZM62.1723 30H65.1243V17.904H62.1723V30ZM68.7819 30H71.7339V20.376H75.2619V17.904H71.7339V16.92C71.7339 15.864 72.4059 15.216 73.4379 15.216H75.2619V12.72H73.1019C70.4859 12.72 68.7819 14.328 68.7819 16.776V17.904H66.4059V20.376H68.7819V30ZM84.2825 25.968C83.9705 27.12 82.9865 27.744 81.4745 27.744C79.6025 27.744 78.3545 26.496 78.1385 24.552H87.0665C87.0905 24.312 87.1145 23.952 87.1145 23.544C87.1145 20.664 85.2905 17.712 81.2345 17.712C77.2745 17.712 75.3065 20.712 75.3065 23.904C75.3065 27.072 77.5145 30.192 81.4745 30.192C84.4505 30.192 86.7065 28.536 87.1625 25.968H84.2825ZM81.2345 19.92C82.9865 19.92 84.0425 21.072 84.1625 22.608H78.2105C78.5225 20.784 79.5785 19.92 81.2345 19.92ZM94.1658 30.192C97.2858 30.192 99.6378 28.296 100.022 25.656H97.0458C96.7578 26.856 95.6778 27.648 94.2858 27.648C92.2218 27.648 91.0938 26.064 91.0938 23.952C91.0938 21.84 92.1978 20.256 94.2378 20.256C95.6298 20.256 96.8058 21.12 97.0218 22.32H99.9498C99.6858 19.536 97.2138 17.712 94.1658 17.712C90.3978 17.712 88.0218 20.496 88.0218 23.952C88.0218 27.408 90.3978 30.192 94.1658 30.192ZM106.282 17.712C103.138 17.712 101.098 19.584 100.954 21.984H103.594C103.642 20.904 104.578 19.92 106.138 19.92C107.698 19.92 108.61 20.76 108.61 21.936C108.61 22.416 108.322 22.752 107.722 22.752H105.49C102.778 22.752 100.954 24.216 100.954 26.568C100.954 28.656 102.586 30.192 104.986 30.192C106.714 30.192 108.106 29.4 108.61 28.2V30H111.514V22.224C111.514 19.488 109.354 17.712 106.282 17.712ZM105.682 28.008C104.578 28.008 103.81 27.384 103.81 26.448C103.81 25.392 104.65 24.696 105.898 24.696H108.61V24.888C108.61 26.712 107.53 28.008 105.682 28.008ZM120.955 20.376V17.904H119.539C117.979 17.904 117.043 18.504 116.443 20.04V17.904H113.491V30H116.443V24.288C116.443 21.984 117.187 20.376 119.059 20.376H120.955ZM130.058 25.968C129.746 27.12 128.762 27.744 127.25 27.744C125.378 27.744 124.13 26.496 123.914 24.552H132.842C132.866 24.312 132.89 23.952 132.89 23.544C132.89 20.664 131.066 17.712 127.01 17.712C123.05 17.712 121.082 20.712 121.082 23.904C121.082 27.072 123.29 30.192 127.25 30.192C130.226 30.192 132.482 28.536 132.938 25.968H130.058ZM127.01 19.92C128.762 19.92 129.818 21.072 129.938 22.608H123.986C124.298 20.784 125.354 19.92 127.01 19.92Z" fill="#1D354F"/>
</svg>
