<svg width="126" height="32" viewBox="0 0 126 32" fill="none" xmlns="http://www.w3.org/2000/svg">
<path d="M0 12C0 5.37258 5.37258 0 12 0H20C26.6274 0 32 5.37258 32 12V20C32 26.6274 26.6274 32 20 32H12C5.37258 32 0 26.6274 0 20V12Z" fill="#6A55EA"/>
<rect x="2.28516" y="2.28564" width="27.4286" height="27.4286" rx="4.57143" fill="#6A55EA"/>
<rect x="13.7148" y="6.85718" width="4.57143" height="18.2857" rx="1.14286" fill="white"/>
<rect x="25.1426" y="13.7144" width="4.57143" height="18.2857" rx="1.14286" transform="rotate(90 25.1426 13.7144)" fill="white"/>
<path d="M42.0028 26H53.0428V23.24H45.1948V9.2H42.0028V26ZM54.0523 8.72V12.008H57.2203V8.72H54.0523ZM54.1723 26H57.1243V13.904H54.1723V26ZM60.7819 26H63.7339V16.376H67.2619V13.904H63.7339V12.92C63.7339 11.864 64.4059 11.216 65.4379 11.216H67.2619V8.72H65.1019C62.4859 8.72 60.7819 10.328 60.7819 12.776V13.904H58.4059V16.376H60.7819V26ZM76.2825 21.968C75.9705 23.12 74.9865 23.744 73.4745 23.744C71.6025 23.744 70.3545 22.496 70.1385 20.552H79.0665C79.0905 20.312 79.1145 19.952 79.1145 19.544C79.1145 16.664 77.2905 13.712 73.2345 13.712C69.2745 13.712 67.3065 16.712 67.3065 19.904C67.3065 23.072 69.5145 26.192 73.4745 26.192C76.4505 26.192 78.7065 24.536 79.1625 21.968H76.2825ZM73.2345 15.92C74.9865 15.92 76.0425 17.072 76.1625 18.608H70.2105C70.5225 16.784 71.5785 15.92 73.2345 15.92ZM86.1658 26.192C89.2858 26.192 91.6378 24.296 92.0218 21.656H89.0458C88.7578 22.856 87.6778 23.648 86.2858 23.648C84.2218 23.648 83.0938 22.064 83.0938 19.952C83.0938 17.84 84.1978 16.256 86.2378 16.256C87.6298 16.256 88.8058 17.12 89.0218 18.32H91.9498C91.6858 15.536 89.2138 13.712 86.1658 13.712C82.3978 13.712 80.0218 16.496 80.0218 19.952C80.0218 23.408 82.3978 26.192 86.1658 26.192ZM98.2817 13.712C95.1377 13.712 93.0977 15.584 92.9537 17.984H95.5937C95.6417 16.904 96.5777 15.92 98.1377 15.92C99.6977 15.92 100.61 16.76 100.61 17.936C100.61 18.416 100.322 18.752 99.7217 18.752H97.4897C94.7777 18.752 92.9537 20.216 92.9537 22.568C92.9537 24.656 94.5857 26.192 96.9857 26.192C98.7137 26.192 100.106 25.4 100.61 24.2V26H103.514V18.224C103.514 15.488 101.354 13.712 98.2817 13.712ZM97.6817 24.008C96.5777 24.008 95.8097 23.384 95.8097 22.448C95.8097 21.392 96.6497 20.696 97.8977 20.696H100.61V20.888C100.61 22.712 99.5297 24.008 97.6817 24.008ZM112.955 16.376V13.904H111.539C109.979 13.904 109.043 14.504 108.443 16.04V13.904H105.491V26H108.443V20.288C108.443 17.984 109.187 16.376 111.059 16.376H112.955ZM122.058 21.968C121.746 23.12 120.762 23.744 119.25 23.744C117.378 23.744 116.13 22.496 115.914 20.552H124.842C124.866 20.312 124.89 19.952 124.89 19.544C124.89 16.664 123.066 13.712 119.01 13.712C115.05 13.712 113.082 16.712 113.082 19.904C113.082 23.072 115.29 26.192 119.25 26.192C122.226 26.192 124.482 24.536 124.938 21.968H122.058ZM119.01 15.92C120.762 15.92 121.818 17.072 121.938 18.608H115.986C116.298 16.784 117.354 15.92 119.01 15.92Z" fill="#1D354F"/>
</svg>
