<svg width="33" height="33" viewBox="0 0 33 33" fill="none" xmlns="http://www.w3.org/2000/svg">
<rect width="33" height="33" rx="16.5" fill="#AFF0B6" fill-opacity="0.4"/>
<path d="M13.0241 22.169C12.2386 22.1657 11.5675 21.9586 11.0107 21.5476C10.4538 21.1366 10.0279 20.5384 9.73295 19.7528C9.43797 18.9673 9.29048 18.0211 9.29048 16.9141C9.29048 15.8104 9.43797 14.8674 9.73295 14.0852C10.0313 13.303 10.4588 12.7064 11.0156 12.2955C11.5758 11.8845 12.2453 11.679 13.0241 11.679C13.803 11.679 14.4709 11.8861 15.0277 12.3004C15.5845 12.7114 16.0104 13.308 16.3054 14.0902C16.6037 14.8691 16.7528 15.8104 16.7528 16.9141C16.7528 18.0244 16.6054 18.9723 16.3104 19.7578C16.0154 20.54 15.5895 21.1383 15.0327 21.5526C14.4759 21.9635 13.8063 22.169 13.0241 22.169ZM13.0241 20.8416C13.7135 20.8416 14.2521 20.5052 14.6399 19.8324C15.031 19.1596 15.2266 18.1868 15.2266 16.9141C15.2266 16.0689 15.1371 15.3546 14.9581 14.7713C14.7824 14.1847 14.5289 13.7405 14.1974 13.4389C13.8693 13.134 13.4782 12.9815 13.0241 12.9815C12.3381 12.9815 11.7995 13.3196 11.4084 13.9957C11.0173 14.6719 10.8201 15.6446 10.8168 16.9141C10.8168 17.7625 10.9046 18.4801 11.0803 19.0668C11.2592 19.6501 11.5128 20.0926 11.8409 20.3942C12.169 20.6925 12.5634 20.8416 13.0241 20.8416ZM21.8194 11.8182V22H20.2782V13.3594H20.2186L17.7825 14.9503V13.4787L20.323 11.8182H21.8194Z" fill="#1D354F"/>
</svg>
