<svg width="33" height="33" viewBox="0 0 33 33" fill="none" xmlns="http://www.w3.org/2000/svg">
<rect width="33" height="33" rx="16.5" fill="#AFF0B6" fill-opacity="0.4"/>
<path d="M12.0241 22.169C11.2386 22.1657 10.5675 21.9586 10.0107 21.5476C9.45384 21.1366 9.02794 20.5384 8.73295 19.7528C8.43797 18.9673 8.29048 18.0211 8.29048 16.9141C8.29048 15.8104 8.43797 14.8674 8.73295 14.0852C9.03125 13.303 9.45881 12.7064 10.0156 12.2955C10.5758 11.8845 11.2453 11.679 12.0241 11.679C12.803 11.679 13.4709 11.8861 14.0277 12.3004C14.5845 12.7114 15.0104 13.308 15.3054 14.0902C15.6037 14.8691 15.7528 15.8104 15.7528 16.9141C15.7528 18.0244 15.6054 18.9723 15.3104 19.7578C15.0154 20.54 14.5895 21.1383 14.0327 21.5526C13.4759 21.9635 12.8063 22.169 12.0241 22.169ZM12.0241 20.8416C12.7135 20.8416 13.2521 20.5052 13.6399 19.8324C14.031 19.1596 14.2266 18.1868 14.2266 16.9141C14.2266 16.0689 14.1371 15.3546 13.9581 14.7713C13.7824 14.1847 13.5289 13.7405 13.1974 13.4389C12.8693 13.134 12.4782 12.9815 12.0241 12.9815C11.3381 12.9815 10.7995 13.3196 10.4084 13.9957C10.0173 14.6719 9.82008 15.6446 9.81676 16.9141C9.81676 17.7625 9.90459 18.4801 10.0803 19.0668C10.2592 19.6501 10.5128 20.0926 10.8409 20.3942C11.169 20.6925 11.5634 20.8416 12.0241 20.8416ZM20.5013 22.1392C19.8185 22.1392 19.2086 22.0215 18.6717 21.7862C18.1381 21.5509 17.7155 21.2244 17.404 20.8068C17.0957 20.3859 16.93 19.8987 16.9068 19.3452H18.4679C18.4878 19.6468 18.5889 19.9086 18.7711 20.1307C18.9567 20.3494 19.1987 20.5185 19.497 20.6378C19.7953 20.7571 20.1267 20.8168 20.4913 20.8168C20.8924 20.8168 21.247 20.7472 21.5552 20.608C21.8668 20.4687 22.1104 20.2749 22.2861 20.0263C22.4617 19.7744 22.5496 19.4844 22.5496 19.1562C22.5496 18.8149 22.4617 18.5149 22.2861 18.2564C22.1137 17.9946 21.8602 17.7891 21.5254 17.6399C21.194 17.4908 20.7929 17.4162 20.3223 17.4162H19.4622V16.1634H20.3223C20.7001 16.1634 21.0316 16.0954 21.3166 15.9595C21.6049 15.8236 21.8303 15.6347 21.9927 15.3928C22.1551 15.1475 22.2363 14.8608 22.2363 14.5327C22.2363 14.2178 22.1651 13.9444 22.0226 13.7124C21.8834 13.477 21.6845 13.2931 21.426 13.1605C21.1708 13.0279 20.8692 12.9616 20.5211 12.9616C20.1897 12.9616 19.8798 13.023 19.5915 13.1456C19.3064 13.2649 19.0744 13.4373 18.8954 13.6626C18.7165 13.8847 18.6203 14.1515 18.6071 14.4631H17.1206C17.1371 13.9129 17.2996 13.429 17.6078 13.0114C17.9193 12.5937 18.3303 12.2673 18.8407 12.032C19.3512 11.7966 19.9179 11.679 20.541 11.679C21.194 11.679 21.7574 11.8066 22.2314 12.0618C22.7086 12.3137 23.0765 12.6501 23.3351 13.071C23.5969 13.492 23.7262 13.9527 23.7228 14.4531C23.7262 15.0232 23.5671 15.5071 23.2456 15.9048C22.9274 16.3026 22.5032 16.5694 21.9728 16.7053V16.7848C22.649 16.8875 23.1727 17.156 23.5439 17.5902C23.9184 18.0244 24.104 18.563 24.1007 19.206C24.104 19.7661 23.9482 20.2682 23.6334 20.7124C23.3218 21.1565 22.8959 21.5062 22.3557 21.7614C21.8154 22.0133 21.1973 22.1392 20.5013 22.1392Z" fill="#1D354F"/>
</svg>
