<svg width="33" height="33" viewBox="0 0 33 33" fill="none" xmlns="http://www.w3.org/2000/svg">
<rect width="33" height="33" rx="16.5" fill="#AFF0B6" fill-opacity="0.4"/>
<path d="M12.0241 22.169C11.2386 22.1657 10.5675 21.9586 10.0107 21.5476C9.45384 21.1366 9.02794 20.5384 8.73295 19.7528C8.43797 18.9673 8.29048 18.0211 8.29048 16.9141C8.29048 15.8104 8.43797 14.8674 8.73295 14.0852C9.03125 13.303 9.45881 12.7064 10.0156 12.2955C10.5758 11.8845 11.2453 11.679 12.0241 11.679C12.803 11.679 13.4709 11.8861 14.0277 12.3004C14.5845 12.7114 15.0104 13.308 15.3054 14.0902C15.6037 14.8691 15.7528 15.8104 15.7528 16.9141C15.7528 18.0244 15.6054 18.9723 15.3104 19.7578C15.0154 20.54 14.5895 21.1383 14.0327 21.5526C13.4759 21.9635 12.8063 22.169 12.0241 22.169ZM12.0241 20.8416C12.7135 20.8416 13.2521 20.5052 13.6399 19.8324C14.031 19.1596 14.2266 18.1868 14.2266 16.9141C14.2266 16.0689 14.1371 15.3546 13.9581 14.7713C13.7824 14.1847 13.5289 13.7405 13.1974 13.4389C12.8693 13.134 12.4782 12.9815 12.0241 12.9815C11.3381 12.9815 10.7995 13.3196 10.4084 13.9957C10.0173 14.6719 9.82008 15.6446 9.81676 16.9141C9.81676 17.7625 9.90459 18.4801 10.0803 19.0668C10.2592 19.6501 10.5128 20.0926 10.8409 20.3942C11.169 20.6925 11.5634 20.8416 12.0241 20.8416ZM16.9565 22V20.8864L20.4018 17.3168C20.7697 16.929 21.073 16.5893 21.3116 16.2976C21.5536 16.0026 21.7342 15.7225 21.8535 15.4574C21.9728 15.1922 22.0325 14.9105 22.0325 14.6122C22.0325 14.2741 21.953 13.9825 21.7939 13.7372C21.6348 13.4886 21.4177 13.2981 21.1426 13.1655C20.8675 13.0296 20.5576 12.9616 20.2129 12.9616C19.8483 12.9616 19.5301 13.0362 19.2584 13.1854C18.9866 13.3345 18.7778 13.545 18.6319 13.8168C18.4861 14.0885 18.4132 14.4067 18.4132 14.7713H16.9466C16.9466 14.1515 17.0891 13.6096 17.3741 13.1456C17.6592 12.6816 18.0503 12.322 18.5474 12.0668C19.0446 11.8082 19.6097 11.679 20.2427 11.679C20.8824 11.679 21.4459 11.8066 21.9331 12.0618C22.4236 12.3137 22.8064 12.6584 23.0815 13.0959C23.3566 13.5301 23.4942 14.0206 23.4942 14.5675C23.4942 14.9453 23.4229 15.3149 23.2804 15.6761C23.1412 16.0374 22.8976 16.4401 22.5496 16.8842C22.2015 17.325 21.7176 17.8603 21.0978 18.4901L19.0744 20.608V20.6825H23.6582V22H16.9565Z" fill="#1D354F"/>
</svg>
