<svg width="56" height="56" viewBox="0 0 56 56" fill="none" xmlns="http://www.w3.org/2000/svg">
<rect width="56" height="56" rx="28" fill="#C8F2C5"/>
<path d="M28.0007 38.4166C33.7536 38.4166 38.4173 33.7529 38.4173 27.9999C38.4173 22.247 33.7536 17.5833 28.0007 17.5833C22.2477 17.5833 17.584 22.247 17.584 27.9999C17.584 33.7529 22.2477 38.4166 28.0007 38.4166Z" fill="#1D354F" stroke="#C8F2C5" stroke-width="1.5" stroke-linecap="round" stroke-linejoin="round"/>
<path d="M32.3327 27.9999C32.3327 33.9999 29.6561 37.6666 27.9993 37.6666C26.3425 37.6666 23.666 33.9999 23.666 27.9999C23.666 21.9999 26.3425 18.3333 27.9993 18.3333C29.6561 18.3333 32.3327 21.9999 32.3327 27.9999Z" stroke="#C8F2C5" stroke-width="1.5" stroke-linecap="round" stroke-linejoin="round"/>
<path d="M18.666 28H27.9993H37.3327" stroke="#C8F2C5" stroke-width="1.5" stroke-linecap="round" stroke-linejoin="round"/>
</svg>
