<svg width="56" height="56" viewBox="0 0 56 56" fill="none" xmlns="http://www.w3.org/2000/svg">
<rect width="56" height="56" rx="28" fill="#D2CCF9"/>
<path d="M28.0007 37.6666C33.3394 37.6666 37.6673 33.3387 37.6673 27.9999C37.6673 22.6612 33.3394 18.3333 28.0007 18.3333C22.6619 18.3333 18.334 22.6612 18.334 27.9999C18.334 33.3387 22.6619 37.6666 28.0007 37.6666Z" fill="#1D354F"/>
<path d="M31 23.6667H27.1667C25.97 23.6667 25 24.6368 25 25.8334C25 27.0301 25.97 28.0001 27.1667 28.0001H28.8333C30.03 28.0001 31 28.9701 31 30.1667C31 31.3634 30.03 32.3334 28.8333 32.3334H25" stroke="#D2CCF9" stroke-width="1.5" stroke-linecap="round" stroke-linejoin="round"/>
<path d="M28 22.3333V22.9999" stroke="#D2CCF9" stroke-width="1.5" stroke-linecap="round" stroke-linejoin="round"/>
<path d="M28 33V33.6667" stroke="#D2CCF9" stroke-width="1.5" stroke-linecap="round" stroke-linejoin="round"/>
</svg>
