<svg width="56" height="56" viewBox="0 0 56 56" fill="none" xmlns="http://www.w3.org/2000/svg">
<rect width="56" height="56" rx="28" fill="#7FBCE8"/>
<path d="M18.334 20.9999C18.334 19.5272 19.5279 18.3333 21.0007 18.3333H35.0007C36.4734 18.3333 37.6673 19.5272 37.6673 20.9999V30.9999C37.6673 32.4727 36.4734 33.6666 35.0007 33.6666H31.5007L28.0007 37.6666L24.5007 33.6666H21.0007C19.5279 33.6666 18.334 32.4727 18.334 30.9999V20.9999Z" fill="#1D354F"/>
<path d="M28 22.6667V25.3334" stroke="#7FBCE8" stroke-width="2" stroke-linecap="round" stroke-linejoin="round"/>
<path d="M28.6673 29.3334C28.6673 29.7015 28.3688 30.0001 28.0007 30.0001C27.6325 30.0001 27.334 29.7015 27.334 29.3334C27.334 28.9653 27.6325 28.6667 28.0007 28.6667C28.3688 28.6667 28.6673 28.9653 28.6673 29.3334Z" stroke="#7FBCE8" stroke-linecap="round" stroke-linejoin="round"/>
</svg>
