<svg width="56" height="56" viewBox="0 0 56 56" fill="none" xmlns="http://www.w3.org/2000/svg">
<rect width="56" height="56" rx="28" fill="#FDB86B"/>
<path d="M28.307 17.6489C28.1118 17.5614 27.8885 17.5614 27.6934 17.6489L18.0267 21.9822C17.7735 22.0957 17.6036 22.3398 17.5852 22.6167L18.3335 22.6666C17.5852 22.6167 17.5852 22.617 17.5851 22.6174L17.5851 22.6184L17.5849 22.6215L17.5842 22.6318L17.5821 22.6683C17.5804 22.6996 17.5781 22.7448 17.5756 22.8028C17.5706 22.919 17.5649 23.0869 17.5615 23.2992C17.5547 23.7236 17.5575 24.3267 17.5949 25.0492C17.6696 26.4899 17.8834 28.4262 18.4463 30.3747C19.0077 32.3181 19.9311 34.3249 21.4594 35.8532C23.0072 37.401 25.1359 38.4166 28.0002 38.4166C30.8645 38.4166 32.9931 37.401 34.5409 35.8532C36.0692 34.3249 36.9926 32.3181 37.554 30.3747C38.1169 28.4262 38.3307 26.4899 38.4054 25.0492C38.4429 24.3267 38.4456 23.7236 38.4389 23.2992C38.4355 23.0869 38.4298 22.919 38.4248 22.8028C38.4223 22.7448 38.42 22.6996 38.4182 22.6683L38.4161 22.6318L38.4155 22.6215L38.4153 22.6184L38.4152 22.6174C38.4152 22.617 38.4152 22.6167 37.6668 22.6666L38.4152 22.6167C38.3967 22.3398 38.2269 22.0957 37.9736 21.9822L28.307 17.6489Z" fill="#1D354F" stroke="#1D354F" stroke-width="1.5" stroke-linecap="round" stroke-linejoin="round"/>
<path d="M25 29L26.6667 31L31 25" stroke="#FDB86B" stroke-width="1.5" stroke-linecap="round" stroke-linejoin="round"/>
</svg>
