<svg width="32" height="32" viewBox="0 0 32 32" fill="none" xmlns="http://www.w3.org/2000/svg">
<path d="M15.5242 7.83095C15.672 7.36642 16.3293 7.36642 16.4771 7.83095L18.2231 13.3184C18.2891 13.5259 18.4819 13.6668 18.6996 13.6668H24.21C24.6861 13.6668 24.8928 14.2692 24.517 14.5615L19.9304 18.1288C19.7711 18.2528 19.7019 18.4603 19.755 18.6551L21.2535 24.1495C21.3818 24.6199 20.8297 24.977 20.4533 24.667L16.3185 21.2619C16.1339 21.1099 15.8674 21.1099 15.6828 21.2619L11.548 24.667C11.1716 24.977 10.6195 24.6199 10.7478 24.1495L12.2463 18.6551C12.2994 18.4603 12.2302 18.2528 12.0709 18.1288L7.48428 14.5615C7.10849 14.2692 7.31517 13.6668 7.79125 13.6668H13.3017C13.5194 13.6668 13.7122 13.5259 13.7782 13.3184L15.5242 7.83095Z" fill="#F6E700"/>
</svg>
