<svg width="44" height="43" viewBox="0 0 44 43" fill="none" xmlns="http://www.w3.org/2000/svg">
<path d="M41.3333 4.66667C41.3333 3.19392 40.1395 2 38.6667 2H27.3333C24.3877 2 22 4.38781 22 7.33333V40.6667L24.2091 38.4576C26.2096 36.4571 28.9227 35.3333 31.7517 35.3333H38.6667C40.1395 35.3333 41.3333 34.1395 41.3333 32.6667V4.66667Z" stroke="#1D354F" stroke-width="4" stroke-linecap="round" stroke-linejoin="round"/>
<path d="M2.66602 4.66667C2.66602 3.19392 3.85994 2 5.33268 2H16.666C19.6116 2 21.9993 4.38781 21.9993 7.33333V40.6667L19.7903 38.4576C17.7897 36.4571 15.0767 35.3333 12.2477 35.3333H5.33268C3.85994 35.3333 2.66602 34.1395 2.66602 32.6667V4.66667Z" stroke="#1D354F" stroke-width="4" stroke-linecap="round" stroke-linejoin="round"/>
</svg>
